<?xml version="1.0" encoding="utf-8"?>
<!-- Generator: Adobe Illustrator 27.6.0, SVG Export Plug-In . SVG Version: 6.00 Build 0)  -->
<svg version="1.1" id="Layer_2_00000125565885540853706470000001495074002687753377_"
	 xmlns="http://www.w3.org/2000/svg" xmlns:xlink="http://www.w3.org/1999/xlink" x="0px" y="0px" viewBox="0 0 250 225.9"
	 style="enable-background:new 0 0 250 225.9;" xml:space="preserve">
<style type="text/css">
	.st0{display:none;opacity:0.1;}
	.st1{display:inline;}
	.st2{clip-path:url(#SVGID_00000088828162405793962580000006713348999547725756_);}
	.st3{clip-path:url(#SVGID_00000078746031627302131280000008788329029292107920_);fill:#0060A0;}
	.st4{clip-path:url(#SVGID_00000006677014145790655400000016307690105033683872_);fill:#ED1C24;}
	
		.st5{clip-path:url(#SVGID_00000162311798329635822880000010399546154471909813_);fill:none;stroke:#B4C7E3;stroke-width:0.2835;stroke-miterlimit:10;}
	
		.st6{clip-path:url(#SVGID_00000134234497824359749580000005269731167359696771_);fill:none;stroke:#B4C7E3;stroke-width:0.2835;stroke-miterlimit:10;}
	
		.st7{clip-path:url(#SVGID_00000044170914019514702190000006850633405380596401_);fill:none;stroke:#B4C7E3;stroke-width:0.2835;stroke-miterlimit:10;}
	
		.st8{clip-path:url(#SVGID_00000055665822038977310600000003257818969413493398_);fill:none;stroke:#B4C7E3;stroke-width:0.2835;stroke-miterlimit:10;}
	
		.st9{clip-path:url(#SVGID_00000026872202689249235490000017720258284788951951_);fill:none;stroke:#B4C7E3;stroke-width:0.2835;stroke-miterlimit:10;}
	
		.st10{clip-path:url(#SVGID_00000111873208441216385750000010137496767455462335_);fill:none;stroke:#B4C7E3;stroke-width:0.2835;stroke-miterlimit:10;}
	
		.st11{clip-path:url(#SVGID_00000006679659409192787680000001624281399006655408_);fill:none;stroke:#B4C7E3;stroke-width:0.2835;stroke-miterlimit:10;}
	
		.st12{clip-path:url(#SVGID_00000159472330982555888380000008597313332416847004_);fill:none;stroke:#B4C7E3;stroke-width:0.2835;stroke-miterlimit:10;}
	
		.st13{clip-path:url(#SVGID_00000086672840286303643530000013439468873566840448_);fill:none;stroke:#B4C7E3;stroke-width:0.2835;stroke-miterlimit:10;}
	.st14{clip-path:url(#SVGID_00000178201972019144062370000015621069995966318246_);fill:#0060A0;}
	.st15{clip-path:url(#SVGID_00000047738427104868948090000013683352996191298980_);fill:#0060A0;}
	.st16{clip-path:url(#SVGID_00000068636596378986520190000000422121106870791304_);fill:#0060A0;}
	.st17{clip-path:url(#SVGID_00000000901307244703467560000016369026962012551841_);fill:#0060A0;}
	.st18{clip-path:url(#SVGID_00000183217009519890555760000006439243436021296005_);fill:#0060A0;}
	.st19{clip-path:url(#SVGID_00000003082565871477756130000005694251186507440824_);fill:#0060A0;}
	.st20{clip-path:url(#SVGID_00000114042467355977440440000015798721639497573040_);fill:#0060A0;}
	.st21{clip-path:url(#SVGID_00000059290433359320593170000015573147297286155962_);fill:#0060A0;}
	.st22{clip-path:url(#SVGID_00000161613970485514906100000001675630130581171077_);fill:#0060A0;}
	.st23{fill:#FFFFFF;stroke:#FFFFFF;stroke-width:0.2835;stroke-miterlimit:10;}
	.st24{fill:none;stroke:#FFFFFF;stroke-width:0.2835;stroke-miterlimit:10;}
	.st25{fill:#EC2028;}
	.st26{fill:#FFFFFF;stroke:#FFFFFF;stroke-miterlimit:10;}
</style>
<g>
	<g id="S4O_blau_00000178884176216958184220000008677035727893750922_" class="st0">
		<g class="st1">
			<g>
				<g>
					<g>
						<defs>
							<rect id="SVGID_1_" x="-7.6" y="140.2" width="260.6" height="72.1"/>
						</defs>
						<clipPath id="SVGID_00000134223999853731374080000013738176047124357504_">
							<use xlink:href="#SVGID_1_"  style="overflow:visible;"/>
						</clipPath>
						<g style="clip-path:url(#SVGID_00000134223999853731374080000013738176047124357504_);">
							<g>
								<g>
									<g>
										<defs>
											<rect id="SVGID_00000147900624752235928230000002384160617535268539_" x="-7.6" y="140.2" width="260.6" height="72.1"/>
										</defs>
										<clipPath id="SVGID_00000057114070341230316810000009740117174027142054_">
											<use xlink:href="#SVGID_00000147900624752235928230000002384160617535268539_"  style="overflow:visible;"/>
										</clipPath>
										<path style="clip-path:url(#SVGID_00000057114070341230316810000009740117174027142054_);fill:#0060A0;" d="M29.3,151.5
											c0,0-16.6,15.1-17.9,34.3s2.3,21.1,2.3,21.1s7.4-8.2,20.2-3.9s24,9.4,24,9.4s-16.7-21.6-22.7-37.2
											C29.2,159.4,29.3,151.5,29.3,151.5"/>
									</g>
								</g>
							</g>
							<g>
								<g>
									<g>
										<defs>
											<rect id="SVGID_00000029003790283815753250000010313020771708124335_" x="-7.6" y="140.2" width="260.6" height="72.1"/>
										</defs>
										<clipPath id="SVGID_00000059999421464648699740000014308307705588868542_">
											<use xlink:href="#SVGID_00000029003790283815753250000010313020771708124335_"  style="overflow:visible;"/>
										</clipPath>
										<path style="clip-path:url(#SVGID_00000059999421464648699740000014308307705588868542_);fill:#ED1C24;" d="M90.3,210.8
											l3.2-16.2h-30l2.3-12.4l31.9-42H121l-7.6,40.4h7.7l-2.6,14h-7.7l-3,16.2H90.3L90.3,210.8z M96,180.6l2.6-11.7
											c1.2-4.9,2.6-10.1,3.7-14.9h-0.4c-3.2,5-6.3,9.8-9.9,14.9l-8.2,11.5l-0.1,0.2H96L96,180.6z"/>
									</g>
								</g>
							</g>
							<g>
								<g>
									<g>
										<defs>
											<rect id="SVGID_00000163038730387759667900000010753229784314935444_" x="-7.6" y="140.2" width="260.6" height="72.1"/>
										</defs>
										<clipPath id="SVGID_00000078764133493753456300000004619578592523000219_">
											<use xlink:href="#SVGID_00000163038730387759667900000010753229784314935444_"  style="overflow:visible;"/>
										</clipPath>
										
											<path style="clip-path:url(#SVGID_00000078764133493753456300000004619578592523000219_);fill:none;stroke:#B4C7E3;stroke-width:0.2835;stroke-miterlimit:10;" d="
											M-4.1,184.6c1.6,0.9,3.9,1.7,6.4,1.7c1.8,0,3.5-0.7,3.5-2.2c0-1.3-1.2-2-3.4-3.2c-2.5-1.4-5.5-3.4-5.5-7
											c0-5.5,4.9-8.8,10.9-8.8c3.4,0,5.3,0.6,6.5,1.3l-2,5.5c-0.9-0.4-2.8-1.2-5-1.1c-2.3,0-3.4,0.9-3.4,2
											c0,1.3,1.7,2.1,3.7,3.2c3.1,1.6,5.3,3.7,5.3,6.8c0,6.4-5.4,9.1-11.1,9.1c-4.1-0.1-6.7-1-8-1.9L-4.1,184.6z"/>
									</g>
								</g>
							</g>
							<g>
								<g>
									<g>
										<defs>
											<rect id="SVGID_00000150091628295103111370000014515556813248603555_" x="-7.6" y="140.2" width="260.6" height="72.1"/>
										</defs>
										<clipPath id="SVGID_00000084498709307240309070000010811013626971221408_">
											<use xlink:href="#SVGID_00000150091628295103111370000014515556813248603555_"  style="overflow:visible;"/>
										</clipPath>
										
											<polygon style="clip-path:url(#SVGID_00000084498709307240309070000010811013626971221408_);fill:none;stroke:#B4C7E3;stroke-width:0.2835;stroke-miterlimit:10;" points="
											54,165.5 49.1,191.5 42.5,191.5 47.4,165.5 										"/>
									</g>
								</g>
							</g>
							<g>
								<g>
									<g>
										<defs>
											<rect id="SVGID_00000114763784871375408120000003281966447022687658_" x="-7.6" y="140.2" width="260.6" height="72.1"/>
										</defs>
										<clipPath id="SVGID_00000057835715962138717780000016841226406807844483_">
											<use xlink:href="#SVGID_00000114763784871375408120000003281966447022687658_"  style="overflow:visible;"/>
										</clipPath>
										
											<polygon style="clip-path:url(#SVGID_00000057835715962138717780000016841226406807844483_);fill:none;stroke:#B4C7E3;stroke-width:0.2835;stroke-miterlimit:10;" points="
											58.9,165.5 65.5,165.5 61.6,185.7 71.4,185.7 70.3,191.5 54,191.5 										"/>
									</g>
								</g>
							</g>
							<g>
								<g>
									<g>
										<defs>
											<rect id="SVGID_00000044144244772051399400000017589054488724360106_" x="-7.6" y="140.2" width="260.6" height="72.1"/>
										</defs>
										<clipPath id="SVGID_00000064342080511839795650000007519093803127184543_">
											<use xlink:href="#SVGID_00000044144244772051399400000017589054488724360106_"  style="overflow:visible;"/>
										</clipPath>
										
											<path style="clip-path:url(#SVGID_00000064342080511839795650000007519093803127184543_);fill:none;stroke:#B4C7E3;stroke-width:0.2835;stroke-miterlimit:10;" d="
											M132.5,176c0,4.8-1.7,9.3-4.6,12.2c-2.5,2.4-5.9,3.8-9.9,3.8c-6.8,0-10.9-4.7-10.9-11c0-4.8,1.7-9.3,4.8-12.1
											c2.5-2.4,5.9-3.8,9.9-3.8C128.5,165,132.5,169.5,132.5,176z M117.1,172.2c-1.9,1.9-3,5.7-3,8.6c0,3.4,1.6,5.6,4.8,5.6
											c1.4,0,2.6-0.6,3.6-1.6c1.8-1.9,2.9-6,2.9-8.7c0-3.1-1.2-5.6-4.6-5.6C119.4,170.5,118.1,171.1,117.1,172.2z"/>
									</g>
								</g>
							</g>
							<g>
								<g>
									<g>
										<defs>
											<rect id="SVGID_00000084505265311869882660000014054355164253927569_" x="-7.6" y="140.2" width="260.6" height="72.1"/>
										</defs>
										<clipPath id="SVGID_00000150061118747848340260000004067868349618439315_">
											<use xlink:href="#SVGID_00000084505265311869882660000014054355164253927569_"  style="overflow:visible;"/>
										</clipPath>
										
											<path style="clip-path:url(#SVGID_00000150061118747848340260000004067868349618439315_);fill:none;stroke:#B4C7E3;stroke-width:0.2835;stroke-miterlimit:10;" d="
											M146.5,191.5l-1.4-4.7c-0.4-1.5-0.8-2.7-1.3-4.5h-0.1c-0.9,1.6-1.5,2.9-2.5,4.7l-2.4,4.5h-7.9l9.6-13.3l-4.5-12.7h7
											l1.2,4.3c0.4,1.6,0.7,2.8,1.2,4.5h0.1c1-2,1.6-3.2,2.4-4.6l2.2-4.1h7.9l-9.3,12.8l4.9,13.3L146.5,191.5L146.5,191.5z"/>
									</g>
								</g>
							</g>
							<g>
								<g>
									<g>
										<defs>
											<rect id="SVGID_00000056420092825398250990000008540650183338456228_" x="-7.6" y="140.2" width="260.6" height="72.1"/>
										</defs>
										<clipPath id="SVGID_00000087383824347169557340000014261262678863717528_">
											<use xlink:href="#SVGID_00000056420092825398250990000008540650183338456228_"  style="overflow:visible;"/>
										</clipPath>
										
											<path style="clip-path:url(#SVGID_00000087383824347169557340000014261262678863717528_);fill:none;stroke:#B4C7E3;stroke-width:0.2835;stroke-miterlimit:10;" d="
											M161.9,191.5l2-10.5l-5.1-15.5h7.1l1.3,5.8c0.4,2.1,0.7,3.4,1,4.9h0.1c0.8-1.5,1.6-3,2.6-4.9l3.2-5.8h7.9l-11.3,15.3
											l-2,10.7H161.9L161.9,191.5z"/>
									</g>
								</g>
							</g>
							<g>
								<g>
									<g>
										<defs>
											<rect id="SVGID_00000036967328703838297040000003596803066651638437_" x="-7.6" y="140.2" width="260.6" height="72.1"/>
										</defs>
										<clipPath id="SVGID_00000124863232186177254770000013862379871819196061_">
											<use xlink:href="#SVGID_00000036967328703838297040000003596803066651638437_"  style="overflow:visible;"/>
										</clipPath>
										
											<path style="clip-path:url(#SVGID_00000124863232186177254770000013862379871819196061_);fill:none;stroke:#B4C7E3;stroke-width:0.2835;stroke-miterlimit:10;" d="
											M200.2,190.3c-2.2,0.7-5.5,1.5-8.9,1.5c-3.5,0-6.5-0.9-8.8-2.7c-2.1-1.7-3.6-4.6-3.6-8.2c0-5.1,2.1-9.2,5.4-12
											c3-2.4,7.2-3.7,11.9-3.7c3.4,0,6.1,0.6,7.2,1.2l-1.9,5.5c-1.1-0.5-3.3-1-5.6-1s-4.5,0.6-6,1.6c-2.2,1.6-3.7,4.4-3.7,8
											c0,4.1,2.6,5.8,6,5.8c1.2,0,1.8-0.1,2.3-0.3l0.9-4.5h-3.5l1-5.3h9.9L200.2,190.3z"/>
									</g>
								</g>
							</g>
							<g>
								<g>
									<g>
										<defs>
											<rect id="SVGID_00000052099608003593693820000005368141442333513397_" x="-7.6" y="140.2" width="260.6" height="72.1"/>
										</defs>
										<clipPath id="SVGID_00000073716469166883054320000007232172980508729787_">
											<use xlink:href="#SVGID_00000052099608003593693820000005368141442333513397_"  style="overflow:visible;"/>
										</clipPath>
										
											<polygon style="clip-path:url(#SVGID_00000073716469166883054320000007232172980508729787_);fill:none;stroke:#B4C7E3;stroke-width:0.2835;stroke-miterlimit:10;" points="
											222.3,181 213.2,181 212.3,185.9 222.5,185.9 221.5,191.5 204.6,191.5 209.5,165.5 225.8,165.5 224.8,171.1 215.1,171.1 
											214.2,175.4 223.4,175.4 										"/>
									</g>
								</g>
							</g>
							<g>
								<g>
									<g>
										<defs>
											<rect id="SVGID_00000159457849365758643220000007625535757486486657_" x="-7.6" y="140.2" width="260.6" height="72.1"/>
										</defs>
										<clipPath id="SVGID_00000108987708982921745360000012111390701555959687_">
											<use xlink:href="#SVGID_00000159457849365758643220000007625535757486486657_"  style="overflow:visible;"/>
										</clipPath>
										
											<path style="clip-path:url(#SVGID_00000108987708982921745360000012111390701555959687_);fill:none;stroke:#B4C7E3;stroke-width:0.2835;stroke-miterlimit:10;" d="
											M225.4,191.5l4.9-26h7.9l2.3,7.9c1,3.5,1.7,6.5,2.4,9.6h0.1c0.1-2.8,0.5-6,1.3-9.9l1.4-7.6h6.1l-4.9,26H240l-2.6-8.5
											c-1.1-3.7-1.8-6.3-2.6-9.8h-0.2c-0.3,2.6-1,6.8-1.8,11.1l-1.4,7.2H225.4L225.4,191.5z"/>
									</g>
								</g>
							</g>
							<g>
								<g>
									<g>
										<defs>
											<rect id="SVGID_00000096046155137917851770000017772936998071795630_" x="-7.6" y="140.2" width="260.6" height="72.1"/>
										</defs>
										<clipPath id="SVGID_00000183229267604816060360000003638013869043164855_">
											<use xlink:href="#SVGID_00000096046155137917851770000017772936998071795630_"  style="overflow:visible;"/>
										</clipPath>
										<path style="clip-path:url(#SVGID_00000183229267604816060360000003638013869043164855_);fill:#0060A0;" d="M-4.1,184.6
											c1.6,0.9,3.9,1.7,6.4,1.7c1.8,0,3.5-0.7,3.5-2.2c0-1.3-1.2-2-3.4-3.2c-2.5-1.4-5.5-3.4-5.5-7c0-5.5,4.9-8.8,10.9-8.8
											c3.4,0,5.3,0.6,6.5,1.3l-2,5.5c-0.9-0.4-2.8-1.2-5-1.1c-2.3,0-3.4,0.9-3.4,2c0,1.3,1.7,2.1,3.7,3.2
											c3.1,1.6,5.3,3.7,5.3,6.8c0,6.4-5.4,9.1-11.1,9.1c-4.1-0.1-6.7-1-8-1.9L-4.1,184.6z"/>
									</g>
								</g>
							</g>
							<g>
								<g>
									<g>
										<defs>
											<rect id="SVGID_00000030476724750126747220000005697312484621766565_" x="-7.6" y="140.2" width="260.6" height="72.1"/>
										</defs>
										<clipPath id="SVGID_00000121271070578772496460000010244579260512505472_">
											<use xlink:href="#SVGID_00000030476724750126747220000005697312484621766565_"  style="overflow:visible;"/>
										</clipPath>
										<polygon style="clip-path:url(#SVGID_00000121271070578772496460000010244579260512505472_);fill:#0060A0;" points="
											54,165.5 49.1,191.5 42.5,191.5 47.4,165.5 										"/>
									</g>
								</g>
							</g>
							<g>
								<g>
									<g>
										<defs>
											<rect id="SVGID_00000061434421232935829140000017230796033862056609_" x="-7.6" y="140.2" width="260.6" height="72.1"/>
										</defs>
										<clipPath id="SVGID_00000023979449013545938550000000039136363283314079_">
											<use xlink:href="#SVGID_00000061434421232935829140000017230796033862056609_"  style="overflow:visible;"/>
										</clipPath>
										<polygon style="clip-path:url(#SVGID_00000023979449013545938550000000039136363283314079_);fill:#0060A0;" points="
											58.9,165.5 65.5,165.5 61.6,185.7 71.4,185.7 70.3,191.5 54,191.5 										"/>
									</g>
								</g>
							</g>
							<g>
								<g>
									<g>
										<defs>
											<rect id="SVGID_00000019676536683603336130000006430082893777280933_" x="-7.6" y="140.2" width="260.6" height="72.1"/>
										</defs>
										<clipPath id="SVGID_00000005252875098591372810000002303742944915723922_">
											<use xlink:href="#SVGID_00000019676536683603336130000006430082893777280933_"  style="overflow:visible;"/>
										</clipPath>
										<path style="clip-path:url(#SVGID_00000005252875098591372810000002303742944915723922_);fill:#0060A0;" d="M132.5,176
											c0,4.8-1.7,9.3-4.6,12.2c-2.5,2.4-5.9,3.8-9.9,3.8c-6.8,0-10.9-4.7-10.9-11c0-4.8,1.7-9.3,4.8-12.1
											c2.5-2.4,5.9-3.8,9.9-3.8C128.5,165,132.5,169.5,132.5,176 M117.1,172.2c-1.9,1.9-3,5.7-3,8.6c0,3.4,1.6,5.6,4.8,5.6
											c1.4,0,2.6-0.6,3.6-1.6c1.8-1.9,2.9-6,2.9-8.7c0-3.1-1.2-5.6-4.6-5.6C119.4,170.5,118.1,171.1,117.1,172.2"/>
									</g>
								</g>
							</g>
							<g>
								<g>
									<g>
										<defs>
											<rect id="SVGID_00000062901357271524249420000014620679862286559367_" x="-7.6" y="140.2" width="260.6" height="72.1"/>
										</defs>
										<clipPath id="SVGID_00000070095741653343199830000002286936481349017015_">
											<use xlink:href="#SVGID_00000062901357271524249420000014620679862286559367_"  style="overflow:visible;"/>
										</clipPath>
										<path style="clip-path:url(#SVGID_00000070095741653343199830000002286936481349017015_);fill:#0060A0;" d="M146.5,191.5
											l-1.4-4.7c-0.4-1.5-0.8-2.7-1.3-4.5h-0.1c-0.9,1.6-1.5,2.9-2.5,4.7l-2.4,4.5h-7.9l9.6-13.3l-4.5-12.7h7l1.2,4.3
											c0.4,1.6,0.7,2.8,1.2,4.5h0.1c1-2,1.6-3.2,2.4-4.6l2.2-4.1h7.9l-9.3,12.8l4.9,13.3L146.5,191.5L146.5,191.5z"/>
									</g>
								</g>
							</g>
							<g>
								<g>
									<g>
										<defs>
											<rect id="SVGID_00000129200764476281190450000014572818200538450841_" x="-7.6" y="140.2" width="260.6" height="72.1"/>
										</defs>
										<clipPath id="SVGID_00000041981887502564352800000016231115311188756925_">
											<use xlink:href="#SVGID_00000129200764476281190450000014572818200538450841_"  style="overflow:visible;"/>
										</clipPath>
										<path style="clip-path:url(#SVGID_00000041981887502564352800000016231115311188756925_);fill:#0060A0;" d="M161.9,191.5
											l2-10.5l-5.1-15.5h7.1l1.3,5.8c0.4,2.1,0.7,3.4,1,4.9h0.1c0.8-1.5,1.6-3,2.6-4.9l3.2-5.8h7.9l-11.3,15.3l-2,10.7H161.9
											L161.9,191.5z"/>
									</g>
								</g>
							</g>
							<g>
								<g>
									<g>
										<defs>
											<rect id="SVGID_00000039849730247385941660000004272311604407192213_" x="-7.6" y="140.2" width="260.6" height="72.1"/>
										</defs>
										<clipPath id="SVGID_00000096046519649329442220000014321027388854546605_">
											<use xlink:href="#SVGID_00000039849730247385941660000004272311604407192213_"  style="overflow:visible;"/>
										</clipPath>
										<path style="clip-path:url(#SVGID_00000096046519649329442220000014321027388854546605_);fill:#0060A0;" d="M200.2,190.3
											c-2.2,0.7-5.5,1.5-8.9,1.5c-3.5,0-6.5-0.9-8.8-2.7c-2.1-1.7-3.6-4.6-3.6-8.2c0-5.1,2.1-9.2,5.4-12c3-2.4,7.2-3.7,11.9-3.7
											c3.4,0,6.1,0.6,7.2,1.2l-1.9,5.5c-1.1-0.5-3.3-1-5.6-1s-4.5,0.6-6,1.6c-2.2,1.6-3.7,4.4-3.7,8c0,4.1,2.6,5.8,6,5.8
											c1.2,0,1.8-0.1,2.3-0.3l0.9-4.5h-3.5l1-5.3h9.9L200.2,190.3z"/>
									</g>
								</g>
							</g>
							<g>
								<g>
									<g>
										<defs>
											<rect id="SVGID_00000158722498872235179890000012712172821972625824_" x="-7.6" y="140.2" width="260.6" height="72.1"/>
										</defs>
										<clipPath id="SVGID_00000075853942632025918220000005385999506421472702_">
											<use xlink:href="#SVGID_00000158722498872235179890000012712172821972625824_"  style="overflow:visible;"/>
										</clipPath>
										<polygon style="clip-path:url(#SVGID_00000075853942632025918220000005385999506421472702_);fill:#0060A0;" points="
											222.3,181 213.2,181 212.3,185.9 222.5,185.9 221.5,191.5 204.6,191.5 209.5,165.5 225.8,165.5 224.8,171.1 215.1,171.1 
											214.2,175.4 223.4,175.4 										"/>
									</g>
								</g>
							</g>
							<g>
								<g>
									<g>
										<defs>
											<rect id="SVGID_00000182495807280798233100000009201610233088988048_" x="-7.6" y="140.2" width="260.6" height="72.1"/>
										</defs>
										<clipPath id="SVGID_00000068637332164982225800000016168624789344383383_">
											<use xlink:href="#SVGID_00000182495807280798233100000009201610233088988048_"  style="overflow:visible;"/>
										</clipPath>
										<path style="clip-path:url(#SVGID_00000068637332164982225800000016168624789344383383_);fill:#0060A0;" d="M225.4,191.5
											l4.9-26h7.9l2.3,7.9c1,3.5,1.7,6.5,2.4,9.6h0.1c0.1-2.8,0.5-6,1.3-9.9l1.4-7.6h6.1l-4.9,26H240l-2.6-8.5
											c-1.1-3.7-1.8-6.3-2.6-9.8h-0.2c-0.3,2.6-1,6.8-1.8,11.1l-1.4,7.2H225.4L225.4,191.5z"/>
									</g>
								</g>
							</g>
						</g>
					</g>
				</g>
			</g>
		</g>
	</g>
	<path class="st23" d="M1.6,156.2c13.8-3.1,27.8-5.7,41.9-7c7.9-0.7,16-1.2,23.9,0.2c2.6,0.5,5.3,1.3,7.4,3c0.7,0.5,1.4,1.1,2.1,1.7
		c0.7,0.6,1.4,1.2,1.8,2c1.1,1.9-0.9,2.4-2.4,2.5c-1.4,0.1-2.7-0.1-4-0.3c-1.8-0.3-3.5-0.6-5.2-1.2c-0.3-0.1-0.7-0.2-1-0.5
		c-0.4-0.4-0.6-0.9-1-1.4c-5.6-8.3-13.6-17.7-24.1-19c-0.9-0.1-1.7-0.1-2.6-0.1c-0.5,0-0.9,0.1-1.4,0.1c0-0.1,0,0.1,0.2-0.3
		c-0.1-0.4-0.1-0.2-0.1-0.3c0.3,0.1,0.6,0.1,0.9,0.2c1.7,0.2,3.5,0.4,5.3,0.5c17.7,1.3,35.4,2.1,53.1,2.1c3.5,0,7.1-0.1,10.6-0.4
		c1.3-0.1,2.6-0.3,3.8-0.7c0.1-0.1,0.3-0.1,0.4-0.2c0.3-0.4,0.4-1.1,0.6-1.6c0.6-3,0.8-6.1,1-9.2c0.3-5.3,0.4-10.6,0.4-15.9
		c0.2-35.4-1.1-70.9-2.3-106.3L110.7,2l1.1,1.8l37.5,60.4l37.5,60.5l0.5,0.8h-1l-69.9,0.3l0.5-0.4c-0.4,3-0.9,6.2-0.8,9.2
		c0,0.3,0.1,0.6,0.2,1l0,0l0,0c0,0-0.1,0,0,0h0.1c3.7,1.5,9.7,0.7,13.7,0.1c1-0.2,2-0.3,3-0.6c1-0.2,2-0.5,3-0.8
		c8-2.7,16.6-3,24.9-2c4.1,0.6,8.4,1.8,11.6,4.6c1.6,1.3,2.8,3.1,4.6,4.1s3.9,0.9,5.9,0.9c7.8-0.2,15.5-1.6,23.4-1.8
		c0.8,0,1.6,0,2.4,0.2c0.2,0.1,0.3,0.1,0.4,0.2c0,0,0,0,0.1,0.1v0.1l0.1,0.1l0.1,0.1c0.3,0.5,0.5,1.1,0.6,1.6c0.2,1,0.4,2.1,0.4,3.1
		c0.1,2.1-0.1,4.3-0.8,6.3c-1.2,3.4-3.9,5.1-7.4,5c-2.1-0.1-4.1-0.7-6.1-1.3c-1-0.4-2.9-0.9-3.5-1.8c-0.5-1,1-1.4,1.7-1.6
		c1-0.2,2.1-0.4,3.1-0.5c3.4-0.3,6.8-0.3,10.2,0c2.8,0.5,5.6,1.4,8.4,1.9c6.1,1.3,12.3,2,18.6,1.6c1-0.1,2.1-0.2,3.1-0.3
		c3-0.5,12.4-2.1,15.4-2.6c-4.7,0.8-14,2.7-18.5,3.1c-4.1,0.4-8.4,0.2-12.5-0.4c-4.1-0.5-8.2-1.5-12.2-2.5c-0.8-0.2-1.5-0.4-2.3-0.4
		c-3.4-0.3-6.7-0.2-10.1,0.1c-1.3,0.2-2.6,0.3-3.7,0.7c-0.3,0.1-0.9,0.4-0.7,0.8c0.4,0.5,1.2,0.9,1.9,1.1c1.4,0.6,2.9,1,4.5,1.4
		c7.9,2,11.1-2.9,10.7-10.3c-0.1-1.3-0.3-2.6-0.6-3.8c-0.1-0.3-0.2-0.6-0.4-0.8c0,0,0,0-0.1-0.1l0,0c-0.1-0.1-0.2-0.1-0.3-0.1
		c-1.2-0.3-2.5-0.2-3.8-0.1c-7.3,0.5-14.5,1.7-21.8,1.9c-1.6,0-3.2,0.1-4.8-0.4c-2.7-0.7-4.2-3.2-6.2-4.8c-1.6-1.3-3.4-2.3-5.3-3
		c-3.9-1.4-8.1-1.7-12.2-1.8c-6.2-0.2-12.4,0.5-18.3,2.5c-1,0.3-2,0.6-3,0.9c-1,0.2-2.1,0.4-3.1,0.6c-4.2,0.6-10.3,1.5-14.2-0.1
		c-0.6-0.3-0.6-1.2-0.7-1.8c-0.1-3.2,0.4-6.3,0.8-9.4l0.1-0.4h0.4l69.9-0.5l-0.5,0.9l-37.6-60.4L110.8,4.4l1.1-0.3
		c1.3,39,2.9,78,2,117c-0.1,3.5-0.3,7.1-0.6,10.6c-0.1,1.4-0.3,2.7-0.6,4c-0.1,0.5-0.2,0.9-0.4,1.4c-0.1,0.3-0.4,0.8-0.8,1
		c-0.5,0.3-1.2,0.4-1.7,0.5c-0.9,0.2-1.8,0.3-2.7,0.4c-3.5,0.3-7.1,0.4-10.6,0.4c-17.7,0-35.5-0.9-53.1-2.3
		c-1.8-0.2-3.5-0.3-5.3-0.6c-0.2,0-0.4-0.1-0.7-0.1c-0.1,0-0.3-0.1-0.4-0.1c0-0.1-0.1,0.1-0.2-0.4c0.1-0.4,0.2-0.3,0.3-0.3
		c0.5-0.2,1.1-0.1,1.6-0.2c0.9,0,1.8,0,2.7,0.1c7.2,0.8,13.3,5.6,18,10.9c2.7,3,5,6.2,7.2,9.6c0.1,0.1,0.1,0.2,0.2,0.2
		c0.1,0.1,0.1,0.1,0.2,0.1c1,0.5,2,0.7,3.1,1c1.7,0.4,3.5,0.7,5.2,0.8c1.1,0,4.5,0.2,3.3-1.8c-0.4-0.7-1.1-1.4-1.7-1.9
		c-0.6-0.6-1.4-1.1-2.1-1.6c-1.4-1.1-3-1.8-4.7-2.3s-3.4-0.8-5.2-1c-7-0.8-14.1-0.4-21.2,0.1C29.4,150.7,15.4,153.2,1.6,156.2
		L1.6,156.2z"/>
	<path class="st24" d="M39,132.1c3.9-15.4,63.1-119.4,68-128c5.7-10,4.9,17.5,4.9,17.5l1.2,100.6C91.4,139.3,39,132.1,39,132.1z"/>
	<g>
		<g>
			<path class="st25" d="M184.2,144c-10.3-18.8-23.6-35.9-39.2-50.6c-5.2-4.9-10.7-9.6-16.5-14c9.1,5.9,17.7,12.6,25.7,19.8
				c13.5,12.2,25.4,26.2,35.3,41.5L184.2,144L184.2,144z"/>
		</g>
		<line class="st24" x1="128.6" y1="185.8" x2="128.6" y2="79.4"/>
		<g>
			<rect x="125" y="197.7" class="st26" width="7.1" height="26.5"/>
			<ellipse class="st26" cx="128.6" cy="194.7" rx="3.5" ry="8.8"/>
		</g>
	</g>
</g>
</svg>
