<?xml version="1.0" encoding="utf-8"?>
<!-- Generator: Adobe Illustrator 27.6.0, SVG Export Plug-In . SVG Version: 6.00 Build 0)  -->
<svg version="1.1" id="Layer_2_00000125565885540853706470000001495074002687753377_"
	 xmlns="http://www.w3.org/2000/svg" xmlns:xlink="http://www.w3.org/1999/xlink" x="0px" y="0px" viewBox="0 0 2000 2000"
	 style="enable-background:new 0 0 2000 2000;" xml:space="preserve">
<style type="text/css">
	.st0{fill:#B4C7E3;}
	.st1{display:none;opacity:0.1;}
	.st2{display:inline;}
	.st3{clip-path:url(#SVGID_00000008136600675785166180000004219828422751351475_);}
	.st4{clip-path:url(#SVGID_00000129190584504815673360000001830062505945634996_);fill:#0060A0;}
	.st5{clip-path:url(#SVGID_00000047778110894656983320000001592283233538772903_);fill:#ED1C24;}
	
		.st6{clip-path:url(#SVGID_00000038390158057421248490000016230656274285850281_);fill:none;stroke:#B4C7E3;stroke-width:12.0346;stroke-miterlimit:10;}
	
		.st7{clip-path:url(#SVGID_00000083769452517505082580000014144748507479580324_);fill:none;stroke:#B4C7E3;stroke-width:12.0346;stroke-miterlimit:10;}
	
		.st8{clip-path:url(#SVGID_00000084510097639785895360000018182641675367052691_);fill:none;stroke:#B4C7E3;stroke-width:12.0346;stroke-miterlimit:10;}
	
		.st9{clip-path:url(#SVGID_00000097460707825217377070000014165717867356616091_);fill:none;stroke:#B4C7E3;stroke-width:12.0346;stroke-miterlimit:10;}
	
		.st10{clip-path:url(#SVGID_00000036961011858546503910000010820439762459703444_);fill:none;stroke:#B4C7E3;stroke-width:12.0346;stroke-miterlimit:10;}
	
		.st11{clip-path:url(#SVGID_00000003793553041347260540000002090232858164217757_);fill:none;stroke:#B4C7E3;stroke-width:12.0346;stroke-miterlimit:10;}
	
		.st12{clip-path:url(#SVGID_00000125570051329527635040000000284022756831653791_);fill:none;stroke:#B4C7E3;stroke-width:12.0346;stroke-miterlimit:10;}
	
		.st13{clip-path:url(#SVGID_00000151534619322267347290000006038864178597235119_);fill:none;stroke:#B4C7E3;stroke-width:12.0346;stroke-miterlimit:10;}
	
		.st14{clip-path:url(#SVGID_00000004525133288527215080000014055520076120977583_);fill:none;stroke:#B4C7E3;stroke-width:12.0346;stroke-miterlimit:10;}
	.st15{clip-path:url(#SVGID_00000162348334179844646400000007446741745766978749_);fill:#0060A0;}
	.st16{clip-path:url(#SVGID_00000056423669465129446190000004233565532742900099_);fill:#0060A0;}
	.st17{clip-path:url(#SVGID_00000168097466896547247250000015689516653989542285_);fill:#0060A0;}
	.st18{clip-path:url(#SVGID_00000127743875812827544910000007368695314919928995_);fill:#0060A0;}
	.st19{clip-path:url(#SVGID_00000134948697372311366620000017561903627415923622_);fill:#0060A0;}
	.st20{clip-path:url(#SVGID_00000009575577320993181680000007503779843592542871_);fill:#0060A0;}
	.st21{clip-path:url(#SVGID_00000096780875630909581260000009401078087220520088_);fill:#0060A0;}
	.st22{clip-path:url(#SVGID_00000078011054428804014520000015221634762794581904_);fill:#0060A0;}
	.st23{clip-path:url(#SVGID_00000011724196504567561260000004476328899037432757_);fill:#0060A0;}
	.st24{fill:#124B8D;stroke:#124B8D;stroke-width:14.1732;stroke-miterlimit:10;}
	.st25{fill:none;stroke:#124B8D;stroke-width:19.8425;stroke-miterlimit:10;}
	.st26{fill:#EC2028;}
	.st27{fill:none;stroke:#124B8D;stroke-width:11.3386;stroke-miterlimit:10;}
	.st28{fill:#124B8D;}
</style>
<rect x="5.9" y="-2.7" class="st0" width="1990.2" height="2005.4"/>
<g>
	<g id="S4O_blau_00000178884176216958184220000008677035727893750922_" class="st1">
		<g class="st2">
			<g>
				<defs>
					<rect id="SVGID_1_" x="378" y="1120.5" width="1287.8" height="356.5"/>
				</defs>
				<clipPath id="SVGID_00000043421952276181611500000015668347761986930822_">
					<use xlink:href="#SVGID_1_"  style="overflow:visible;"/>
				</clipPath>
				<g style="clip-path:url(#SVGID_00000043421952276181611500000015668347761986930822_);">
					<g>
						<defs>
							<rect id="SVGID_00000039095044251435777340000003726099725894147764_" x="378" y="1120.5" width="1287.8" height="356.5"/>
						</defs>
						<clipPath id="SVGID_00000022520534591946158090000012486164355451688603_">
							<use xlink:href="#SVGID_00000039095044251435777340000003726099725894147764_"  style="overflow:visible;"/>
						</clipPath>
						<path style="clip-path:url(#SVGID_00000022520534591946158090000012486164355451688603_);fill:#0060A0;" d="M559.9,1176.1
							c0,0-82.2,74.4-88.6,169.3c-6.5,94.9,11.5,104.3,11.5,104.3s36.5-40.6,99.7-19.1s118.6,46.4,118.6,46.4S618.5,1370.3,589,1293
							C559.5,1215.6,559.9,1176.1,559.9,1176.1"/>
					</g>
					<g>
						<defs>
							<rect id="SVGID_00000018934400536632873360000015274178642125247632_" x="378" y="1120.5" width="1287.8" height="356.5"/>
						</defs>
						<clipPath id="SVGID_00000106851686471611160780000006389911643339654296_">
							<use xlink:href="#SVGID_00000018934400536632873360000015274178642125247632_"  style="overflow:visible;"/>
						</clipPath>
						<path style="clip-path:url(#SVGID_00000106851686471611160780000006389911643339654296_);fill:#ED1C24;" d="M861.4,1469.3
							l15.6-80H728.8l11.3-61.2l157.8-207.7h114.9L975.2,1320h38.1l-12.9,69.2h-38.1l-15,80L861.4,1469.3L861.4,1469.3z
							 M889.8,1320.1l12.9-57.9c5.9-24.2,12.9-49.9,18.3-73.5h-2.1c-15.6,24.7-31.1,48.3-48.9,73.5l-40.3,56.9l-0.5,1.1
							L889.8,1320.1L889.8,1320.1z"/>
					</g>
					<g>
						<defs>
							<rect id="SVGID_00000030484630173837238490000010284358836689761167_" x="378" y="1120.5" width="1287.8" height="356.5"/>
						</defs>
						<clipPath id="SVGID_00000142153314712944003560000014443063327030585752_">
							<use xlink:href="#SVGID_00000030484630173837238490000010284358836689761167_"  style="overflow:visible;"/>
						</clipPath>
						
							<path style="clip-path:url(#SVGID_00000142153314712944003560000014443063327030585752_);fill:none;stroke:#B4C7E3;stroke-width:12.0346;stroke-miterlimit:10;" d="
							M395,1339.8c7.9,4.6,19.3,8.2,31.7,8.2c9,0,17.2-3.4,17.2-11.1c0-6.3-5.7-9.9-16.8-15.6c-12.4-6.7-27.1-16.6-27.1-34.6
							c0-27.3,24.1-43.6,53.8-43.6c17,0,26.1,3.2,32.3,6.3l-10.1,27.1c-4.2-2.1-13.8-5.7-24.6-5.4c-11.5,0-17,4.6-17,10.1
							c0,6.2,8.6,10.3,18.4,15.9c15.5,8,26,18.5,26,33.8c0,31.4-26.6,45-55,45c-20.1-0.3-33.1-5.1-39.3-9.4L395,1339.8z"/>
					</g>
					<g>
						<defs>
							<rect id="SVGID_00000065052111076265744140000001893680518239115666_" x="378" y="1120.5" width="1287.8" height="356.5"/>
						</defs>
						<clipPath id="SVGID_00000002371549645743724680000007334793651228984193_">
							<use xlink:href="#SVGID_00000065052111076265744140000001893680518239115666_"  style="overflow:visible;"/>
						</clipPath>
						
							<polygon style="clip-path:url(#SVGID_00000002371549645743724680000007334793651228984193_);fill:none;stroke:#B4C7E3;stroke-width:12.0346;stroke-miterlimit:10;" points="
							682.3,1245.3 657.9,1374 625.4,1374 649.6,1245.3 						"/>
					</g>
					<g>
						<defs>
							<rect id="SVGID_00000103950904416845604750000008279544385568395411_" x="378" y="1120.5" width="1287.8" height="356.5"/>
						</defs>
						<clipPath id="SVGID_00000179611897587190785960000009170564812486073734_">
							<use xlink:href="#SVGID_00000103950904416845604750000008279544385568395411_"  style="overflow:visible;"/>
						</clipPath>
						
							<polygon style="clip-path:url(#SVGID_00000179611897587190785960000009170564812486073734_);fill:none;stroke:#B4C7E3;stroke-width:12.0346;stroke-miterlimit:10;" points="
							706.2,1245.3 738.9,1245.3 719.9,1345.5 768.3,1345.5 762.9,1374 682,1374 						"/>
					</g>
					<g>
						<defs>
							<rect id="SVGID_00000027564269930643958960000011570206219299423134_" x="378" y="1120.5" width="1287.8" height="356.5"/>
						</defs>
						<clipPath id="SVGID_00000134212114491867964800000017393969187541568928_">
							<use xlink:href="#SVGID_00000027564269930643958960000011570206219299423134_"  style="overflow:visible;"/>
						</clipPath>
						
							<path style="clip-path:url(#SVGID_00000134212114491867964800000017393969187541568928_);fill:none;stroke:#B4C7E3;stroke-width:12.0346;stroke-miterlimit:10;" d="
							M1070,1297.2c0,23.8-8.2,46.1-22.9,60.2c-12.2,11.9-29.1,18.7-48.9,18.7c-33.4,0-53.8-23.1-53.8-54.3c0-23.5,8.6-45.8,23.5-60
							c12.4-11.9,29.2-18.7,48.7-18.7C1050.1,1243.1,1070,1265.2,1070,1297.2z M993.8,1278.5c-9.4,9.4-14.7,28.1-14.7,42.6
							c0,16.8,7.9,27.9,23.8,27.9c6.7,0,13-3.1,17.9-7.9c9.1-9.4,14.4-29.4,14.4-43c0-15.3-5.7-27.9-22.6-27.9
							C1005.2,1270.3,998.9,1273.4,993.8,1278.5z"/>
					</g>
					<g>
						<defs>
							<rect id="SVGID_00000173882682296674891150000006998685932813423754_" x="378" y="1120.5" width="1287.8" height="356.5"/>
						</defs>
						<clipPath id="SVGID_00000161594443505810782020000004902794672365730957_">
							<use xlink:href="#SVGID_00000173882682296674891150000006998685932813423754_"  style="overflow:visible;"/>
						</clipPath>
						
							<path style="clip-path:url(#SVGID_00000161594443505810782020000004902794672365730957_);fill:none;stroke:#B4C7E3;stroke-width:12.0346;stroke-miterlimit:10;" d="
							M1139,1374l-7.1-23.3c-2.1-7.6-3.8-13.3-6.3-22h-0.3c-4.4,8-7.3,14.1-12.2,23.3l-11.9,22H1062l47.3-65.9l-22-62.8h34.4l5.9,21
							c2.1,8,3.6,13.8,5.7,22.1h0.6c5.1-9.7,8-15.6,11.9-22.7l10.9-20.4h38.8l-45.8,63.2l24.1,65.5L1139,1374L1139,1374z"/>
					</g>
					<g>
						<defs>
							<rect id="SVGID_00000100366402177295439330000004947463137386064054_" x="378" y="1120.5" width="1287.8" height="356.5"/>
						</defs>
						<clipPath id="SVGID_00000039817376291486807190000012950034530503134397_">
							<use xlink:href="#SVGID_00000100366402177295439330000004947463137386064054_"  style="overflow:visible;"/>
						</clipPath>
						
							<path style="clip-path:url(#SVGID_00000039817376291486807190000012950034530503134397_);fill:none;stroke:#B4C7E3;stroke-width:12.0346;stroke-miterlimit:10;" d="
							M1215.4,1374l9.9-52l-25.4-76.7h35l6.3,28.8c2.1,10.5,3.4,16.8,4.8,24.1h0.3c4-7.6,7.9-14.7,12.8-24.1l15.8-28.8h39l-56,75.8
							l-9.9,52.9L1215.4,1374L1215.4,1374z"/>
					</g>
					<g>
						<defs>
							<rect id="SVGID_00000173883838634353692830000008257062254748514232_" x="378" y="1120.5" width="1287.8" height="356.5"/>
						</defs>
						<clipPath id="SVGID_00000070839631292646161160000005332146665437291698_">
							<use xlink:href="#SVGID_00000173883838634353692830000008257062254748514232_"  style="overflow:visible;"/>
						</clipPath>
						
							<path style="clip-path:url(#SVGID_00000070839631292646161160000005332146665437291698_);fill:none;stroke:#B4C7E3;stroke-width:12.0346;stroke-miterlimit:10;" d="
							M1404.8,1367.9c-10.9,3.4-27.3,7.4-43.9,7.4c-17.3,0-32.3-4.4-43.3-13.3c-10.5-8.4-17.6-22.7-17.6-40.5
							c0-25.4,10.3-45.5,26.7-59.1c14.9-12,35.6-18.5,58.6-18.5c17,0,30.2,3.1,35.6,5.7l-9.3,27.3c-5.6-2.3-16.1-5.1-27.5-5.1
							c-11.6,0-22,2.9-29.6,8c-10.9,7.9-18.5,21.6-18.5,39.3c0,20.3,13,28.5,29.6,28.5c5.9,0,9.1-0.6,11.6-1.5l4.4-22.1h-17.3
							l5.1-26h48.9L1404.8,1367.9z"/>
					</g>
					<g>
						<defs>
							<rect id="SVGID_00000020387158141175302450000008843808353023557541_" x="378" y="1120.5" width="1287.8" height="356.5"/>
						</defs>
						<clipPath id="SVGID_00000045592312794740087150000000155629533773272220_">
							<use xlink:href="#SVGID_00000020387158141175302450000008843808353023557541_"  style="overflow:visible;"/>
						</clipPath>
						
							<polygon style="clip-path:url(#SVGID_00000045592312794740087150000000155629533773272220_);fill:none;stroke:#B4C7E3;stroke-width:12.0346;stroke-miterlimit:10;" points="
							1513.9,1322.1 1468.6,1322.1 1464.1,1346.3 1514.8,1346.3 1509.7,1374 1426.2,1374 1450.5,1245.3 1531.2,1245.3 1525.9,1273 
							1478,1273 1473.8,1294.6 1519.3,1294.6 						"/>
					</g>
					<g>
						<defs>
							<rect id="SVGID_00000182489356439572504660000007950972393057911217_" x="378" y="1120.5" width="1287.8" height="356.5"/>
						</defs>
						<clipPath id="SVGID_00000012447456298803010310000013502206224531884185_">
							<use xlink:href="#SVGID_00000182489356439572504660000007950972393057911217_"  style="overflow:visible;"/>
						</clipPath>
						
							<path style="clip-path:url(#SVGID_00000012447456298803010310000013502206224531884185_);fill:none;stroke:#B4C7E3;stroke-width:12.0346;stroke-miterlimit:10;" d="
							M1529,1374l24.3-128.7h38.8l11.6,38.8c5,17.2,8.6,31.9,11.9,47.5h0.6c0.6-13.9,2.5-29.6,6.2-48.7l7.1-37.6h30.3l-24.4,128.7
							h-34l-13-42c-5.4-18.1-9.1-30.9-12.8-48.3h-0.8c-1.4,12.8-4.8,33.4-8.8,54.8l-6.7,35.6H1529z"/>
					</g>
					<g>
						<defs>
							<rect id="SVGID_00000088131764881012499240000007670953650326333065_" x="378" y="1120.5" width="1287.8" height="356.5"/>
						</defs>
						<clipPath id="SVGID_00000079462183074355933290000008758147279438202503_">
							<use xlink:href="#SVGID_00000088131764881012499240000007670953650326333065_"  style="overflow:visible;"/>
						</clipPath>
						<path style="clip-path:url(#SVGID_00000079462183074355933290000008758147279438202503_);fill:#0060A0;" d="M395,1339.8
							c7.9,4.6,19.3,8.2,31.7,8.2c9,0,17.2-3.4,17.2-11.1c0-6.3-5.7-9.9-16.8-15.6c-12.4-6.7-27.1-16.6-27.1-34.6
							c0-27.3,24.1-43.6,53.8-43.6c17,0,26.1,3.2,32.3,6.3l-10.1,27.1c-4.2-2.1-13.8-5.7-24.6-5.4c-11.5,0-17,4.6-17,10.1
							c0,6.2,8.6,10.3,18.4,15.9c15.5,8,26,18.5,26,33.8c0,31.4-26.6,45-55,45c-20.1-0.3-33.1-5.1-39.3-9.4L395,1339.8z"/>
					</g>
					<g>
						<defs>
							<rect id="SVGID_00000106112036240603805650000006731358586350912169_" x="378" y="1120.5" width="1287.8" height="356.5"/>
						</defs>
						<clipPath id="SVGID_00000044169247499282734530000012907867212083963568_">
							<use xlink:href="#SVGID_00000106112036240603805650000006731358586350912169_"  style="overflow:visible;"/>
						</clipPath>
						<polygon style="clip-path:url(#SVGID_00000044169247499282734530000012907867212083963568_);fill:#0060A0;" points="
							682.3,1245.3 657.9,1374 625.4,1374 649.6,1245.3 						"/>
					</g>
					<g>
						<defs>
							<rect id="SVGID_00000165206939004669121310000004500243837319553162_" x="378" y="1120.5" width="1287.8" height="356.5"/>
						</defs>
						<clipPath id="SVGID_00000048489677811544357100000007889464631585331625_">
							<use xlink:href="#SVGID_00000165206939004669121310000004500243837319553162_"  style="overflow:visible;"/>
						</clipPath>
						<polygon style="clip-path:url(#SVGID_00000048489677811544357100000007889464631585331625_);fill:#0060A0;" points="
							706.2,1245.3 738.9,1245.3 719.9,1345.5 768.3,1345.5 762.9,1374 682,1374 						"/>
					</g>
					<g>
						<defs>
							<rect id="SVGID_00000004534443185756684200000011606284335050795698_" x="378" y="1120.5" width="1287.8" height="356.5"/>
						</defs>
						<clipPath id="SVGID_00000040563645597984314270000003965476681055542150_">
							<use xlink:href="#SVGID_00000004534443185756684200000011606284335050795698_"  style="overflow:visible;"/>
						</clipPath>
						<path style="clip-path:url(#SVGID_00000040563645597984314270000003965476681055542150_);fill:#0060A0;" d="M1070,1297.2
							c0,23.8-8.2,46.1-22.9,60.2c-12.2,11.9-29.1,18.7-48.9,18.7c-33.4,0-53.8-23.1-53.8-54.3c0-23.5,8.6-45.8,23.5-60
							c12.4-11.9,29.2-18.7,48.7-18.7C1050.1,1243.1,1070,1265.2,1070,1297.2 M993.8,1278.5c-9.4,9.4-14.7,28.1-14.7,42.6
							c0,16.8,7.9,27.9,23.8,27.9c6.7,0,13-3.1,17.9-7.9c9.1-9.4,14.4-29.4,14.4-43c0-15.3-5.7-27.9-22.6-27.9
							C1005.2,1270.3,998.9,1273.4,993.8,1278.5"/>
					</g>
					<g>
						<defs>
							<rect id="SVGID_00000053514719490888496040000015301780560459674516_" x="378" y="1120.5" width="1287.8" height="356.5"/>
						</defs>
						<clipPath id="SVGID_00000039836461232329696610000015987741812711598498_">
							<use xlink:href="#SVGID_00000053514719490888496040000015301780560459674516_"  style="overflow:visible;"/>
						</clipPath>
						<path style="clip-path:url(#SVGID_00000039836461232329696610000015987741812711598498_);fill:#0060A0;" d="M1139,1374
							l-7.1-23.3c-2.1-7.6-3.8-13.3-6.3-22h-0.3c-4.4,8-7.3,14.1-12.2,23.3l-11.9,22H1062l47.3-65.9l-22-62.8h34.4l5.9,21
							c2.1,8,3.6,13.8,5.7,22.1h0.6c5.1-9.7,8-15.6,11.9-22.7l10.9-20.4h38.8l-45.8,63.2l24.1,65.5L1139,1374L1139,1374z"/>
					</g>
					<g>
						<defs>
							<rect id="SVGID_00000031910225434584691110000003880457681928383153_" x="378" y="1120.5" width="1287.8" height="356.5"/>
						</defs>
						<clipPath id="SVGID_00000147202022699785733550000008913348719327829413_">
							<use xlink:href="#SVGID_00000031910225434584691110000003880457681928383153_"  style="overflow:visible;"/>
						</clipPath>
						<path style="clip-path:url(#SVGID_00000147202022699785733550000008913348719327829413_);fill:#0060A0;" d="M1215.4,1374
							l9.9-52l-25.4-76.7h35l6.3,28.8c2.1,10.5,3.4,16.8,4.8,24.1h0.3c4-7.6,7.9-14.7,12.8-24.1l15.8-28.8h39l-56,75.8l-9.9,52.9
							L1215.4,1374L1215.4,1374z"/>
					</g>
					<g>
						<defs>
							<rect id="SVGID_00000089539331377007100360000000185912907154660997_" x="378" y="1120.5" width="1287.8" height="356.5"/>
						</defs>
						<clipPath id="SVGID_00000151532586071377077400000013643017643669249436_">
							<use xlink:href="#SVGID_00000089539331377007100360000000185912907154660997_"  style="overflow:visible;"/>
						</clipPath>
						<path style="clip-path:url(#SVGID_00000151532586071377077400000013643017643669249436_);fill:#0060A0;" d="M1404.8,1367.9
							c-10.9,3.4-27.3,7.4-43.9,7.4c-17.3,0-32.3-4.4-43.3-13.3c-10.5-8.4-17.6-22.7-17.6-40.5c0-25.4,10.3-45.5,26.7-59.1
							c14.9-12,35.6-18.5,58.6-18.5c17,0,30.2,3.1,35.6,5.7l-9.3,27.3c-5.6-2.3-16.1-5.1-27.5-5.1c-11.6,0-22,2.9-29.6,8
							c-10.9,7.9-18.5,21.6-18.5,39.3c0,20.3,13,28.5,29.6,28.5c5.9,0,9.1-0.6,11.6-1.5l4.4-22.1h-17.3l5.1-26h48.9L1404.8,1367.9z"
							/>
					</g>
					<g>
						<defs>
							<rect id="SVGID_00000031914762499869674800000003338331483585521833_" x="378" y="1120.5" width="1287.8" height="356.5"/>
						</defs>
						<clipPath id="SVGID_00000111169601403335832380000001179809873222856863_">
							<use xlink:href="#SVGID_00000031914762499869674800000003338331483585521833_"  style="overflow:visible;"/>
						</clipPath>
						<polygon style="clip-path:url(#SVGID_00000111169601403335832380000001179809873222856863_);fill:#0060A0;" points="
							1513.9,1322.1 1468.6,1322.1 1464.1,1346.3 1514.8,1346.3 1509.7,1374 1426.2,1374 1450.5,1245.3 1531.2,1245.3 1525.9,1273 
							1478,1273 1473.8,1294.6 1519.3,1294.6 						"/>
					</g>
					<g>
						<defs>
							<rect id="SVGID_00000114062919817716190420000004824594931886411402_" x="378" y="1120.5" width="1287.8" height="356.5"/>
						</defs>
						<clipPath id="SVGID_00000095314059600207572010000007781421731473819837_">
							<use xlink:href="#SVGID_00000114062919817716190420000004824594931886411402_"  style="overflow:visible;"/>
						</clipPath>
						<path style="clip-path:url(#SVGID_00000095314059600207572010000007781421731473819837_);fill:#0060A0;" d="M1529,1374
							l24.3-128.7h38.8l11.6,38.8c5,17.2,8.6,31.9,11.9,47.5h0.6c0.6-13.9,2.5-29.6,6.2-48.7l7.1-37.6h30.3l-24.4,128.7h-34l-13-42
							c-5.4-18.1-9.1-30.9-12.8-48.3h-0.8c-1.4,12.8-4.8,33.4-8.8,54.8l-6.7,35.6H1529z"/>
					</g>
				</g>
			</g>
		</g>
	</g>
	<path class="st24" d="M423.1,1199.5c68.3-15.5,137.4-28,207.1-34.8c39.2-3.3,79-6,118.1,0.9c13,2.5,26.1,6.4,36.7,14.6
		c3.6,2.6,7.1,5.3,10.4,8.2c3.3,2.9,6.7,6.1,9,9.9c5.5,9.3-4.3,12-11.7,12.2c-6.7,0.3-13.2-0.4-19.8-1.4c-8.7-1.4-17.3-3.2-25.7-6.1
		c-1.6-0.7-3.4-1.2-4.8-2.4c-1.9-2.1-3.2-4.6-4.9-6.9c-27.9-41-67-87.5-119.1-93.7c-4.3-0.4-8.5-0.5-12.9-0.3
		c-2.3,0-4.5,0.3-6.8,0.6c-0.1-0.3,0.2,0.6,0.8-1.3c-0.5-1.9-0.7-1.1-0.7-1.3c1.4,0.4,2.8,0.7,4.3,0.9c8.6,1.2,17.3,2,26,2.6
		c87.3,6.5,174.8,10.4,262.2,10.4c17.4-0.2,35-0.5,52.3-2.1c6.3-0.7,12.8-1.3,18.7-3.3c0.7-0.3,1.4-0.6,2-1.1c1.6-2.1,2.2-5.3,3-8
		c3.1-14.9,3.8-30.2,4.8-45.3c1.4-26.1,1.9-52.4,2.1-78.6c0.9-175-5.2-350.1-11.6-525l-0.4-10.7l5.6,9.1L1153.3,745l185.5,298.7
		l2.6,4.1h-4.9l-345.6,1.7l2.3-2.1c-2,15-4.2,30.4-3.8,45.6c0,1.6,0.3,3.2,0.8,4.8c0.1,0.2,0.1,0.2,0,0c-0.1,0-0.1-0.1-0.2-0.1
		c-0.1,0-0.3-0.1-0.1,0l0.5,0.2c18.5,7.3,47.9,3.3,67.5,0.3c5-0.9,10.1-1.7,15-2.8s9.7-2.6,14.7-4.1c39.4-13.3,81.9-15,122.9-10
		c20.5,2.8,41.7,8.7,57.5,22.7c7.9,6.5,13.9,15.3,22.6,20.3c8.7,5,19.3,4.5,29.2,4.6c38.5-0.9,76.7-7.8,115.4-9c3.9,0,8-0.1,12,1
		c0.8,0.3,1.5,0.6,2.2,1.2c0.1,0.1,0.2,0.2,0.3,0.3l0.2,0.3c0.1,0.2,0.3,0.3,0.3,0.5l0.3,0.5c1.3,2.6,2.3,5.3,2.9,8
		c1.2,5.1,2,10.3,2.2,15.5c0.6,10.4-0.3,21-3.8,30.9c-5.8,16.6-19.3,25.4-36.8,24.5c-10.4-0.4-20.4-3.6-30.3-6.6
		c-5-1.8-14.4-4.6-17.5-9.1c-2.6-5,4.8-7.1,8.2-8.1c5-1.2,10.2-2.1,15.4-2.5c16.7-1.5,33.6-1.5,50.2-0.1c13.9,2.4,27.5,6.8,41.4,9.6
		c30.1,6.6,61,10.1,91.8,7.7c5.1-0.4,10.3-0.9,15.3-1.7c15-2.3,61.4-10.3,76.1-12.7c-23,3.8-69.3,13.2-91.4,15.2
		c-20.5,1.8-41.3,0.9-61.7-1.8c-20.4-2.7-40.5-7.3-60.5-12.3c-3.8-0.9-7.5-1.8-11.3-2.2c-16.6-1.3-33.3-1.2-49.9,0.3
		c-6.3,0.8-12.6,1.5-18.5,3.7c-1.5,0.7-4.6,1.9-3.4,3.9c2.1,2.7,6.1,4.2,9.2,5.6c7.1,2.8,14.5,4.8,22,6.8c39,10,54.9-14.1,52.9-50.8
		c-0.3-6.3-1.5-12.6-3.2-18.6c-0.4-1.5-1-2.8-1.8-4.1c-0.1-0.1-0.2-0.2-0.3-0.3l-0.1-0.2c-0.3-0.3-0.8-0.5-1.3-0.6
		c-6.1-1.5-12.5-0.8-18.7-0.5c-35.9,2.3-71.5,8.2-107.7,9.2c-7.8,0.1-15.8,0.3-23.5-1.8c-13.2-3.4-20.9-15.6-30.8-23.8
		c-7.7-6.6-16.6-11.5-26.1-14.9c-19.2-6.8-39.9-8.5-60.2-9.1c-30.8-0.9-61.4,2.5-90.6,12.5c-4.9,1.5-9.8,3.1-15,4.3
		c-5.1,1.2-10.2,2.1-15.3,2.9c-20.6,3.2-50.8,7.4-70.3-0.4c-3.2-1.4-3.2-5.8-3.5-8.7c-0.4-15.7,1.8-31.1,3.8-46.6l0.3-2.1h2.1
		l345.6-2.4l-2.3,4.2l-185.8-298.5L963,449.5l5.2-1.6c6.6,192.5,14.2,385.2,9.7,577.9c-0.7,17.5-1.5,35.1-3.2,52.6
		c-0.6,6.7-1.6,13.2-3,19.7c-0.5,2.3-1.2,4.5-2.1,6.7c-0.7,1.7-2.1,4-4,4.9c-2.6,1.4-5.7,2.1-8.5,2.6c-4.4,0.9-8.9,1.4-13.2,1.8
		c-17.5,1.5-35.1,1.8-52.6,2c-87.6-0.2-175.2-4.4-262.5-11.3c-8.8-0.8-17.5-1.5-26.2-2.8c-1.1-0.2-2.2-0.3-3.3-0.6
		c-0.7-0.1-1.3-0.3-2-0.6c-0.2-0.3-0.7,0.3-1.2-1.8c0.7-2.1,1.2-1.5,1.4-1.7c2.6-0.8,5.2-0.6,7.9-0.8c4.4-0.2,8.9,0,13.3,0.4
		c35.8,4,65.5,27.9,88.9,53.7c13.3,14.7,24.7,30.8,35.6,47.3c0.3,0.4,0.5,0.8,0.9,1.1c0.3,0.3,0.7,0.5,1.1,0.7
		c4.8,2.3,10.1,3.6,15.3,4.9c8.5,2.1,17.1,3.3,25.7,3.9c5.6,0.2,22.4,0.9,16.4-8.9c-2.1-3.6-5.4-6.7-8.5-9.5
		c-3.2-2.9-6.7-5.6-10.3-8.1c-6.8-5.3-14.9-8.9-23.2-11.4c-8.4-2.4-16.9-4.1-25.6-5.1c-34.8-4.2-69.9-2.2-104.7,0.7
		C560.6,1172.4,491.4,1184.5,423.1,1199.5L423.1,1199.5z"/>
	<path class="st25" d="M608.2,1080.5c19.4-76.1,311.7-589.8,336.1-632.6c28.1-49.3,24.4,86.6,24.4,86.6l6,497.1
		C866.8,1115.9,608.2,1080.5,608.2,1080.5z"/>
	<g>
		<g>
			<path class="st26" d="M1325.4,1139.4c-50.8-92.8-116.5-177.6-193.5-250.1c-25.8-24.4-53-47.4-81.3-69
				c44.8,29.3,87.4,62.1,127.2,98c66.8,60.3,125.6,129.3,174.6,205L1325.4,1139.4L1325.4,1139.4z"/>
		</g>
		<line class="st27" x1="1050.7" y1="1346" x2="1050.7" y2="820.2"/>
		<g>
			<rect x="1033.2" y="1404.8" class="st28" width="35" height="131.1"/>
			<ellipse class="st28" cx="1050.7" cy="1389.6" rx="17.4" ry="43.7"/>
		</g>
	</g>
</g>
</svg>
