<?xml version="1.0" encoding="utf-8"?>
<!-- Generator: Adobe Illustrator 27.6.0, SVG Export Plug-In . SVG Version: 6.00 Build 0)  -->
<svg version="1.1" id="Layer_2_00000125565885540853706470000001495074002687753377_"
	 xmlns="http://www.w3.org/2000/svg" xmlns:xlink="http://www.w3.org/1999/xlink" x="0px" y="0px" viewBox="0 0 250 225.9"
	 style="enable-background:new 0 0 250 225.9;" xml:space="preserve">
<style type="text/css">
	.st0{display:none;opacity:0.1;}
	.st1{display:inline;}
	.st2{clip-path:url(#SVGID_00000034782659313142589410000012624113132727164055_);}
	.st3{clip-path:url(#SVGID_00000019669317511203232740000015997037112324348053_);fill:#0060A0;}
	.st4{clip-path:url(#SVGID_00000170244826184903206320000002160747936360305032_);fill:#ED1C24;}
	
		.st5{clip-path:url(#SVGID_00000168077901335503145720000002748293040349406902_);fill:none;stroke:#B4C7E3;stroke-width:0.2835;stroke-miterlimit:10;}
	
		.st6{clip-path:url(#SVGID_00000148663590562938293920000010860760520861909132_);fill:none;stroke:#B4C7E3;stroke-width:0.2835;stroke-miterlimit:10;}
	
		.st7{clip-path:url(#SVGID_00000000938356526462118890000000547053632295551893_);fill:none;stroke:#B4C7E3;stroke-width:0.2835;stroke-miterlimit:10;}
	
		.st8{clip-path:url(#SVGID_00000072981584645713948150000003159982647865983380_);fill:none;stroke:#B4C7E3;stroke-width:0.2835;stroke-miterlimit:10;}
	
		.st9{clip-path:url(#SVGID_00000033339745908168197150000000323388916400150414_);fill:none;stroke:#B4C7E3;stroke-width:0.2835;stroke-miterlimit:10;}
	
		.st10{clip-path:url(#SVGID_00000165920602081145713950000003518396743356916154_);fill:none;stroke:#B4C7E3;stroke-width:0.2835;stroke-miterlimit:10;}
	
		.st11{clip-path:url(#SVGID_00000178200304516163960050000003500504807688828336_);fill:none;stroke:#B4C7E3;stroke-width:0.2835;stroke-miterlimit:10;}
	
		.st12{clip-path:url(#SVGID_00000137100346634571166050000003842877688486683279_);fill:none;stroke:#B4C7E3;stroke-width:0.2835;stroke-miterlimit:10;}
	
		.st13{clip-path:url(#SVGID_00000183224650878377239440000018408172340636350141_);fill:none;stroke:#B4C7E3;stroke-width:0.2835;stroke-miterlimit:10;}
	.st14{clip-path:url(#SVGID_00000170995387215163532200000011462318151564793515_);fill:#0060A0;}
	.st15{clip-path:url(#SVGID_00000009575366224268074910000011349189066569232062_);fill:#0060A0;}
	.st16{clip-path:url(#SVGID_00000103264362351212064240000006043999712271499195_);fill:#0060A0;}
	.st17{clip-path:url(#SVGID_00000124853900463693572350000005234148730265937084_);fill:#0060A0;}
	.st18{clip-path:url(#SVGID_00000016762146828229446020000005298352273438578356_);fill:#0060A0;}
	.st19{clip-path:url(#SVGID_00000003069841373616167890000010713001516888228004_);fill:#0060A0;}
	.st20{clip-path:url(#SVGID_00000174588238476042714820000001875851915214422950_);fill:#0060A0;}
	.st21{clip-path:url(#SVGID_00000069384632620578402120000004878569777078002312_);fill:#0060A0;}
	.st22{clip-path:url(#SVGID_00000134251746251317848450000012182880957539195011_);fill:#0060A0;}
	.st23{fill:#124B8D;stroke:#124B8D;stroke-width:0.2835;stroke-miterlimit:10;}
	.st24{fill:none;stroke:#124B8D;stroke-width:0.2835;stroke-miterlimit:10;}
	.st25{fill:#EC2028;}
	.st26{fill:#124B8D;}
</style>
<g>
	<g id="S4O_blau_00000178884176216958184220000008677035727893750922_" class="st0">
		<g class="st1">
			<g>
				<g>
					<defs>
						<rect id="SVGID_1_" x="-7.6" y="140.2" width="260.6" height="72.1"/>
					</defs>
					<clipPath id="SVGID_00000070087569160809617650000008205527171577299848_">
						<use xlink:href="#SVGID_1_"  style="overflow:visible;"/>
					</clipPath>
					<g style="clip-path:url(#SVGID_00000070087569160809617650000008205527171577299848_);">
						<g>
							<g>
								<defs>
									<rect id="SVGID_00000078002742527795861190000000257431790447568273_" x="-7.6" y="140.2" width="260.6" height="72.1"/>
								</defs>
								<clipPath id="SVGID_00000038396808796399741580000008727413720202033046_">
									<use xlink:href="#SVGID_00000078002742527795861190000000257431790447568273_"  style="overflow:visible;"/>
								</clipPath>
								<path style="clip-path:url(#SVGID_00000038396808796399741580000008727413720202033046_);fill:#0060A0;" d="M29.3,151.5
									c0,0-16.6,15.1-17.9,34.3c-1.3,19.2,2.3,21.1,2.3,21.1s7.4-8.2,20.2-3.9s24,9.4,24,9.4s-16.7-21.6-22.7-37.2
									C29.2,159.4,29.3,151.5,29.3,151.5"/>
							</g>
						</g>
						<g>
							<g>
								<defs>
									<rect id="SVGID_00000158013188641567575750000005208662141752243620_" x="-7.6" y="140.2" width="260.6" height="72.1"/>
								</defs>
								<clipPath id="SVGID_00000065789654599348754280000009855748230956373151_">
									<use xlink:href="#SVGID_00000158013188641567575750000005208662141752243620_"  style="overflow:visible;"/>
								</clipPath>
								<path style="clip-path:url(#SVGID_00000065789654599348754280000009855748230956373151_);fill:#ED1C24;" d="M90.3,210.8
									l3.2-16.2h-30l2.3-12.4l31.9-42h23.3l-7.6,40.4h7.7l-2.6,14h-7.7l-3,16.2L90.3,210.8L90.3,210.8z M96,180.6l2.6-11.7
									c1.2-4.9,2.6-10.1,3.7-14.9h-0.4c-3.2,5-6.3,9.8-9.9,14.9l-8.2,11.5l-0.1,0.2L96,180.6L96,180.6z"/>
							</g>
						</g>
						<g>
							<g>
								<defs>
									<rect id="SVGID_00000180345432729966200030000003705509925315802287_" x="-7.6" y="140.2" width="260.6" height="72.1"/>
								</defs>
								<clipPath id="SVGID_00000088101950603028007010000017576502987197480889_">
									<use xlink:href="#SVGID_00000180345432729966200030000003705509925315802287_"  style="overflow:visible;"/>
								</clipPath>
								
									<path style="clip-path:url(#SVGID_00000088101950603028007010000017576502987197480889_);fill:none;stroke:#B4C7E3;stroke-width:0.2835;stroke-miterlimit:10;" d="
									M-4.1,184.6c1.6,0.9,3.9,1.7,6.4,1.7c1.8,0,3.5-0.7,3.5-2.2c0-1.3-1.2-2-3.4-3.2c-2.5-1.4-5.5-3.4-5.5-7
									c0-5.5,4.9-8.8,10.9-8.8c3.4,0,5.3,0.6,6.5,1.3l-2,5.5c-0.9-0.4-2.8-1.2-5-1.1c-2.3,0-3.4,0.9-3.4,2c0,1.3,1.7,2.1,3.7,3.2
									c3.1,1.6,5.3,3.7,5.3,6.8c0,6.4-5.4,9.1-11.1,9.1c-4.1-0.1-6.7-1-8-1.9L-4.1,184.6z"/>
							</g>
						</g>
						<g>
							<g>
								<defs>
									<rect id="SVGID_00000159445796816771701460000010236128019547596689_" x="-7.6" y="140.2" width="260.6" height="72.1"/>
								</defs>
								<clipPath id="SVGID_00000103229961641802700050000010641343732207026103_">
									<use xlink:href="#SVGID_00000159445796816771701460000010236128019547596689_"  style="overflow:visible;"/>
								</clipPath>
								
									<polygon style="clip-path:url(#SVGID_00000103229961641802700050000010641343732207026103_);fill:none;stroke:#B4C7E3;stroke-width:0.2835;stroke-miterlimit:10;" points="
									54,165.5 49.1,191.5 42.5,191.5 47.4,165.5 								"/>
							</g>
						</g>
						<g>
							<g>
								<defs>
									<rect id="SVGID_00000093858796170044470950000010061297852527540908_" x="-7.6" y="140.2" width="260.6" height="72.1"/>
								</defs>
								<clipPath id="SVGID_00000129172428308960735820000005373351733428900761_">
									<use xlink:href="#SVGID_00000093858796170044470950000010061297852527540908_"  style="overflow:visible;"/>
								</clipPath>
								
									<polygon style="clip-path:url(#SVGID_00000129172428308960735820000005373351733428900761_);fill:none;stroke:#B4C7E3;stroke-width:0.2835;stroke-miterlimit:10;" points="
									58.9,165.5 65.5,165.5 61.6,185.7 71.4,185.7 70.3,191.5 54,191.5 								"/>
							</g>
						</g>
						<g>
							<g>
								<defs>
									<rect id="SVGID_00000116205132651442734720000005096396902179102340_" x="-7.6" y="140.2" width="260.6" height="72.1"/>
								</defs>
								<clipPath id="SVGID_00000161622448388332059170000009147614539330939581_">
									<use xlink:href="#SVGID_00000116205132651442734720000005096396902179102340_"  style="overflow:visible;"/>
								</clipPath>
								
									<path style="clip-path:url(#SVGID_00000161622448388332059170000009147614539330939581_);fill:none;stroke:#B4C7E3;stroke-width:0.2835;stroke-miterlimit:10;" d="
									M132.5,176c0,4.8-1.7,9.3-4.6,12.2c-2.5,2.4-5.9,3.8-9.9,3.8c-6.8,0-10.9-4.7-10.9-11c0-4.8,1.7-9.3,4.8-12.1
									c2.5-2.4,5.9-3.8,9.9-3.8C128.5,165,132.5,169.5,132.5,176z M117.1,172.2c-1.9,1.9-3,5.7-3,8.6c0,3.4,1.6,5.6,4.8,5.6
									c1.4,0,2.6-0.6,3.6-1.6c1.8-1.9,2.9-6,2.9-8.7c0-3.1-1.2-5.6-4.6-5.6C119.4,170.5,118.1,171.1,117.1,172.2z"/>
							</g>
						</g>
						<g>
							<g>
								<defs>
									<rect id="SVGID_00000003785157503321791080000017664735439491061398_" x="-7.6" y="140.2" width="260.6" height="72.1"/>
								</defs>
								<clipPath id="SVGID_00000122678729216606205370000004918937931249034373_">
									<use xlink:href="#SVGID_00000003785157503321791080000017664735439491061398_"  style="overflow:visible;"/>
								</clipPath>
								
									<path style="clip-path:url(#SVGID_00000122678729216606205370000004918937931249034373_);fill:none;stroke:#B4C7E3;stroke-width:0.2835;stroke-miterlimit:10;" d="
									M146.5,191.5l-1.4-4.7c-0.4-1.5-0.8-2.7-1.3-4.5h-0.1c-0.9,1.6-1.5,2.9-2.5,4.7l-2.4,4.5h-7.9l9.6-13.3l-4.5-12.7h7l1.2,4.3
									c0.4,1.6,0.7,2.8,1.2,4.5h0.1c1-2,1.6-3.2,2.4-4.6l2.2-4.1h7.9l-9.3,12.8l4.9,13.3L146.5,191.5L146.5,191.5z"/>
							</g>
						</g>
						<g>
							<g>
								<defs>
									<rect id="SVGID_00000062190060804059570940000016328555685765256123_" x="-7.6" y="140.2" width="260.6" height="72.1"/>
								</defs>
								<clipPath id="SVGID_00000081611903594025336250000001098431961439109544_">
									<use xlink:href="#SVGID_00000062190060804059570940000016328555685765256123_"  style="overflow:visible;"/>
								</clipPath>
								
									<path style="clip-path:url(#SVGID_00000081611903594025336250000001098431961439109544_);fill:none;stroke:#B4C7E3;stroke-width:0.2835;stroke-miterlimit:10;" d="
									M161.9,191.5l2-10.5l-5.1-15.5h7.1l1.3,5.8c0.4,2.1,0.7,3.4,1,4.9h0.1c0.8-1.5,1.6-3,2.6-4.9l3.2-5.8h7.9l-11.3,15.3
									l-2,10.7L161.9,191.5L161.9,191.5z"/>
							</g>
						</g>
						<g>
							<g>
								<defs>
									<rect id="SVGID_00000000922573547458297050000015733715591501782450_" x="-7.6" y="140.2" width="260.6" height="72.1"/>
								</defs>
								<clipPath id="SVGID_00000160891867382972410870000004815299381558365329_">
									<use xlink:href="#SVGID_00000000922573547458297050000015733715591501782450_"  style="overflow:visible;"/>
								</clipPath>
								
									<path style="clip-path:url(#SVGID_00000160891867382972410870000004815299381558365329_);fill:none;stroke:#B4C7E3;stroke-width:0.2835;stroke-miterlimit:10;" d="
									M200.2,190.3c-2.2,0.7-5.5,1.5-8.9,1.5c-3.5,0-6.5-0.9-8.8-2.7c-2.1-1.7-3.6-4.6-3.6-8.2c0-5.1,2.1-9.2,5.4-12
									c3-2.4,7.2-3.7,11.9-3.7c3.4,0,6.1,0.6,7.2,1.2l-1.9,5.5c-1.1-0.5-3.3-1-5.6-1c-2.3,0-4.5,0.6-6,1.6c-2.2,1.6-3.7,4.4-3.7,8
									c0,4.1,2.6,5.8,6,5.8c1.2,0,1.8-0.1,2.3-0.3l0.9-4.5h-3.5l1-5.3h9.9L200.2,190.3z"/>
							</g>
						</g>
						<g>
							<g>
								<defs>
									<rect id="SVGID_00000000902209044765875400000000370712615867894164_" x="-7.6" y="140.2" width="260.6" height="72.1"/>
								</defs>
								<clipPath id="SVGID_00000134249712285788513500000005693375301568489365_">
									<use xlink:href="#SVGID_00000000902209044765875400000000370712615867894164_"  style="overflow:visible;"/>
								</clipPath>
								
									<polygon style="clip-path:url(#SVGID_00000134249712285788513500000005693375301568489365_);fill:none;stroke:#B4C7E3;stroke-width:0.2835;stroke-miterlimit:10;" points="
									222.3,181 213.2,181 212.3,185.9 222.5,185.9 221.5,191.5 204.6,191.5 209.5,165.5 225.8,165.5 224.8,171.1 215.1,171.1 
									214.2,175.4 223.4,175.4 								"/>
							</g>
						</g>
						<g>
							<g>
								<defs>
									<rect id="SVGID_00000183230297541699925150000007355952263437948845_" x="-7.6" y="140.2" width="260.6" height="72.1"/>
								</defs>
								<clipPath id="SVGID_00000051369783614158291830000008147196240433815455_">
									<use xlink:href="#SVGID_00000183230297541699925150000007355952263437948845_"  style="overflow:visible;"/>
								</clipPath>
								
									<path style="clip-path:url(#SVGID_00000051369783614158291830000008147196240433815455_);fill:none;stroke:#B4C7E3;stroke-width:0.2835;stroke-miterlimit:10;" d="
									M225.4,191.5l4.9-26h7.9l2.3,7.9c1,3.5,1.7,6.5,2.4,9.6h0.1c0.1-2.8,0.5-6,1.3-9.9l1.4-7.6h6.1l-4.9,26H240l-2.6-8.5
									c-1.1-3.7-1.8-6.3-2.6-9.8h-0.2c-0.3,2.6-1,6.8-1.8,11.1l-1.4,7.2L225.4,191.5L225.4,191.5z"/>
							</g>
						</g>
						<g>
							<g>
								<defs>
									<rect id="SVGID_00000114049868528594700190000012874313821754659482_" x="-7.6" y="140.2" width="260.6" height="72.1"/>
								</defs>
								<clipPath id="SVGID_00000029016172375299290600000012325593083643424173_">
									<use xlink:href="#SVGID_00000114049868528594700190000012874313821754659482_"  style="overflow:visible;"/>
								</clipPath>
								<path style="clip-path:url(#SVGID_00000029016172375299290600000012325593083643424173_);fill:#0060A0;" d="M-4.1,184.6
									c1.6,0.9,3.9,1.7,6.4,1.7c1.8,0,3.5-0.7,3.5-2.2c0-1.3-1.2-2-3.4-3.2c-2.5-1.4-5.5-3.4-5.5-7c0-5.5,4.9-8.8,10.9-8.8
									c3.4,0,5.3,0.6,6.5,1.3l-2,5.5c-0.9-0.4-2.8-1.2-5-1.1c-2.3,0-3.4,0.9-3.4,2c0,1.3,1.7,2.1,3.7,3.2c3.1,1.6,5.3,3.7,5.3,6.8
									c0,6.4-5.4,9.1-11.1,9.1c-4.1-0.1-6.7-1-8-1.9L-4.1,184.6z"/>
							</g>
						</g>
						<g>
							<g>
								<defs>
									<rect id="SVGID_00000049942678411740376640000013487723719706438793_" x="-7.6" y="140.2" width="260.6" height="72.1"/>
								</defs>
								<clipPath id="SVGID_00000010296115229951242750000015217936290648966549_">
									<use xlink:href="#SVGID_00000049942678411740376640000013487723719706438793_"  style="overflow:visible;"/>
								</clipPath>
								<polygon style="clip-path:url(#SVGID_00000010296115229951242750000015217936290648966549_);fill:#0060A0;" points="
									54,165.5 49.1,191.5 42.5,191.5 47.4,165.5 								"/>
							</g>
						</g>
						<g>
							<g>
								<defs>
									<rect id="SVGID_00000066511272302141504050000011647327156592905088_" x="-7.6" y="140.2" width="260.6" height="72.1"/>
								</defs>
								<clipPath id="SVGID_00000088830393576219967910000014625035936719342982_">
									<use xlink:href="#SVGID_00000066511272302141504050000011647327156592905088_"  style="overflow:visible;"/>
								</clipPath>
								<polygon style="clip-path:url(#SVGID_00000088830393576219967910000014625035936719342982_);fill:#0060A0;" points="
									58.9,165.5 65.5,165.5 61.6,185.7 71.4,185.7 70.3,191.5 54,191.5 								"/>
							</g>
						</g>
						<g>
							<g>
								<defs>
									<rect id="SVGID_00000092433399467028012360000004558239236669126556_" x="-7.6" y="140.2" width="260.6" height="72.1"/>
								</defs>
								<clipPath id="SVGID_00000083778038663902530830000012041874426862278824_">
									<use xlink:href="#SVGID_00000092433399467028012360000004558239236669126556_"  style="overflow:visible;"/>
								</clipPath>
								<path style="clip-path:url(#SVGID_00000083778038663902530830000012041874426862278824_);fill:#0060A0;" d="M132.5,176
									c0,4.8-1.7,9.3-4.6,12.2c-2.5,2.4-5.9,3.8-9.9,3.8c-6.8,0-10.9-4.7-10.9-11c0-4.8,1.7-9.3,4.8-12.1c2.5-2.4,5.9-3.8,9.9-3.8
									C128.5,165,132.5,169.5,132.5,176 M117.1,172.2c-1.9,1.9-3,5.7-3,8.6c0,3.4,1.6,5.6,4.8,5.6c1.4,0,2.6-0.6,3.6-1.6
									c1.8-1.9,2.9-6,2.9-8.7c0-3.1-1.2-5.6-4.6-5.6C119.4,170.5,118.1,171.1,117.1,172.2"/>
							</g>
						</g>
						<g>
							<g>
								<defs>
									<rect id="SVGID_00000096778115029099801360000018388572738775953838_" x="-7.6" y="140.2" width="260.6" height="72.1"/>
								</defs>
								<clipPath id="SVGID_00000052807801161005163460000017453237644229999006_">
									<use xlink:href="#SVGID_00000096778115029099801360000018388572738775953838_"  style="overflow:visible;"/>
								</clipPath>
								<path style="clip-path:url(#SVGID_00000052807801161005163460000017453237644229999006_);fill:#0060A0;" d="M146.5,191.5
									l-1.4-4.7c-0.4-1.5-0.8-2.7-1.3-4.5h-0.1c-0.9,1.6-1.5,2.9-2.5,4.7l-2.4,4.5h-7.9l9.6-13.3l-4.5-12.7h7l1.2,4.3
									c0.4,1.6,0.7,2.8,1.2,4.5h0.1c1-2,1.6-3.2,2.4-4.6l2.2-4.1h7.9l-9.3,12.8l4.9,13.3L146.5,191.5L146.5,191.5z"/>
							</g>
						</g>
						<g>
							<g>
								<defs>
									<rect id="SVGID_00000163033575754763089940000010459050202381883038_" x="-7.6" y="140.2" width="260.6" height="72.1"/>
								</defs>
								<clipPath id="SVGID_00000018932494625256610740000002267989626720201378_">
									<use xlink:href="#SVGID_00000163033575754763089940000010459050202381883038_"  style="overflow:visible;"/>
								</clipPath>
								<path style="clip-path:url(#SVGID_00000018932494625256610740000002267989626720201378_);fill:#0060A0;" d="M161.9,191.5
									l2-10.5l-5.1-15.5h7.1l1.3,5.8c0.4,2.1,0.7,3.4,1,4.9h0.1c0.8-1.5,1.6-3,2.6-4.9l3.2-5.8h7.9l-11.3,15.3l-2,10.7
									L161.9,191.5L161.9,191.5z"/>
							</g>
						</g>
						<g>
							<g>
								<defs>
									<rect id="SVGID_00000088128728157568548060000008540833091059334027_" x="-7.6" y="140.2" width="260.6" height="72.1"/>
								</defs>
								<clipPath id="SVGID_00000008113076508656526910000000724074923660683677_">
									<use xlink:href="#SVGID_00000088128728157568548060000008540833091059334027_"  style="overflow:visible;"/>
								</clipPath>
								<path style="clip-path:url(#SVGID_00000008113076508656526910000000724074923660683677_);fill:#0060A0;" d="M200.2,190.3
									c-2.2,0.7-5.5,1.5-8.9,1.5c-3.5,0-6.5-0.9-8.8-2.7c-2.1-1.7-3.6-4.6-3.6-8.2c0-5.1,2.1-9.2,5.4-12c3-2.4,7.2-3.7,11.9-3.7
									c3.4,0,6.1,0.6,7.2,1.2l-1.9,5.5c-1.1-0.5-3.3-1-5.6-1c-2.3,0-4.5,0.6-6,1.6c-2.2,1.6-3.7,4.4-3.7,8c0,4.1,2.6,5.8,6,5.8
									c1.2,0,1.8-0.1,2.3-0.3l0.9-4.5h-3.5l1-5.3h9.9L200.2,190.3z"/>
							</g>
						</g>
						<g>
							<g>
								<defs>
									<rect id="SVGID_00000077299572065917489700000017761011503643381951_" x="-7.6" y="140.2" width="260.6" height="72.1"/>
								</defs>
								<clipPath id="SVGID_00000173864339430148355490000016515231481956399543_">
									<use xlink:href="#SVGID_00000077299572065917489700000017761011503643381951_"  style="overflow:visible;"/>
								</clipPath>
								<polygon style="clip-path:url(#SVGID_00000173864339430148355490000016515231481956399543_);fill:#0060A0;" points="
									222.3,181 213.2,181 212.3,185.9 222.5,185.9 221.5,191.5 204.6,191.5 209.5,165.5 225.8,165.5 224.8,171.1 215.1,171.1 
									214.2,175.4 223.4,175.4 								"/>
							</g>
						</g>
						<g>
							<g>
								<defs>
									<rect id="SVGID_00000106844108302693718130000014845869824760745385_" x="-7.6" y="140.2" width="260.6" height="72.1"/>
								</defs>
								<clipPath id="SVGID_00000119831737187180660670000006690479132902369205_">
									<use xlink:href="#SVGID_00000106844108302693718130000014845869824760745385_"  style="overflow:visible;"/>
								</clipPath>
								<path style="clip-path:url(#SVGID_00000119831737187180660670000006690479132902369205_);fill:#0060A0;" d="M225.4,191.5
									l4.9-26h7.9l2.3,7.9c1,3.5,1.7,6.5,2.4,9.6h0.1c0.1-2.8,0.5-6,1.3-9.9l1.4-7.6h6.1l-4.9,26H240l-2.6-8.5
									c-1.1-3.7-1.8-6.3-2.6-9.8h-0.2c-0.3,2.6-1,6.8-1.8,11.1l-1.4,7.2L225.4,191.5L225.4,191.5z"/>
							</g>
						</g>
					</g>
				</g>
			</g>
		</g>
	</g>
	<path class="st23" d="M1.6,156.2c13.8-3.1,27.8-5.7,41.9-7c7.9-0.7,16-1.2,23.9,0.2c2.6,0.5,5.3,1.3,7.4,3c0.7,0.5,1.4,1.1,2.1,1.7
		c0.7,0.6,1.4,1.2,1.8,2c1.1,1.9-0.9,2.4-2.4,2.5c-1.4,0.1-2.7-0.1-4-0.3c-1.8-0.3-3.5-0.6-5.2-1.2c-0.3-0.1-0.7-0.2-1-0.5
		c-0.4-0.4-0.6-0.9-1-1.4c-5.6-8.3-13.6-17.7-24.1-19c-0.9-0.1-1.7-0.1-2.6-0.1c-0.5,0-0.9,0.1-1.4,0.1c0-0.1,0,0.1,0.2-0.3
		c-0.1-0.4-0.1-0.2-0.1-0.3c0.3,0.1,0.6,0.1,0.9,0.2c1.7,0.2,3.5,0.4,5.3,0.5c17.7,1.3,35.4,2.1,53.1,2.1c3.5,0,7.1-0.1,10.6-0.4
		c1.3-0.1,2.6-0.3,3.8-0.7c0.1-0.1,0.3-0.1,0.4-0.2c0.3-0.4,0.4-1.1,0.6-1.6c0.6-3,0.8-6.1,1-9.2c0.3-5.3,0.4-10.6,0.4-15.9
		c0.2-35.4-1.1-70.9-2.3-106.3L110.7,2l1.1,1.8l37.5,60.4l37.5,60.5l0.5,0.8h-1l-69.9,0.3l0.5-0.4c-0.4,3-0.9,6.2-0.8,9.2
		c0,0.3,0.1,0.6,0.2,1c0,0,0,0,0,0c0,0,0,0,0,0c0,0-0.1,0,0,0l0.1,0c3.7,1.5,9.7,0.7,13.7,0.1c1-0.2,2-0.3,3-0.6c1-0.2,2-0.5,3-0.8
		c8-2.7,16.6-3,24.9-2c4.1,0.6,8.4,1.8,11.6,4.6c1.6,1.3,2.8,3.1,4.6,4.1s3.9,0.9,5.9,0.9c7.8-0.2,15.5-1.6,23.4-1.8
		c0.8,0,1.6,0,2.4,0.2c0.2,0.1,0.3,0.1,0.4,0.2c0,0,0,0,0.1,0.1l0,0.1c0,0,0.1,0.1,0.1,0.1l0.1,0.1c0.3,0.5,0.5,1.1,0.6,1.6
		c0.2,1,0.4,2.1,0.4,3.1c0.1,2.1-0.1,4.3-0.8,6.3c-1.2,3.4-3.9,5.1-7.4,5c-2.1-0.1-4.1-0.7-6.1-1.3c-1-0.4-2.9-0.9-3.5-1.8
		c-0.5-1,1-1.4,1.7-1.6c1-0.2,2.1-0.4,3.1-0.5c3.4-0.3,6.8-0.3,10.2,0c2.8,0.5,5.6,1.4,8.4,1.9c6.1,1.3,12.3,2,18.6,1.6
		c1-0.1,2.1-0.2,3.1-0.3c3-0.5,12.4-2.1,15.4-2.6c-4.7,0.8-14,2.7-18.5,3.1c-4.1,0.4-8.4,0.2-12.5-0.4c-4.1-0.5-8.2-1.5-12.2-2.5
		c-0.8-0.2-1.5-0.4-2.3-0.4c-3.4-0.3-6.7-0.2-10.1,0.1c-1.3,0.2-2.6,0.3-3.7,0.7c-0.3,0.1-0.9,0.4-0.7,0.8c0.4,0.5,1.2,0.9,1.9,1.1
		c1.4,0.6,2.9,1,4.5,1.4c7.9,2,11.1-2.9,10.7-10.3c-0.1-1.3-0.3-2.6-0.6-3.8c-0.1-0.3-0.2-0.6-0.4-0.8c0,0,0,0-0.1-0.1l0,0
		c-0.1-0.1-0.2-0.1-0.3-0.1c-1.2-0.3-2.5-0.2-3.8-0.1c-7.3,0.5-14.5,1.7-21.8,1.9c-1.6,0-3.2,0.1-4.8-0.4c-2.7-0.7-4.2-3.2-6.2-4.8
		c-1.6-1.3-3.4-2.3-5.3-3c-3.9-1.4-8.1-1.7-12.2-1.8c-6.2-0.2-12.4,0.5-18.3,2.5c-1,0.3-2,0.6-3,0.9c-1,0.2-2.1,0.4-3.1,0.6
		c-4.2,0.6-10.3,1.5-14.2-0.1c-0.6-0.3-0.6-1.2-0.7-1.8c-0.1-3.2,0.4-6.3,0.8-9.4l0.1-0.4h0.4l69.9-0.5l-0.5,0.9l-37.6-60.4
		L110.8,4.4l1.1-0.3c1.3,39,2.9,78,2,117c-0.1,3.5-0.3,7.1-0.6,10.6c-0.1,1.4-0.3,2.7-0.6,4c-0.1,0.5-0.2,0.9-0.4,1.4
		c-0.1,0.3-0.4,0.8-0.8,1c-0.5,0.3-1.2,0.4-1.7,0.5c-0.9,0.2-1.8,0.3-2.7,0.4c-3.5,0.3-7.1,0.4-10.6,0.4c-17.7,0-35.5-0.9-53.1-2.3
		c-1.8-0.2-3.5-0.3-5.3-0.6c-0.2,0-0.4-0.1-0.7-0.1c-0.1,0-0.3-0.1-0.4-0.1c0-0.1-0.1,0.1-0.2-0.4c0.1-0.4,0.2-0.3,0.3-0.3
		c0.5-0.2,1.1-0.1,1.6-0.2c0.9,0,1.8,0,2.7,0.1c7.2,0.8,13.3,5.6,18,10.9c2.7,3,5,6.2,7.2,9.6c0.1,0.1,0.1,0.2,0.2,0.2
		c0.1,0.1,0.1,0.1,0.2,0.1c1,0.5,2,0.7,3.1,1c1.7,0.4,3.5,0.7,5.2,0.8c1.1,0,4.5,0.2,3.3-1.8c-0.4-0.7-1.1-1.4-1.7-1.9
		c-0.6-0.6-1.4-1.1-2.1-1.6c-1.4-1.1-3-1.8-4.7-2.3c-1.7-0.5-3.4-0.8-5.2-1c-7-0.8-14.1-0.4-21.2,0.1
		C29.4,150.7,15.4,153.2,1.6,156.2L1.6,156.2z"/>
	<path class="st24" d="M39,132.1c3.9-15.4,63.1-119.4,68-128c5.7-10,4.9,17.5,4.9,17.5l1.2,100.6C91.4,139.3,39,132.1,39,132.1z"/>
	<g>
		<g>
			<path class="st25" d="M184.2,144c-10.3-18.8-23.6-35.9-39.2-50.6c-5.2-4.9-10.7-9.6-16.5-14c9.1,5.9,17.7,12.6,25.7,19.8
				c13.5,12.2,25.4,26.2,35.3,41.5L184.2,144L184.2,144z"/>
		</g>
		<line class="st24" x1="128.6" y1="185.8" x2="128.6" y2="79.4"/>
		<g>
			<rect x="125" y="197.7" class="st26" width="7.1" height="26.5"/>
			<ellipse class="st26" cx="128.6" cy="194.7" rx="3.5" ry="8.8"/>
		</g>
	</g>
</g>
</svg>
