<?xml version="1.0" encoding="utf-8"?>
<!-- Generator: Adobe Illustrator 27.6.0, SVG Export Plug-In . SVG Version: 6.00 Build 0)  -->
<svg version="1.1" id="Layer_1" xmlns="http://www.w3.org/2000/svg" xmlns:xlink="http://www.w3.org/1999/xlink" x="0px" y="0px"
	 viewBox="0 0 47 47" style="enable-background:new 0 0 47 47;" xml:space="preserve">
<style type="text/css">
	.st0{fill:#0060A0;}
	.st1{display:none;}
	.st2{font-family:'MyriadPro-Regular';}
	.st3{font-size:43.2383px;}
	.st4{fill:none;}
	.st5{font-family:'HiraMaruPro-W4-83pv-RKSJ-H';}
	.st6{font-size:35px;}
</style>
<g>
	<path class="st0" d="M23.5,3.5c11,0,20,9,20,20s-9,20-20,20s-20-9-20-20S12.5,3.5,23.5,3.5 M23.5,0.5c-12.7,0-23,10.3-23,23
		s10.3,23,23,23s23-10.3,23-23S36.2,0.5,23.5,0.5L23.5,0.5z"/>
</g>
<text transform="matrix(1.4811 0 0 1 11.5 38.6895)" class="st1 st2 st3">?</text>
<rect x="13.7" y="9.8" class="st4" width="20.5" height="29.5"/>
<text transform="matrix(1 0 0 1 13.7271 36.9912)" class="st0 st5 st6">?</text>
</svg>
