<?xml version="1.0" encoding="utf-8"?>
<!-- Generator: Adobe Illustrator 27.6.0, SVG Export Plug-In . SVG Version: 6.00 Build 0)  -->
<svg version="1.1" id="Layer_1" xmlns="http://www.w3.org/2000/svg" xmlns:xlink="http://www.w3.org/1999/xlink" x="0px" y="0px"
	 viewBox="0 0 45 45" style="enable-background:new 0 0 45 45;" xml:space="preserve">
<style type="text/css">
	.st0{fill:#0060A0;}
</style>
<g>
	<path class="st0" d="M22.5,2.5c11,0,20,9,20,20s-9,20-20,20s-20-9-20-20S11.5,2.5,22.5,2.5 M22.5-0.5c-12.7,0-23,10.3-23,23
		s10.3,23,23,23s23-10.3,23-23S35.2-0.5,22.5-0.5L22.5-0.5z"/>
</g>
<g>
	<path class="st0" d="M22.5,38.5L22.5,38.5c-1.1,0-2-0.9-2-2V17.6c0-1.1,0.9-2,2-2h0c1.1,0,2,0.9,2,2v18.9
		C24.5,37.6,23.6,38.5,22.5,38.5z"/>
</g>
<g>
	<circle class="st0" cx="22.6" cy="10.9" r="2.6"/>
</g>
</svg>
