<?xml version="1.0" encoding="utf-8"?>
<!-- Generator: Adobe Illustrator 27.6.0, SVG Export Plug-In . SVG Version: 6.00 Build 0)  -->
<svg version="1.1" id="Layer_2_00000125565885540853706470000001495074002687753377_"
	 xmlns="http://www.w3.org/2000/svg" xmlns:xlink="http://www.w3.org/1999/xlink" x="0px" y="0px" viewBox="0 0 200 200"
	 style="enable-background:new 0 0 200 200;" xml:space="preserve">
<style type="text/css">
	.st0{fill:#B4C7E3;}
	.st1{opacity:0.1;}
	.st2{clip-path:url(#SVGID_00000150065313429909685880000013708387916771165372_);}
	.st3{clip-path:url(#SVGID_00000054960595898277033190000014110123124861006525_);fill:#0060A0;}
	.st4{clip-path:url(#SVGID_00000041271812069372505710000010566314409942148016_);fill:#ED1C24;}
	
		.st5{clip-path:url(#SVGID_00000016039108689791224510000011135910905293447079_);fill:none;stroke:#B4C7E3;stroke-width:0.2835;stroke-miterlimit:10;}
	
		.st6{clip-path:url(#SVGID_00000129913369511017014000000017144966196446267019_);fill:none;stroke:#B4C7E3;stroke-width:0.2835;stroke-miterlimit:10;}
	
		.st7{clip-path:url(#SVGID_00000143610901262309804310000008678316349665874367_);fill:none;stroke:#B4C7E3;stroke-width:0.2835;stroke-miterlimit:10;}
	
		.st8{clip-path:url(#SVGID_00000025440981395991394030000013616602140951203232_);fill:none;stroke:#B4C7E3;stroke-width:0.2835;stroke-miterlimit:10;}
	
		.st9{clip-path:url(#SVGID_00000116229120912503860630000009476819710324879796_);fill:none;stroke:#B4C7E3;stroke-width:0.2835;stroke-miterlimit:10;}
	
		.st10{clip-path:url(#SVGID_00000123428273918359687120000006087098888472831161_);fill:none;stroke:#B4C7E3;stroke-width:0.2835;stroke-miterlimit:10;}
	
		.st11{clip-path:url(#SVGID_00000119800386988514597980000003137471564665931182_);fill:none;stroke:#B4C7E3;stroke-width:0.2835;stroke-miterlimit:10;}
	
		.st12{clip-path:url(#SVGID_00000074400815489921800090000003678363714955617720_);fill:none;stroke:#B4C7E3;stroke-width:0.2835;stroke-miterlimit:10;}
	
		.st13{clip-path:url(#SVGID_00000021825326437542989710000012865356241964556935_);fill:none;stroke:#B4C7E3;stroke-width:0.2835;stroke-miterlimit:10;}
	.st14{clip-path:url(#SVGID_00000046331010785893198730000016751099262363454340_);fill:#0060A0;}
	.st15{clip-path:url(#SVGID_00000132075638960516372320000003017622179328177043_);fill:#0060A0;}
	.st16{clip-path:url(#SVGID_00000039092801011167303790000008943781307076523140_);fill:#0060A0;}
	.st17{clip-path:url(#SVGID_00000071552498017489938910000017187752541426805918_);fill:#0060A0;}
	.st18{clip-path:url(#SVGID_00000087392703250868394050000016457435109689860232_);fill:#0060A0;}
	.st19{clip-path:url(#SVGID_00000112609080576127164080000003994500220858515388_);fill:#0060A0;}
	.st20{clip-path:url(#SVGID_00000142892551514174901930000017274679563941325697_);fill:#0060A0;}
	.st21{clip-path:url(#SVGID_00000116933811978499170220000000812829321954230938_);fill:#0060A0;}
	.st22{clip-path:url(#SVGID_00000052808034748523789140000008113761130674099850_);fill:#0060A0;}
	.st23{fill:#124B8D;stroke:#124B8D;stroke-width:0.9921;stroke-linecap:round;stroke-linejoin:round;stroke-miterlimit:10;}
	.st24{fill:none;stroke:#124B8D;stroke-width:1.4173;stroke-miterlimit:10;}
	.st25{fill:#EC2028;}
	.st26{fill:none;stroke:#124B8D;stroke-width:0.7087;stroke-miterlimit:10;}
	.st27{fill:#124B8D;}
</style>
<rect x="-1.6" y="-3.4" class="st0" width="205.2" height="206.8"/>
<g>
	<g id="S4O_blau_00000178884176216958184220000008677035727893750922_" class="st1">
		<g>
			<g>
				<defs>
					<rect id="SVGID_1_" x="25.5" y="113.7" width="155.4" height="43"/>
				</defs>
				<clipPath id="SVGID_00000016759031113474467120000008983204983728335023_">
					<use xlink:href="#SVGID_1_"  style="overflow:visible;"/>
				</clipPath>
				<g style="clip-path:url(#SVGID_00000016759031113474467120000008983204983728335023_);">
					<g>
						<defs>
							<rect id="SVGID_00000041272492264817855090000018160006006577665420_" x="25.5" y="113.7" width="155.4" height="43"/>
						</defs>
						<clipPath id="SVGID_00000090282452352170075320000004692137379208429216_">
							<use xlink:href="#SVGID_00000041272492264817855090000018160006006577665420_"  style="overflow:visible;"/>
						</clipPath>
						<path style="clip-path:url(#SVGID_00000090282452352170075320000004692137379208429216_);fill:#0060A0;" d="M47.4,120.5
							c0,0-9.9,9-10.7,20.4c-0.8,11.5,1.4,12.6,1.4,12.6s4.4-4.9,12-2.3c7.6,2.6,14.3,5.6,14.3,5.6s-10-12.9-13.5-22.2
							C47.4,125.2,47.4,120.5,47.4,120.5"/>
					</g>
					<g>
						<defs>
							<rect id="SVGID_00000131343206201820426100000016480195881711103416_" x="25.5" y="113.7" width="155.4" height="43"/>
						</defs>
						<clipPath id="SVGID_00000155106731029034612080000010569745461981199537_">
							<use xlink:href="#SVGID_00000131343206201820426100000016480195881711103416_"  style="overflow:visible;"/>
						</clipPath>
						<path style="clip-path:url(#SVGID_00000155106731029034612080000010569745461981199537_);fill:#ED1C24;" d="M83.8,155.8
							l1.9-9.7H67.8l1.4-7.4l19-25.1h13.9l-4.5,24.1h4.6l-1.6,8.4H96l-1.8,9.7L83.8,155.8L83.8,155.8z M87.2,137.8l1.6-7
							c0.7-2.9,1.6-6,2.2-8.9h-0.3c-1.9,3-3.8,5.8-5.9,8.9l-4.9,6.9l-0.1,0.1L87.2,137.8L87.2,137.8z"/>
					</g>
					<g>
						<defs>
							<rect id="SVGID_00000147219094674885866130000009041787349819268541_" x="25.5" y="113.7" width="155.4" height="43"/>
						</defs>
						<clipPath id="SVGID_00000060015035670719299850000007367982666118594700_">
							<use xlink:href="#SVGID_00000147219094674885866130000009041787349819268541_"  style="overflow:visible;"/>
						</clipPath>
						
							<path style="clip-path:url(#SVGID_00000060015035670719299850000007367982666118594700_);fill:none;stroke:#B4C7E3;stroke-width:0.2835;stroke-miterlimit:10;" d="
							M27.5,140.2c0.9,0.6,2.3,1,3.8,1c1.1,0,2.1-0.4,2.1-1.3c0-0.8-0.7-1.2-2-1.9c-1.5-0.8-3.3-2-3.3-4.2c0-3.3,2.9-5.3,6.5-5.3
							c2.1,0,3.2,0.4,3.9,0.8l-1.2,3.3c-0.5-0.3-1.7-0.7-3-0.6c-1.4,0-2.1,0.6-2.1,1.2c0,0.7,1,1.2,2.2,1.9c1.9,1,3.1,2.2,3.1,4.1
							c0,3.8-3.2,5.4-6.6,5.4c-2.4,0-4-0.6-4.7-1.1L27.5,140.2z"/>
					</g>
					<g>
						<defs>
							<rect id="SVGID_00000000921374528403159940000014406260142406369952_" x="25.5" y="113.7" width="155.4" height="43"/>
						</defs>
						<clipPath id="SVGID_00000032631870682935780220000000599358950348544156_">
							<use xlink:href="#SVGID_00000000921374528403159940000014406260142406369952_"  style="overflow:visible;"/>
						</clipPath>
						
							<polygon style="clip-path:url(#SVGID_00000032631870682935780220000000599358950348544156_);fill:none;stroke:#B4C7E3;stroke-width:0.2835;stroke-miterlimit:10;" points="
							62.2,128.8 59.2,144.3 55.3,144.3 58.2,128.8 						"/>
					</g>
					<g>
						<defs>
							<rect id="SVGID_00000045577876856627959230000003252431689708317068_" x="25.5" y="113.7" width="155.4" height="43"/>
						</defs>
						<clipPath id="SVGID_00000119097995807494270890000008352561297135448483_">
							<use xlink:href="#SVGID_00000045577876856627959230000003252431689708317068_"  style="overflow:visible;"/>
						</clipPath>
						
							<polygon style="clip-path:url(#SVGID_00000119097995807494270890000008352561297135448483_);fill:none;stroke:#B4C7E3;stroke-width:0.2835;stroke-miterlimit:10;" points="
							65.1,128.8 69,128.8 66.7,140.9 72.5,140.9 71.9,144.3 62.1,144.3 						"/>
					</g>
					<g>
						<defs>
							<rect id="SVGID_00000180350413679714971290000005295447647430720433_" x="25.5" y="113.7" width="155.4" height="43"/>
						</defs>
						<clipPath id="SVGID_00000178910712348508525070000015565237145353502136_">
							<use xlink:href="#SVGID_00000180350413679714971290000005295447647430720433_"  style="overflow:visible;"/>
						</clipPath>
						
							<path style="clip-path:url(#SVGID_00000178910712348508525070000015565237145353502136_);fill:none;stroke:#B4C7E3;stroke-width:0.2835;stroke-miterlimit:10;" d="
							M109,135.1c0,2.9-1,5.6-2.8,7.3c-1.5,1.4-3.5,2.3-5.9,2.3c-4,0-6.5-2.8-6.5-6.5c0-2.8,1-5.5,2.8-7.2c1.5-1.4,3.5-2.3,5.9-2.3
							C106.6,128.5,109,131.2,109,135.1z M99.8,132.8c-1.1,1.1-1.8,3.4-1.8,5.1c0,2,0.9,3.4,2.9,3.4c0.8,0,1.6-0.4,2.2-0.9
							c1.1-1.1,1.7-3.5,1.7-5.2c0-1.8-0.7-3.4-2.7-3.4C101.1,131.8,100.4,132.2,99.8,132.8z"/>
					</g>
					<g>
						<defs>
							<rect id="SVGID_00000133515780890613810930000009658750956470398109_" x="25.5" y="113.7" width="155.4" height="43"/>
						</defs>
						<clipPath id="SVGID_00000096770346813302247230000008458458634021831043_">
							<use xlink:href="#SVGID_00000133515780890613810930000009658750956470398109_"  style="overflow:visible;"/>
						</clipPath>
						
							<path style="clip-path:url(#SVGID_00000096770346813302247230000008458458634021831043_);fill:none;stroke:#B4C7E3;stroke-width:0.2835;stroke-miterlimit:10;" d="
							M117.3,144.3l-0.9-2.8c-0.3-0.9-0.5-1.6-0.8-2.7h0c-0.5,1-0.9,1.7-1.5,2.8l-1.4,2.7H108l5.7-8l-2.7-7.6h4.1l0.7,2.5
							c0.3,1,0.4,1.7,0.7,2.7h0.1c0.6-1.2,1-1.9,1.4-2.7l1.3-2.5h4.7l-5.5,7.6l2.9,7.9L117.3,144.3L117.3,144.3z"/>
					</g>
					<g>
						<defs>
							<rect id="SVGID_00000069357961586392977210000005925847758852761746_" x="25.5" y="113.7" width="155.4" height="43"/>
						</defs>
						<clipPath id="SVGID_00000022520323851207479710000011243773416167152789_">
							<use xlink:href="#SVGID_00000069357961586392977210000005925847758852761746_"  style="overflow:visible;"/>
						</clipPath>
						
							<path style="clip-path:url(#SVGID_00000022520323851207479710000011243773416167152789_);fill:none;stroke:#B4C7E3;stroke-width:0.2835;stroke-miterlimit:10;" d="
							M126.5,144.3l1.2-6.3l-3.1-9.3h4.2l0.8,3.5c0.3,1.3,0.4,2,0.6,2.9h0c0.5-0.9,0.9-1.8,1.5-2.9l1.9-3.5h4.7l-6.8,9.1l-1.2,6.4
							L126.5,144.3L126.5,144.3z"/>
					</g>
					<g>
						<defs>
							<rect id="SVGID_00000102528680473113043000000001447620568432704932_" x="25.5" y="113.7" width="155.4" height="43"/>
						</defs>
						<clipPath id="SVGID_00000032610484505306614000000006448805117718055306_">
							<use xlink:href="#SVGID_00000102528680473113043000000001447620568432704932_"  style="overflow:visible;"/>
						</clipPath>
						
							<path style="clip-path:url(#SVGID_00000032610484505306614000000006448805117718055306_);fill:none;stroke:#B4C7E3;stroke-width:0.2835;stroke-miterlimit:10;" d="
							M149.4,143.6c-1.3,0.4-3.3,0.9-5.3,0.9c-2.1,0-3.9-0.5-5.2-1.6c-1.3-1-2.1-2.7-2.1-4.9c0-3.1,1.2-5.5,3.2-7.1
							c1.8-1.5,4.3-2.2,7.1-2.2c2.1,0,3.6,0.4,4.3,0.7l-1.1,3.3c-0.7-0.3-1.9-0.6-3.3-0.6c-1.4,0-2.7,0.4-3.6,1
							c-1.3,0.9-2.2,2.6-2.2,4.7c0,2.4,1.6,3.4,3.6,3.4c0.7,0,1.1-0.1,1.4-0.2l0.5-2.7h-2.1l0.6-3.1h5.9L149.4,143.6z"/>
					</g>
					<g>
						<defs>
							<rect id="SVGID_00000129902780901998409290000000135096949067652270_" x="25.5" y="113.7" width="155.4" height="43"/>
						</defs>
						<clipPath id="SVGID_00000090991790231639679630000018181500312219431852_">
							<use xlink:href="#SVGID_00000129902780901998409290000000135096949067652270_"  style="overflow:visible;"/>
						</clipPath>
						
							<polygon style="clip-path:url(#SVGID_00000090991790231639679630000018181500312219431852_);fill:none;stroke:#B4C7E3;stroke-width:0.2835;stroke-miterlimit:10;" points="
							162.5,138.1 157.1,138.1 156.5,141 162.6,141 162,144.3 151.9,144.3 154.9,128.8 164.6,128.8 164,132.1 158.2,132.1 
							157.7,134.8 163.2,134.8 						"/>
					</g>
					<g>
						<defs>
							<rect id="SVGID_00000163770851969077588080000011554128960373774256_" x="25.5" y="113.7" width="155.4" height="43"/>
						</defs>
						<clipPath id="SVGID_00000132054178940564649120000007032901577696374961_">
							<use xlink:href="#SVGID_00000163770851969077588080000011554128960373774256_"  style="overflow:visible;"/>
						</clipPath>
						
							<path style="clip-path:url(#SVGID_00000132054178940564649120000007032901577696374961_);fill:none;stroke:#B4C7E3;stroke-width:0.2835;stroke-miterlimit:10;" d="
							M164.3,144.3l2.9-15.5h4.7l1.4,4.7c0.6,2.1,1,3.8,1.4,5.7h0.1c0.1-1.7,0.3-3.6,0.7-5.9l0.9-4.5h3.7l-2.9,15.5h-4.1l-1.6-5.1
							c-0.6-2.2-1.1-3.7-1.5-5.8h-0.1c-0.2,1.5-0.6,4-1.1,6.6l-0.8,4.3H164.3z"/>
					</g>
					<g>
						<defs>
							<rect id="SVGID_00000128461015096472910850000011861150100721190020_" x="25.5" y="113.7" width="155.4" height="43"/>
						</defs>
						<clipPath id="SVGID_00000023267823350813867770000001474760506441397421_">
							<use xlink:href="#SVGID_00000128461015096472910850000011861150100721190020_"  style="overflow:visible;"/>
						</clipPath>
						<path style="clip-path:url(#SVGID_00000023267823350813867770000001474760506441397421_);fill:#0060A0;" d="M27.5,140.2
							c0.9,0.6,2.3,1,3.8,1c1.1,0,2.1-0.4,2.1-1.3c0-0.8-0.7-1.2-2-1.9c-1.5-0.8-3.3-2-3.3-4.2c0-3.3,2.9-5.3,6.5-5.3
							c2.1,0,3.2,0.4,3.9,0.8l-1.2,3.3c-0.5-0.3-1.7-0.7-3-0.6c-1.4,0-2.1,0.6-2.1,1.2c0,0.7,1,1.2,2.2,1.9c1.9,1,3.1,2.2,3.1,4.1
							c0,3.8-3.2,5.4-6.6,5.4c-2.4,0-4-0.6-4.7-1.1L27.5,140.2z"/>
					</g>
					<g>
						<defs>
							<rect id="SVGID_00000143592036203570356130000002530437664455925941_" x="25.5" y="113.7" width="155.4" height="43"/>
						</defs>
						<clipPath id="SVGID_00000023993196670492022660000018428030050286426266_">
							<use xlink:href="#SVGID_00000143592036203570356130000002530437664455925941_"  style="overflow:visible;"/>
						</clipPath>
						<polygon style="clip-path:url(#SVGID_00000023993196670492022660000018428030050286426266_);fill:#0060A0;" points="
							62.2,128.8 59.2,144.3 55.3,144.3 58.2,128.8 						"/>
					</g>
					<g>
						<defs>
							<rect id="SVGID_00000004528715596645929410000011718740045251046318_" x="25.5" y="113.7" width="155.4" height="43"/>
						</defs>
						<clipPath id="SVGID_00000012461206314350622620000003576261381199636128_">
							<use xlink:href="#SVGID_00000004528715596645929410000011718740045251046318_"  style="overflow:visible;"/>
						</clipPath>
						<polygon style="clip-path:url(#SVGID_00000012461206314350622620000003576261381199636128_);fill:#0060A0;" points="
							65.1,128.8 69,128.8 66.7,140.9 72.5,140.9 71.9,144.3 62.1,144.3 						"/>
					</g>
					<g>
						<defs>
							<rect id="SVGID_00000109724143314339215970000004950187576318962358_" x="25.5" y="113.7" width="155.4" height="43"/>
						</defs>
						<clipPath id="SVGID_00000020393181926877549080000018319093473758131875_">
							<use xlink:href="#SVGID_00000109724143314339215970000004950187576318962358_"  style="overflow:visible;"/>
						</clipPath>
						<path style="clip-path:url(#SVGID_00000020393181926877549080000018319093473758131875_);fill:#0060A0;" d="M109,135.1
							c0,2.9-1,5.6-2.8,7.3c-1.5,1.4-3.5,2.3-5.9,2.3c-4,0-6.5-2.8-6.5-6.5c0-2.8,1-5.5,2.8-7.2c1.5-1.4,3.5-2.3,5.9-2.3
							C106.6,128.5,109,131.2,109,135.1 M99.8,132.8c-1.1,1.1-1.8,3.4-1.8,5.1c0,2,0.9,3.4,2.9,3.4c0.8,0,1.6-0.4,2.2-0.9
							c1.1-1.1,1.7-3.5,1.7-5.2c0-1.8-0.7-3.4-2.7-3.4C101.1,131.8,100.4,132.2,99.8,132.8"/>
					</g>
					<g>
						<defs>
							<rect id="SVGID_00000144328539232993968470000017793955495994035865_" x="25.5" y="113.7" width="155.4" height="43"/>
						</defs>
						<clipPath id="SVGID_00000043451731342516526590000001900253194353323445_">
							<use xlink:href="#SVGID_00000144328539232993968470000017793955495994035865_"  style="overflow:visible;"/>
						</clipPath>
						<path style="clip-path:url(#SVGID_00000043451731342516526590000001900253194353323445_);fill:#0060A0;" d="M117.3,144.3
							l-0.9-2.8c-0.3-0.9-0.5-1.6-0.8-2.7h0c-0.5,1-0.9,1.7-1.5,2.8l-1.4,2.7H108l5.7-8l-2.7-7.6h4.1l0.7,2.5c0.3,1,0.4,1.7,0.7,2.7
							h0.1c0.6-1.2,1-1.9,1.4-2.7l1.3-2.5h4.7l-5.5,7.6l2.9,7.9L117.3,144.3L117.3,144.3z"/>
					</g>
					<g>
						<defs>
							<rect id="SVGID_00000098215866700337865970000005474236094888733330_" x="25.5" y="113.7" width="155.4" height="43"/>
						</defs>
						<clipPath id="SVGID_00000006670332124411743050000011658716331426560939_">
							<use xlink:href="#SVGID_00000098215866700337865970000005474236094888733330_"  style="overflow:visible;"/>
						</clipPath>
						<path style="clip-path:url(#SVGID_00000006670332124411743050000011658716331426560939_);fill:#0060A0;" d="M126.5,144.3
							l1.2-6.3l-3.1-9.3h4.2l0.8,3.5c0.3,1.3,0.4,2,0.6,2.9h0c0.5-0.9,0.9-1.8,1.5-2.9l1.9-3.5h4.7l-6.8,9.1l-1.2,6.4L126.5,144.3
							L126.5,144.3z"/>
					</g>
					<g>
						<defs>
							<rect id="SVGID_00000166644102945392730750000014030205708349705147_" x="25.5" y="113.7" width="155.4" height="43"/>
						</defs>
						<clipPath id="SVGID_00000180362984318989308920000009058773551726427025_">
							<use xlink:href="#SVGID_00000166644102945392730750000014030205708349705147_"  style="overflow:visible;"/>
						</clipPath>
						<path style="clip-path:url(#SVGID_00000180362984318989308920000009058773551726427025_);fill:#0060A0;" d="M149.4,143.6
							c-1.3,0.4-3.3,0.9-5.3,0.9c-2.1,0-3.9-0.5-5.2-1.6c-1.3-1-2.1-2.7-2.1-4.9c0-3.1,1.2-5.5,3.2-7.1c1.8-1.5,4.3-2.2,7.1-2.2
							c2.1,0,3.6,0.4,4.3,0.7l-1.1,3.3c-0.7-0.3-1.9-0.6-3.3-0.6c-1.4,0-2.7,0.4-3.6,1c-1.3,0.9-2.2,2.6-2.2,4.7
							c0,2.4,1.6,3.4,3.6,3.4c0.7,0,1.1-0.1,1.4-0.2l0.5-2.7h-2.1l0.6-3.1h5.9L149.4,143.6z"/>
					</g>
					<g>
						<defs>
							<rect id="SVGID_00000123429187490872046860000015492366854316318360_" x="25.5" y="113.7" width="155.4" height="43"/>
						</defs>
						<clipPath id="SVGID_00000019666793422989065000000002308443425612850069_">
							<use xlink:href="#SVGID_00000123429187490872046860000015492366854316318360_"  style="overflow:visible;"/>
						</clipPath>
						<polygon style="clip-path:url(#SVGID_00000019666793422989065000000002308443425612850069_);fill:#0060A0;" points="
							162.5,138.1 157.1,138.1 156.5,141 162.6,141 162,144.3 151.9,144.3 154.9,128.8 164.6,128.8 164,132.1 158.2,132.1 
							157.7,134.8 163.2,134.8 						"/>
					</g>
					<g>
						<defs>
							<rect id="SVGID_00000054245438802504455100000007237744939872125857_" x="25.5" y="113.7" width="155.4" height="43"/>
						</defs>
						<clipPath id="SVGID_00000063622652020125386040000001885391074071183491_">
							<use xlink:href="#SVGID_00000054245438802504455100000007237744939872125857_"  style="overflow:visible;"/>
						</clipPath>
						<path style="clip-path:url(#SVGID_00000063622652020125386040000001885391074071183491_);fill:#0060A0;" d="M164.3,144.3
							l2.9-15.5h4.7l1.4,4.7c0.6,2.1,1,3.8,1.4,5.7h0.1c0.1-1.7,0.3-3.6,0.7-5.9l0.9-4.5h3.7l-2.9,15.5h-4.1l-1.6-5.1
							c-0.6-2.2-1.1-3.7-1.5-5.8h-0.1c-0.2,1.5-0.6,4-1.1,6.6l-0.8,4.3H164.3z"/>
					</g>
				</g>
			</g>
		</g>
	</g>
	<path class="st23" d="M30.9,123.3c8.2-1.9,16.6-3.4,25-4.2c4.7-0.4,9.5-0.7,14.3,0.1c1.6,0.3,3.1,0.8,4.4,1.8
		c0.4,0.3,0.9,0.6,1.3,1s0.8,0.7,1.1,1.2c0.7,1.1-0.5,1.4-1.4,1.5c-0.8,0-1.6-0.1-2.4-0.2c-1.1-0.2-2.1-0.4-3.1-0.7
		c-0.2-0.1-0.4-0.1-0.6-0.3c-0.2-0.3-0.4-0.6-0.6-0.8c-3.4-4.9-8.1-10.6-14.4-11.3c-0.5-0.1-1-0.1-1.6,0c-0.3,0-0.5,0-0.8,0.1
		c0,0,0,0.1,0.1-0.2c-0.1-0.2-0.1-0.1-0.1-0.2c0.2,0.1,0.3,0.1,0.5,0.1c1,0.1,2.1,0.2,3.1,0.3c10.5,0.8,21.1,1.3,31.6,1.3
		c2.1,0,4.2-0.1,6.3-0.2c0.8-0.1,1.5-0.2,2.3-0.4c0.1,0,0.2-0.1,0.2-0.1c0.2-0.2,0.3-0.6,0.4-1c0.4-1.8,0.5-3.6,0.6-5.5
		c0.2-3.2,0.2-6.3,0.3-9.5c0.1-21.1-0.6-42.2-1.4-63.3l-0.1-1.3l0.7,1.1l22.4,36l22.4,36l0.3,0.5h-0.6l-41.7,0.2l0.3-0.2
		c-0.2,1.8-0.5,3.7-0.5,5.5c0,0.2,0,0.4,0.1,0.6c0,0,0,0,0,0c0,0,0,0,0,0c0,0,0,0,0,0l0.1,0c2.2,0.9,5.8,0.4,8.1,0
		c0.6-0.1,1.2-0.2,1.8-0.3c0.6-0.1,1.2-0.3,1.8-0.5c4.8-1.6,9.9-1.8,14.8-1.2c2.5,0.3,5,1.1,6.9,2.7c0.9,0.8,1.7,1.8,2.7,2.5
		s2.3,0.5,3.5,0.6c4.7-0.1,9.3-0.9,13.9-1.1c0.5,0,1,0,1.4,0.1c0.1,0,0.2,0.1,0.3,0.1c0,0,0,0,0,0l0,0c0,0,0,0,0,0.1l0,0.1
		c0.2,0.3,0.3,0.6,0.4,1c0.1,0.6,0.2,1.2,0.3,1.9c0.1,1.3,0,2.5-0.5,3.7c-0.7,2-2.3,3.1-4.4,3c-1.3-0.1-2.5-0.4-3.7-0.8
		c-0.6-0.2-1.7-0.6-2.1-1.1c-0.3-0.6,0.6-0.9,1-1c0.6-0.1,1.2-0.2,1.9-0.3c2-0.2,4.1-0.2,6.1,0c1.7,0.3,3.3,0.8,5,1.2
		c3.6,0.8,7.4,1.2,11.1,0.9c0.6-0.1,1.2-0.1,1.8-0.2c1.8-0.3,7.4-1.2,9.2-1.5c-2.8,0.5-8.4,1.6-11,1.8c-2.5,0.2-5,0.1-7.4-0.2
		c-2.5-0.3-4.9-0.9-7.3-1.5c-0.5-0.1-0.9-0.2-1.4-0.3c-2-0.2-4-0.1-6,0c-0.8,0.1-1.5,0.2-2.2,0.4c-0.2,0.1-0.6,0.2-0.4,0.5
		c0.2,0.3,0.7,0.5,1.1,0.7c0.9,0.3,1.8,0.6,2.7,0.8c4.7,1.2,6.6-1.7,6.4-6.1c0-0.8-0.2-1.5-0.4-2.2c-0.1-0.2-0.1-0.3-0.2-0.5
		c0,0,0,0,0,0l0,0c0,0-0.1-0.1-0.2-0.1c-0.7-0.2-1.5-0.1-2.3-0.1c-4.3,0.3-8.6,1-13,1.1c-0.9,0-1.9,0-2.8-0.2
		c-1.6-0.4-2.5-1.9-3.7-2.9c-0.9-0.8-2-1.4-3.1-1.8c-2.3-0.8-4.8-1-7.3-1.1c-3.7-0.1-7.4,0.3-10.9,1.5c-0.6,0.2-1.2,0.4-1.8,0.5
		c-0.6,0.1-1.2,0.2-1.8,0.4c-2.5,0.4-6.1,0.9-8.5-0.1c-0.4-0.2-0.4-0.7-0.4-1.1c-0.1-1.9,0.2-3.8,0.5-5.6l0-0.2h0.2l41.7-0.3
		l-0.3,0.5l-22.4-36L96.1,32.8l0.6-0.2c0.8,23.2,1.7,46.5,1.2,69.7c-0.1,2.1-0.2,4.2-0.4,6.3c-0.1,0.8-0.2,1.6-0.4,2.4
		c-0.1,0.3-0.1,0.5-0.2,0.8c-0.1,0.2-0.2,0.5-0.5,0.6c-0.3,0.2-0.7,0.2-1,0.3c-0.5,0.1-1.1,0.2-1.6,0.2c-2.1,0.2-4.2,0.2-6.4,0.2
		c-10.6,0-21.1-0.5-31.7-1.4c-1.1-0.1-2.1-0.2-3.2-0.3c-0.1,0-0.3,0-0.4-0.1c-0.1,0-0.2,0-0.2-0.1c0,0-0.1,0-0.1-0.2
		c0.1-0.3,0.1-0.2,0.2-0.2c0.3-0.1,0.6-0.1,0.9-0.1c0.5,0,1.1,0,1.6,0.1c4.3,0.5,7.9,3.4,10.7,6.5c1.6,1.8,3,3.7,4.3,5.7
		c0,0.1,0.1,0.1,0.1,0.1c0,0,0.1,0.1,0.1,0.1c0.6,0.3,1.2,0.4,1.8,0.6c1,0.2,2.1,0.4,3.1,0.5c0.7,0,2.7,0.1,2-1.1
		c-0.3-0.4-0.6-0.8-1-1.1c-0.4-0.4-0.8-0.7-1.2-1c-0.8-0.6-1.8-1.1-2.8-1.4c-1-0.3-2-0.5-3.1-0.6c-4.2-0.5-8.4-0.3-12.6,0.1
		C47.5,120,39.1,121.5,30.9,123.3L30.9,123.3z"/>
	<path class="st24" d="M53.2,108.9c2.3-9.2,37.6-71.2,40.6-76.3c3.4-6,2.9,10.4,2.9,10.4l0.7,60C84.4,113.2,53.2,108.9,53.2,108.9z"
		/>
	<g>
		<g>
			<path class="st25" d="M139.8,116c-6.1-11.2-14.1-21.4-23.3-30.2c-3.1-2.9-6.4-5.7-9.8-8.3C112,81,117.2,85,122,89.3
				c8.1,7.3,15.2,15.6,21.1,24.7L139.8,116L139.8,116z"/>
		</g>
		<line class="st26" x1="106.6" y1="141" x2="106.6" y2="77.5"/>
		<g>
			<rect x="104.5" y="148" class="st27" width="4.2" height="15.8"/>
			<ellipse class="st27" cx="106.6" cy="146.2" rx="2.1" ry="5.3"/>
		</g>
	</g>
</g>
</svg>
