<?xml version="1.0" encoding="UTF-8"?><svg id="Layer_1" xmlns="http://www.w3.org/2000/svg" xmlns:xlink="http://www.w3.org/1999/xlink" viewBox="0 0 300 150"><defs><style>.cls-1,.cls-2,.cls-3,.cls-4{fill:none;}.cls-2{clip-path:url(#clippath-1);}.cls-5{fill:#0067a3;}.cls-6{fill:#ee3338;}.cls-3{stroke:#b6c9e4;stroke-miterlimit:10;stroke-width:2.31px;}.cls-4{clip-path:url(#clippath);}</style><clipPath id="clippath"><rect class="cls-1" x="5" y="32" width="288.95" height="79.99"/></clipPath><clipPath id="clippath-1"><rect class="cls-1" x="5" y="32" width="288.95" height="79.99"/></clipPath></defs><g id="S4O_blau"><g class="cls-4"><g class="cls-2"><path class="cls-5" d="m45.82,44.48s-18.44,16.7-19.89,37.99c-1.45,21.29,2.59,23.39,2.59,23.39,0,0,8.18-9.11,22.37-4.27,14.19,4.84,26.62,10.4,26.62,10.4,0,0-18.54-23.95-25.17-41.3-6.63-17.34-6.52-26.21-6.52-26.21"/><path class="cls-6" d="m113.45,110.28l3.49-17.94h-33.24l2.53-13.73,35.4-46.6h25.77l-8.43,44.8h8.55l-2.89,15.53h-8.55l-3.37,17.94h-19.27Zm6.38-33.48l2.89-13.01c1.32-5.42,2.89-11.2,4.1-16.5h-.48c-3.49,5.54-6.98,10.84-10.96,16.5l-9.03,12.77-.12.24h13.61Z"/><path class="cls-3" d="m8.82,81.21c1.76,1.03,4.33,1.84,7.11,1.84,2.01,0,3.86-.77,3.86-2.49,0-1.41-1.29-2.23-3.77-3.51-2.79-1.5-6.09-3.73-6.09-7.76,0-6.13,5.4-9.77,12.08-9.77,3.81,0,5.87.73,7.24,1.41l-2.27,6.08c-.94-.47-3.08-1.29-5.53-1.2-2.57,0-3.81,1.03-3.81,2.27,0,1.37,1.93,2.31,4.11,3.56,3.47,1.8,5.83,4.16,5.83,7.59,0,7.03-5.96,10.11-12.34,10.11-4.5-.09-7.41-1.16-8.83-2.1l2.4-6.04Z"/><polygon class="cls-3" points="73.27 60 67.79 88.88 60.5 88.88 65.95 60 73.27 60"/><polygon class="cls-3" points="78.63 60 85.96 60 81.72 82.5 92.56 82.5 91.36 88.88 73.19 88.88 78.63 60"/><path class="cls-3" d="m160.26,71.66c0,5.36-1.84,10.33-5.14,13.5-2.74,2.66-6.51,4.2-10.97,4.2-7.5,0-12.08-5.18-12.08-12.17,0-5.27,1.93-10.28,5.27-13.46,2.79-2.66,6.56-4.2,10.93-4.2,7.54,0,12,4.93,12,12.13Zm-17.1-4.2c-2.1,2.1-3.3,6.3-3.3,9.56,0,3.77,1.76,6.26,5.36,6.26,1.5,0,2.91-.69,4.03-1.76,2.06-2.1,3.21-6.6,3.21-9.64,0-3.43-1.29-6.26-5.06-6.26-1.67,0-3.08.69-4.24,1.84Z"/><path class="cls-3" d="m175.73,88.88l-1.59-5.23c-.47-1.71-.86-3-1.41-4.93h-.09c-.99,1.8-1.63,3.17-2.74,5.23l-2.66,4.93h-8.78l10.63-14.78-4.93-14.1h7.71l1.33,4.71c.47,1.8.81,3.09,1.29,4.97h.13c1.16-2.19,1.8-3.51,2.66-5.1l2.44-4.59h8.7l-10.29,14.18,5.4,14.7h-7.8Z"/><path class="cls-3" d="m192.87,88.88l2.23-11.66-5.7-17.23h7.84l1.41,6.47c.47,2.36.77,3.77,1.07,5.4h.09c.9-1.71,1.76-3.3,2.87-5.4l3.56-6.47h8.74l-12.56,17.01-2.23,11.87h-7.33Z"/><path class="cls-3" d="m235.38,87.51c-2.44.77-6.13,1.67-9.86,1.67s-7.24-.99-9.73-3c-2.36-1.89-3.94-5.1-3.94-9.08,0-5.7,2.31-10.2,6-13.24,3.34-2.7,7.97-4.16,13.16-4.16,3.81,0,6.77.69,7.97,1.29l-2.1,6.13c-1.24-.51-3.6-1.16-6.17-1.16s-4.93.64-6.64,1.8c-2.44,1.76-4.16,4.84-4.16,8.83,0,4.54,2.91,6.38,6.64,6.38,1.33,0,2.06-.13,2.61-.34l.99-4.97h-3.9l1.16-5.83h10.97l-3,15.68Z"/><polygon class="cls-3" points="259.85 77.23 249.7 77.23 248.67 82.67 260.07 82.67 258.91 88.88 240.18 88.88 245.63 60 263.75 60 262.55 66.21 251.8 66.21 250.85 71.06 261.05 71.06 259.85 77.23"/><path class="cls-3" d="m263.24,88.88l5.44-28.88h8.7l2.61,8.7c1.11,3.86,1.93,7.16,2.66,10.67h.13c.13-3.13.56-6.64,1.37-10.93l1.59-8.44h6.81l-5.49,28.88h-7.63l-2.91-9.43c-1.2-4.07-2.06-6.94-2.87-10.84h-.17c-.3,2.87-1.07,7.5-1.97,12.3l-1.5,7.97h-6.77Z"/><path class="cls-5" d="m8.82,81.21c1.76,1.03,4.33,1.84,7.11,1.84,2.01,0,3.86-.77,3.86-2.49,0-1.41-1.29-2.23-3.77-3.51-2.79-1.5-6.09-3.73-6.09-7.76,0-6.13,5.4-9.77,12.08-9.77,3.81,0,5.87.73,7.24,1.41l-2.27,6.08c-.94-.47-3.08-1.29-5.53-1.2-2.57,0-3.81,1.03-3.81,2.27,0,1.37,1.93,2.31,4.11,3.56,3.47,1.8,5.83,4.16,5.83,7.59,0,7.03-5.96,10.11-12.34,10.11-4.5-.09-7.41-1.16-8.83-2.1l2.4-6.04Z"/><polygon class="cls-5" points="73.27 60 67.79 88.88 60.5 88.88 65.95 60 73.27 60"/><polygon class="cls-5" points="78.63 60 85.96 60 81.72 82.5 92.56 82.5 91.36 88.88 73.19 88.88 78.63 60"/><path class="cls-5" d="m160.26,71.66c0,5.36-1.84,10.33-5.14,13.5-2.74,2.66-6.51,4.2-10.97,4.2-7.5,0-12.08-5.18-12.08-12.17,0-5.27,1.93-10.28,5.27-13.46,2.79-2.66,6.56-4.2,10.93-4.2,7.54,0,12,4.93,12,12.13m-17.1-4.2c-2.1,2.1-3.3,6.3-3.3,9.56,0,3.77,1.76,6.26,5.36,6.26,1.5,0,2.91-.69,4.03-1.76,2.06-2.1,3.21-6.6,3.21-9.64,0-3.43-1.29-6.26-5.06-6.26-1.67,0-3.08.69-4.24,1.84"/><path class="cls-5" d="m175.73,88.88l-1.59-5.23c-.47-1.71-.86-3-1.41-4.93h-.09c-.99,1.8-1.63,3.17-2.74,5.23l-2.66,4.93h-8.78l10.63-14.78-4.93-14.1h7.71l1.33,4.71c.47,1.8.81,3.09,1.29,4.97h.13c1.16-2.19,1.8-3.51,2.66-5.1l2.44-4.59h8.7l-10.29,14.18,5.4,14.7h-7.8Z"/><path class="cls-5" d="m192.87,88.88l2.23-11.66-5.7-17.23h7.84l1.41,6.47c.47,2.36.77,3.77,1.07,5.4h.09c.9-1.71,1.76-3.3,2.87-5.4l3.56-6.47h8.74l-12.56,17.01-2.23,11.87h-7.33Z"/><path class="cls-5" d="m235.38,87.51c-2.44.77-6.13,1.67-9.86,1.67s-7.24-.99-9.73-3c-2.36-1.89-3.94-5.1-3.94-9.08,0-5.7,2.31-10.2,6-13.24,3.34-2.7,7.97-4.16,13.16-4.16,3.81,0,6.77.69,7.97,1.29l-2.1,6.13c-1.24-.51-3.6-1.16-6.17-1.16s-4.93.64-6.64,1.8c-2.44,1.76-4.16,4.84-4.16,8.83,0,4.54,2.91,6.38,6.64,6.38,1.33,0,2.06-.13,2.61-.34l.99-4.97h-3.9l1.16-5.83h10.97l-3,15.68Z"/><polygon class="cls-5" points="259.85 77.23 249.7 77.23 248.67 82.67 260.07 82.67 258.91 88.88 240.18 88.88 245.63 60 263.75 60 262.55 66.21 251.8 66.21 250.85 71.06 261.05 71.06 259.85 77.23"/><path class="cls-5" d="m263.24,88.88l5.44-28.88h8.7l2.61,8.7c1.11,3.86,1.93,7.16,2.66,10.67h.13c.13-3.13.56-6.64,1.37-10.93l1.59-8.44h6.81l-5.49,28.88h-7.63l-2.91-9.43c-1.2-4.07-2.06-6.94-2.87-10.84h-.17c-.3,2.87-1.07,7.5-1.97,12.3l-1.5,7.97h-6.77Z"/></g></g></g></svg>