<?xml version="1.0" encoding="UTF-8"?><svg id="Layer_1" xmlns="http://www.w3.org/2000/svg" xmlns:xlink="http://www.w3.org/1999/xlink" viewBox="0 0 186 314.5"><defs><style>.cls-1,.cls-2,.cls-3,.cls-4,.cls-5,.cls-6,.cls-7,.cls-8,.cls-9,.cls-10,.cls-11{fill:none;}.cls-2{clip-path:url(#clippath-7);}.cls-3{clip-path:url(#clippath-6);}.cls-4{clip-path:url(#clippath-5);}.cls-5{clip-path:url(#clippath-3);}.cls-6{clip-path:url(#clippath-4);}.cls-7{clip-path:url(#clippath-2);}.cls-8{clip-path:url(#clippath-1);}.cls-12{fill:#0067a3;}.cls-13{fill:#ee3338;}.cls-14{fill:#fff;}.cls-15{fill:#f5d027;}.cls-16{fill:#1c5493;}.cls-17{fill:#373535;}.cls-9{stroke:#1c5493;stroke-width:2.55px;}.cls-9,.cls-10{stroke-miterlimit:10;}.cls-10{stroke:#373535;stroke-width:.31px;}.cls-11{clip-path:url(#clippath);}</style><clipPath id="clippath"><rect class="cls-1" x="21" y="43" width="141.13" height="41.73"/></clipPath><clipPath id="clippath-1"><rect class="cls-1" x="21" y="43" width="141.13" height="41.73"/></clipPath><clipPath id="clippath-2"><rect class="cls-1" x="28.31" y="50.89" width="129.41" height="28.86"/></clipPath><clipPath id="clippath-3"><rect class="cls-1" x="21" y="115" width="141.13" height="48.17"/></clipPath><clipPath id="clippath-4"><rect class="cls-1" x="21" y="115" width="141.13" height="48.17"/></clipPath><clipPath id="clippath-5"><rect class="cls-1" x="21" y="115" width="141.13" height="48.17"/></clipPath><clipPath id="clippath-6"><rect class="cls-1" x="23" y="184" width="139.1" height="95.63"/></clipPath><clipPath id="clippath-7"><rect class="cls-1" x="23" y="184" width="139.1" height="95.63"/></clipPath></defs><g id="Artwork_5"><g class="cls-11"><rect class="cls-14" x="21.15" y="43.15" width="140.82" height="41.42"/><g class="cls-8"><rect class="cls-10" x="21.15" y="43.15" width="140.82" height="41.42"/></g><g class="cls-7"><path class="cls-14" d="m76.94,52.78v24.24c24.24-4.04,48.48-8.08,72.72-12.12-24.24-4.04-48.48-8.08-72.72-12.12"/><path class="cls-9" d="m76.94,52.78v24.24c24.24-4.04,48.48-8.08,72.72-12.12-24.24-4.04-48.48-8.08-72.72-12.12Z"/><path class="cls-13" d="m96.29,64.9c0,1.1-.45,2.1-1.19,2.82-.72.73-1.72,1.19-2.82,1.19s-2.1-.45-2.82-1.19c-.73-.72-1.19-1.72-1.19-2.82s.45-2.1,1.19-2.82c.72-.73,1.72-1.19,2.82-1.19s2.1.45,2.82,1.19c.73.72,1.19,1.72,1.19,2.82m18.68,1.33v-2.67h-16.19c-.62-3.05-3.29-5.34-6.5-5.34s-5.89,2.29-6.5,5.34h-2.66v-5.34h-2.65v13.37h2.65v-5.35h2.66c.61,3.05,3.29,5.35,6.5,5.35s5.89-2.3,6.5-5.35h16.19Z"/><path class="cls-16" d="m71.15,66.61h-1.78v7.82l-3.65-7.82h-1.7v11.87h1.78v-7.66l3.66,7.66h1.68v-11.87Zm-13.99,8.02c.58-3.14,1.1-5.32,1.1-5.32,0,0,.53,2.19,1.1,5.32h-2.2Zm-.75,3.85s.15-.86.42-2.14h2.85c.25,1.27.42,2.14.42,2.14h1.97s-.54-2.44-1.34-5.88c-.75-3.22-1.54-5.99-1.54-5.99h-1.85s-.81,2.76-1.56,5.99c-.8,3.44-1.32,5.88-1.32,5.88h1.95Zm-9.17-11.87v11.87h5.83v-1.78h-4.04v-2.81h3.8v-1.8h-3.8v-3.7h4.04v-1.78h-5.83Zm-8.97,5.82c0,4,1.97,6.1,3.92,6.1,1.24,0,2.65-1.1,3.36-3.04l-1.68-1c-.34,1.48-1.03,2.26-1.66,2.26-1.03,0-2.05-1.48-2.05-4.34,0-2.36,1.07-4,2.02-4,.61,0,1.15.51,1.53,1.71l1.66-.86c-.71-1.83-2.03-2.71-3.19-2.71-2.03,0-3.9,2.51-3.9,5.88m-3.41.17c0,2.27-.88,4.15-2.09,4.15s-2.09-1.9-2.09-4.15.93-4.19,2.09-4.19,2.09,1.88,2.09,4.19m-2.09-6.05c-2.24,0-3.97,2.7-3.97,6.02s1.68,5.97,3.97,5.97,3.97-2.59,3.97-5.97-1.75-6.02-3.97-6.02"/><path class="cls-13" d="m71.78,52.54c-.83-1.03-1.8-1.46-2.81-1.46-1.8,0-3.15,1.41-3.15,3.09,0,1.24.66,2.26,2.43,3.51,1.32.97,1.78,1.61,1.78,2.27,0,.8-.61,1.48-1.42,1.48-.61,0-1.17-.34-1.59-1.12l-1.53,1.29c.83,1.05,1.93,1.59,3.14,1.59,1.76,0,3.31-1.42,3.31-3.24,0-1.49-.71-2.49-2.66-3.85-1.24-.85-1.59-1.32-1.59-1.98,0-.76.63-1.25,1.32-1.25.51,0,.95.31,1.34.85l1.46-1.17Zm-8.77-1.36h-1.78v7.82l-3.65-7.82h-1.7v11.87h1.78v-7.66l3.66,7.66h1.68v-11.87Zm-14.5,8.02c.58-3.14,1.1-5.32,1.1-5.32,0,0,.53,2.19,1.1,5.32h-2.2Zm-.75,3.85s.15-.86.42-2.14h2.85c.25,1.27.42,2.14.42,2.14h1.97s-.54-2.44-1.34-5.88c-.75-3.22-1.54-5.99-1.54-5.99h-1.85s-.81,2.76-1.56,5.99c-.8,3.44-1.32,5.88-1.32,5.88h1.95Zm-5.58-7.72c0,1.59-1,2.61-2.98,2.61h-.1v-5.02c.1-.02.25-.02.36-.02,1.73,0,2.73,1.24,2.73,2.43m-3.09,4.36c.51,0,.98-.05,1.41-.19l1.46,3.54h2.07l-1.87-4.15c1.17-.76,1.83-2.1,1.83-3.48,0-2.75-2.2-4.32-4.93-4.32-.71,0-1.39.08-1.76.17v11.79h1.8v-3.36Zm-10.63-8.51v1.78h2.44v10.09h1.83v-10.09h2.44v-1.78h-6.71Z"/></g></g></g><g id="Artwork_7"><g class="cls-5"><g class="cls-6"><path class="cls-12" d="m96.42,115.91c-6.45-1.99-12.21-.37-12.68,1.59-.73,3.14,4,5.18,6.73,6.09.41-1.2.82-2.29,1.23-3.25-1.96-.62-5.19-1.89-4.73-3.49.43-1.5,4.05-1.49,6.57-1.06.2.04.4.08.6.13,8.77,2.1,13.58,10.68,11.47,19.41-2.11,8.74-10.33,14.11-19.1,12.01-.38-.09-1.21-.34-1.25-.35,0,.03-.02.16.04.2.86.36,1.37.56,2.58.84,8.93,2.11,18.03-3.46,20.17-12.34,2.1-8.67-3.09-17.39-11.64-19.79"/></g><g class="cls-4"><path class="cls-12" d="m88.45,130.57c.3-1.22.61-2.39.93-3.51-6.53-2.39-8.1-5.3-8.3-7.15-.14-1.35.95-2.47.95-2.47-1.52,1.02-2.85,2.05-3.01,2.98-.94,5.52,5.69,8.8,9.43,10.16"/><path class="cls-12" d="m87.61,134.23c-6.81-2.59-9.63-5.93-10.62-9.13-.52-1.69.09-3.17.09-3.17-1.21,1.77-1.81,3.61-1.81,3.61-.11.36-.1,1.79.26,2.82,1.69,4.91,7.27,8.01,11.45,9.53.17-1.11.38-2.45.63-3.66"/><path class="cls-17" d="m39.38,145.3c0-3.03,2.31-5,4.92-5,2.83,0,4.92,2.23,4.92,4.93s-2.08,4.93-4.93,4.93-4.91-2.3-4.91-4.84h0Zm2.17-.07c0,1.57,1.12,2.95,2.77,2.95s2.74-1.52,2.74-2.94-1.01-2.95-2.75-2.95-2.76,1.42-2.76,2.93h0Z"/><path class="cls-17" d="m25.48,144.79h3.9v4.81c-1.12.27-2.06.39-3.09.39-1.58,0-2.76-.34-3.69-1.03-1.04-.8-1.59-2.05-1.59-3.57,0-2.98,2.15-4.93,5.4-4.93,1.04,0,1.91.17,2.95.58v1.99c-.92-.51-1.72-.71-2.75-.71-2.06,0-3.34,1.17-3.34,3.04s1.1,2.83,2.97,2.83c.36,0,.72-.02,1.07-.08v-1.51h-1.83v-1.83Z"/><polygon class="cls-17" points="31.81 140.64 37.73 140.64 37.73 142.47 33.98 142.47 33.98 144.24 37.63 144.24 37.63 146.07 33.98 146.07 33.98 148.04 37.81 148.04 37.81 149.86 31.81 149.86 31.81 140.64"/><path class="cls-17" d="m73.91,140.68h.21c.83-.08,1.81-.11,2.51-.11,1.39,0,2.24.18,2.91.67.72.49,1.14,1.33,1.14,2.29,0,1.19-.53,1.99-1.68,2.53.26.38.48.7.86,1.19.71.95,1.5,1.94,2.01,2.51l.12.13s-2.27.47-3.08-.57c-.85-1.07-1.34-1.84-1.89-2.73l-.11-.17h-.34c-.09,0-.23,0-.4,0h-.18v3.46h-2.08v-9.18Zm2.08,4.08c.24.05.4.05.58.05,1.41,0,1.97-.35,1.97-1.24s-.57-1.29-1.71-1.29c-.18,0-.39,0-.6-.02l-.23.02v2.48Z"/><path class="cls-17" d="m62.12,149.4c-.07-1.37-.1-2.07-.17-3.13-.04-.56-.08-1.14-.13-1.75-.04-.62-.06-.96-.1-1.35l-.19-2.22-.04-.35h-2.34c-.63,0-.79.15-1.09.97-.41,1.11-1.03,3.53-1.29,4.51l-.41,1.71-.41-1.71c-.26-.98-.88-3.4-1.3-4.51-.3-.83-.47-.97-1.09-.97h-2.34l-.04.35-.19,2.22c-.04.39-.06.72-.1,1.35-.05.61-.09,1.19-.13,1.75-.06,1.06-.1,1.76-.17,3.13l-.03.46h2.01v-.24c.05-1.12.09-2.05.19-3.71.09-1.77.11-2.59.11-3.25,0-.26,0-.36,0-.43.09.29.18.55.26.84.08.28.18.61.21.7l.39,1.24c.16.51.32,1.06.62,2.06.26.87.51,1.74.7,2.41l.1.38h2.41l.1-.38c.2-.67.44-1.54.7-2.41.3-1,.47-1.56.62-2.06l.39-1.24c.03-.09.13-.42.2-.7.08-.29.18-.55.27-.84,0,.07,0,.17,0,.43,0,.67.02,1.48.12,3.25.09,1.67.13,2.6.17,3.71v.24h2.02l-.02-.46Z"/><path class="cls-17" d="m72.63,149.47c-.41-1.2-1.01-2.69-1.73-4.45-.33-.75-.61-1.44-.9-2.08-.09-.22-.18-.44-.53-1.2l-.18-.42-.18-.4-.15-.31h-1.96l-.15.31-.18.4-.18.42c-.35.76-.44.98-.53,1.2-.29.64-.57,1.32-.89,2.08-.72,1.76-1.32,3.26-1.74,4.45l-.14.39h2.23l.06-.23c.2-.61.41-1.19.69-1.98l.08-.24h3.47l.08.24c.27.79.48,1.37.69,1.98l.06.23h2.22l-.14-.39Zm-4.65-3.78h-1.09l.13-.37s.77-2.13.96-2.79c.18.65.96,2.79.96,2.79l.13.37h-1.09Z"/><path class="cls-12" d="m22.53,158.56h2.25v-2.13c0-.08.03-.12.11-.12h.33c.08,0,.11.04.11.12v5.03c0,.08-.03.12-.11.12h-.33c-.08,0-.11-.04-.11-.12v-2.44h-2.25v2.44c0,.08-.02.12-.11.12h-.33c-.08,0-.11-.04-.11-.12v-5.03c0-.08.03-.12.11-.12h.33c.08,0,.11.04.11.12v2.13Z"/><path class="cls-12" d="m29.38,159.64c0,.07-.03.11-.11.11h-2.19v.86c0,.35.18.6.9.6s.89-.24.89-.6v-.13c0-.08.03-.11.11-.11h.28c.08,0,.12.03.12.11v.16c0,.6-.35,1-1.42,1s-1.41-.4-1.41-1v-1.95c0-.59.35-1,1.42-1s1.4.4,1.4,1v.95Zm-2.3-.3h1.79v-.62c0-.35-.21-.6-.89-.6s-.9.25-.9.6v.62Z"/><rect class="cls-12" x="30.45" y="156.16" width=".53" height="5.41" rx=".12" ry=".12"/><path class="cls-12" d="m32.61,157.75c.09,0,.11.04.12.12v.29c.22-.18.64-.46,1.29-.46.52,0,.85.21.98.52.19-.16.61-.52,1.36-.52s1.07.4,1.07.95v2.82c0,.08-.04.12-.12.12h-.31c-.08,0-.12-.04-.12-.12v-2.7c0-.35-.18-.59-.68-.59-.6,0-.98.31-1.13.45,0,.04,0,.09,0,.14v2.7c0,.08-.03.12-.11.12h-.31c-.08,0-.12-.04-.12-.12v-2.7c0-.35-.18-.59-.68-.59-.57,0-.96.3-1.12.44v2.85c0,.08-.03.12-.11.12h-.31c-.08,0-.12-.04-.12-.12v-3.59c0-.08.03-.12.12-.12h.28Z"/><path class="cls-12" d="m39.14,158.15c.22-.18.67-.46,1.32-.46.72,0,1.06.4,1.06.95v2.82c0,.08-.03.12-.11.12h-.31c-.08,0-.12-.04-.12-.12v-2.7c0-.35-.18-.59-.68-.59-.57,0-.99.3-1.17.44v2.85c0,.08-.03.12-.11.12h-.31c-.09,0-.12-.04-.12-.12v-5.18c0-.08.03-.12.12-.12h.31c.08,0,.11.04.11.12v1.87Z"/><path class="cls-12" d="m42.62,158.69c0-.59.39-1,1.45-1s1.46.4,1.46,1v1.95c0,.6-.4,1-1.46,1s-1.45-.4-1.45-1v-1.95Zm2.38.04c0-.36-.24-.59-.93-.59s-.92.23-.92.59v1.87c0,.36.24.6.92.6s.93-.23.93-.6v-1.87Z"/><path class="cls-12" d="m47.21,161.46c0,.08-.03.12-.11.12h-.31c-.09,0-.12-.04-.12-.12v-5.18c0-.08.03-.12.12-.12h.31c.08,0,.11.04.11.12v5.18Z"/><path class="cls-12" d="m50.01,157.77c.08,0,.12.03.12.11v.22c0,.07-.04.11-.12.11h-.87v2.32c0,.36.21.59.9.59h.13c.08,0,.12.03.12.12v.22c0,.09-.04.12-.12.12h-.2c-1.06,0-1.37-.37-1.37-1v-2.37h-.47c-.07,0-.11-.04-.11-.11v-.19c0-.08.03-.11.11-.12l.4-.02h.06v-.82c0-.08.04-.12.12-.12h.32c.08,0,.11.04.11.12v.82h.87Z"/><path class="cls-12" d="m53.41,157.75c.09,0,.12.03.12.11v.21s0,.07-.02.09l-1.97,2.96h1.99c.08,0,.12.03.12.12v.21c0,.09-.04.12-.12.12h-2.53c-.08,0-.12-.03-.12-.12v-.21s.01-.07.03-.1l1.96-2.95h-1.77c-.07,0-.11-.03-.11-.12v-.22c0-.08.04-.11.11-.11h2.32Z"/><path class="cls-12" d="m56.47,159.12c.08,0,.12.03.12.11v.22c0,.09-.04.12-.12.12h-2.07c-.08,0-.12-.03-.12-.12v-.22c0-.08.04-.11.12-.11h2.07Z"/><path class="cls-12" d="m60.09,156.31c.08,0,.12.03.12.12v.24s0,.06-.02.08l-2.38,4.35h2.41c.08,0,.12.03.12.11v.25c0,.09-.04.12-.12.12h-2.96c-.08,0-.11-.03-.11-.12v-.25s0-.05.01-.08l2.38-4.35h-2.14c-.08,0-.12-.03-.12-.12v-.24c0-.08.04-.12.12-.12h2.7Z"/><path class="cls-12" d="m63.93,159.64c0,.07-.03.11-.11.11h-2.19v.86c0,.35.19.6.9.6s.9-.24.9-.6v-.13c0-.08.03-.11.11-.11h.28c.07,0,.11.03.11.11v.16c0,.6-.35,1-1.41,1s-1.41-.4-1.41-1v-1.95c0-.59.35-1,1.42-1s1.4.4,1.4,1v.95Zm-2.3-.3h1.8v-.62c0-.35-.22-.6-.9-.6s-.9.25-.9.6v.62Z"/><path class="cls-12" d="m65.51,157.87v.3c.23-.18.68-.47,1.34-.47.72,0,1.07.4,1.07.95v2.82c0,.08-.03.12-.11.12h-.31c-.08,0-.12-.04-.12-.12v-2.7c0-.35-.18-.59-.68-.59-.57,0-.99.3-1.17.44v2.85c0,.08-.03.12-.11.12h-.31c-.09,0-.12-.04-.12-.12v-3.59c0-.08.03-.12.12-.12h.28c.09,0,.11.04.12.12"/><path class="cls-12" d="m70.66,157.77c.08,0,.12.03.12.11v.22c0,.07-.04.11-.12.11h-.87v2.32c0,.36.21.59.89.59h.14c.08,0,.11.03.11.12v.22c0,.09-.03.12-.11.12h-.2c-1.06,0-1.37-.37-1.37-1v-2.37h-.46c-.08,0-.11-.04-.11-.11v-.19c0-.08.03-.11.11-.12l.4-.02h.06v-.82c0-.08.04-.12.12-.12h.32c.07,0,.11.04.11.12v.82h.87Z"/><path class="cls-12" d="m73.69,157.81v.25c0,.08-.04.11-.12.12-.57.01-1.08.36-1.26.52v2.76c0,.08-.03.12-.11.12h-.31c-.08,0-.12-.04-.12-.12v-3.59c0-.08.03-.12.12-.12h.28c.09,0,.11.04.12.12l.02.38c.22-.2.69-.55,1.26-.55.08,0,.12.04.12.12"/><path class="cls-12" d="m76.74,161.18c-.21.18-.62.46-1.27.46-.72,0-1.07-.39-1.07-.94v-2.83c0-.08.03-.12.11-.12h.32c.08,0,.11.04.11.12v2.7c0,.35.19.59.69.59.57,0,.95-.29,1.12-.43v-2.86c0-.08.03-.12.11-.12h.32c.08,0,.11.04.11.12v3.59c0,.09-.03.12-.11.12h-.29c-.08,0-.11-.03-.12-.12v-.28Z"/><path class="cls-12" d="m78.89,157.75c.09,0,.11.04.12.12v.29c.21-.18.63-.46,1.29-.46.52,0,.84.21.98.52.19-.16.61-.52,1.36-.52s1.07.4,1.07.95v2.82c0,.08-.04.12-.12.12h-.31c-.07,0-.11-.04-.11-.12v-2.7c0-.35-.19-.59-.69-.59-.59,0-.98.31-1.13.45,0,.04,0,.09,0,.14v2.7c0,.08-.03.12-.11.12h-.31c-.08,0-.12-.04-.12-.12v-2.7c0-.35-.18-.59-.68-.59-.57,0-.96.3-1.12.44v2.85c0,.08-.03.12-.11.12h-.31c-.09,0-.12-.04-.12-.12v-3.59c0-.08.03-.12.12-.12h.28Z"/><path class="cls-12" d="m86.81,157.77v-.67c0-.59.39-.99,1.45-.99h.04c.08,0,.12.03.12.11v.23c0,.08-.04.12-.12.12h-.04c-.69,0-.91.23-.91.59v.61h.85c.08,0,.12.03.12.11v.22c0,.07-.04.11-.12.11h-.85v3.25c0,.08-.03.12-.11.12h-.31c-.08,0-.12-.04-.12-.12v-3.25h-.48c-.08,0-.11-.04-.11-.11v-.19c0-.08.03-.11.11-.12l.42-.02h.06Z"/><path class="cls-12" d="m91.41,161.18c-.21.18-.62.46-1.27.46-.72,0-1.08-.39-1.08-.94v-2.83c0-.08.03-.12.11-.12h.32c.08,0,.11.04.11.12v2.7c0,.35.19.59.69.59.56,0,.94-.29,1.11-.43v-2.86c0-.08.03-.12.11-.12h.32c.08,0,.11.04.11.12v3.59c0,.09-.03.12-.11.12h-.29c-.09,0-.11-.03-.12-.12v-.28Zm-1.09-4.18c0,.08-.03.12-.11.12h-.23c-.08,0-.11-.04-.11-.12v-.73c0-.08.03-.11.11-.11h.23c.08,0,.11.03.11.11v.73Zm.85,0c0,.08-.03.12-.11.12h-.23c-.08,0-.11-.04-.11-.12v-.73c0-.08.03-.11.11-.11h.23c.08,0,.11.03.11.11v.73Z"/><path class="cls-12" d="m95.09,157.81v.25c0,.08-.05.11-.13.12-.57.01-1.07.36-1.26.52v2.76c0,.08-.03.12-.11.12h-.31c-.09,0-.12-.04-.12-.12v-3.59c0-.08.03-.12.12-.12h.28c.09,0,.11.04.12.12l.02.38c.21-.2.69-.55,1.26-.55.08,0,.13.04.13.12"/><path class="cls-12" d="m97.57,157.38c0-.62.4-1.13,1.67-1.13s1.68.51,1.68,1.13v3.13c0,.62-.39,1.13-1.68,1.13s-1.67-.51-1.67-1.13v-3.13Zm2.81.09c0-.45-.31-.74-1.13-.74s-1.12.29-1.12.74v2.96c0,.45.31.74,1.12.74s1.13-.3,1.13-.74v-2.96Z"/><path class="cls-12" d="m104.44,157.75c.08,0,.11.03.11.11v.21s0,.07-.02.09l-1.97,2.96h1.99c.08,0,.12.03.12.12v.21c0,.09-.04.12-.12.12h-2.53c-.08,0-.12-.03-.12-.12v-.21s.01-.07.03-.1l1.95-2.95h-1.77c-.08,0-.12-.03-.12-.12v-.22c0-.08.04-.11.12-.11h2.32Z"/><path class="cls-12" d="m108.34,159.64c0,.07-.03.11-.11.11h-2.19v.86c0,.35.18.6.89.6s.9-.24.9-.6v-.13c0-.08.03-.11.11-.11h.28c.08,0,.12.03.12.11v.16c0,.6-.35,1-1.41,1s-1.41-.4-1.41-1v-1.95c0-.59.35-1,1.42-1s1.4.4,1.4,1v.95Zm-2.3-.3h1.79v-.62c0-.35-.22-.6-.9-.6s-.89.25-.89.6v.62Z"/><path class="cls-12" d="m109.36,158.67c0-.58.35-.98,1.39-.98s1.4.4,1.4.98v2.79c0,.08-.03.12-.11.12h-.28c-.08,0-.1-.04-.12-.12v-.28c-.24.18-.67.46-1.29.46-.72,0-1.07-.41-1.07-.91v-.39c0-.5.33-.91,1.01-.91h1.33v-.7c0-.35-.19-.59-.88-.59s-.88.23-.88.58v.09c0,.09-.03.12-.12.12h-.28c-.08,0-.11-.03-.11-.12v-.13Zm2.26,2.08v-.9h-1.24c-.41,0-.59.22-.59.56v.25c0,.34.21.53.68.53.56,0,.97-.29,1.15-.43"/><path class="cls-12" d="m113.83,157.87v.3c.23-.18.68-.47,1.34-.47.72,0,1.07.4,1.07.95v2.82c0,.08-.03.12-.11.12h-.31c-.08,0-.12-.04-.12-.12v-2.7c0-.35-.18-.59-.68-.59-.57,0-.99.3-1.17.44v2.85c0,.08-.03.12-.11.12h-.31c-.09,0-.12-.04-.12-.12v-3.59c0-.08.03-.12.12-.12h.28c.08,0,.11.04.12.12"/><path class="cls-12" d="m117.61,157.77v-.67c0-.59.38-.99,1.44-.99h.05c.08,0,.12.03.12.11v.23c0,.08-.04.12-.12.12h-.05c-.69,0-.9.23-.9.59v.61h.85c.07,0,.11.03.11.11v.22c0,.07-.04.11-.11.11h-.85v3.25c0,.08-.03.12-.12.12h-.31c-.07,0-.11-.04-.11-.12v-3.25h-.48c-.08,0-.11-.04-.11-.11v-.19c0-.08.03-.11.11-.12l.42-.02h.06Z"/><path class="cls-12" d="m119.76,158.69c0-.59.39-1,1.45-1s1.46.4,1.46,1v1.95c0,.6-.4,1-1.46,1s-1.45-.4-1.45-1v-1.95Zm2.38.04c0-.36-.24-.59-.93-.59s-.92.23-.92.59v1.87c0,.36.24.6.92.6s.93-.23.93-.6v-1.87Z"/><path class="cls-12" d="m125.73,157.81v.25c0,.08-.05.11-.12.12-.57.01-1.08.36-1.26.52v2.76c0,.08-.03.12-.11.12h-.31c-.09,0-.12-.04-.12-.12v-3.59c0-.08.03-.12.12-.12h.28c.09,0,.11.04.12.12l.02.38c.22-.2.69-.55,1.26-.55.07,0,.12.04.12.12"/><path class="cls-12" d="m128.52,158.57c0-.3-.28-.48-.86-.48s-.84.18-.84.48v.2c0,.24.22.38.39.42l1.19.39c.39.13.67.37.67.73v.44c0,.46-.42.88-1.41.88s-1.4-.41-1.4-.88v-.21c0-.07.03-.11.11-.11h.29c.08,0,.1.03.1.11v.18c0,.31.31.49.9.49s.91-.18.91-.49v-.29c0-.23-.19-.35-.46-.43l-1.19-.39c-.27-.09-.6-.36-.6-.75v-.3c0-.46.35-.88,1.34-.88s1.35.42,1.35.88v.22c0,.07-.03.1-.11.1h-.29c-.07,0-.1-.03-.1-.1v-.22Z"/><path class="cls-12" d="m132.78,158.69v.15c0,.08-.03.12-.12.12h-.29c-.09,0-.12-.04-.12-.12v-.11c0-.36-.19-.59-.88-.59s-.88.23-.88.59v1.88c0,.36.19.6.88.6s.88-.23.88-.6v-.17c0-.08.03-.12.12-.12h.29c.08,0,.12.03.12.12v.21c0,.6-.36,1-1.42,1s-1.4-.4-1.4-1v-1.95c0-.59.35-1,1.41-1s1.41.4,1.41,1"/><path class="cls-12" d="m134.29,158.15c.22-.18.67-.46,1.31-.46.72,0,1.07.4,1.07.95v2.82c0,.08-.03.12-.11.12h-.31c-.08,0-.12-.04-.12-.12v-2.7c0-.35-.18-.59-.68-.59-.57,0-.99.3-1.17.44v2.85c0,.08-.03.12-.11.12h-.31c-.09,0-.12-.04-.12-.12v-5.18c0-.08.03-.12.12-.12h.31c.07,0,.11.04.11.12v1.87Z"/><path class="cls-12" d="m140.14,161.18c-.21.18-.62.46-1.27.46-.72,0-1.08-.39-1.08-.94v-2.83c0-.08.03-.12.11-.12h.32c.08,0,.11.04.11.12v2.7c0,.35.19.59.69.59.56,0,.94-.29,1.11-.43v-2.86c0-.08.03-.12.11-.12h.32c.08,0,.11.04.11.12v3.59c0,.09-.03.12-.11.12h-.29c-.09,0-.11-.03-.12-.12v-.28Z"/><path class="cls-12" d="m142.41,157.87v.3c.23-.18.68-.47,1.34-.47.72,0,1.07.4,1.07.95v2.82c0,.08-.03.12-.11.12h-.31c-.08,0-.12-.04-.12-.12v-2.7c0-.35-.18-.59-.68-.59-.57,0-.99.3-1.17.44v2.85c0,.08-.03.12-.11.12h-.31c-.08,0-.12-.04-.12-.12v-3.59c0-.08.03-.12.12-.12h.28c.08,0,.11.04.12.12"/><path class="cls-12" d="m145.9,160.65v-1.96c0-.59.33-.99,1.07-.99.65,0,1.1.29,1.32.47v-.3c.02-.08.04-.12.13-.12h.28c.09,0,.12.04.12.12v4.31c0,.59-.38,1-1.44,1h-1.05c-.08,0-.12-.03-.12-.11v-.23c0-.08.04-.11.12-.11h1.05c.69,0,.91-.24.91-.6v-.94c-.23.17-.67.45-1.31.45-.74,0-1.07-.4-1.07-.99m.53-.08c0,.32.19.58.68.58.57,0,.99-.3,1.17-.43v-2.1c-.17-.14-.59-.44-1.17-.44-.5,0-.68.26-.68.58v1.81Z"/><path class="cls-12" d="m155.26,161.46c.04.06.01.12-.06.12h-.43c-.08,0-.13-.05-.18-.12l-1.94-2.3h-.24v2.3c0,.08-.02.12-.11.12h-.32c-.09,0-.12-.04-.12-.12v-5.03c0-.08.03-.12.12-.12h.32c.09,0,.11.04.11.12v2.31h.24l1.79-2.31c.05-.05.11-.11.19-.11h.35c.08,0,.1.05.05.12l-1.93,2.48,2.14,2.55Z"/><path class="cls-12" d="m156.56,157c0,.08-.03.12-.11.12h-.31c-.09,0-.12-.04-.12-.12v-.72c0-.08.03-.12.12-.12h.31c.07,0,.11.04.11.12v.72Zm0,4.46c0,.08-.03.12-.11.12h-.31c-.09,0-.12-.04-.12-.12v-3.59c0-.08.03-.12.12-.12h.31c.07,0,.11.04.11.12v3.59Z"/><path class="cls-12" d="m160.53,159.64c0,.07-.03.11-.11.11h-2.19v.86c0,.35.18.6.89.6s.9-.24.9-.6v-.13c0-.08.03-.11.11-.11h.28c.08,0,.12.03.12.11v.16c0,.6-.35,1-1.42,1s-1.41-.4-1.41-1v-1.95c0-.59.36-1,1.42-1s1.41.4,1.41,1v.95Zm-2.3-.3h1.79v-.62c0-.35-.22-.6-.9-.6s-.89.25-.89.6v.62Z"/><path class="cls-12" d="m162.13,161.46c0,.08-.03.12-.11.12h-.31c-.09,0-.12-.04-.12-.12v-5.18c0-.08.03-.12.12-.12h.31c.07,0,.11.04.11.12v5.18Z"/></g></g></g><rect class="cls-14" x="18.5" y="41.5" width="4" height="43"/><rect class="cls-14" x="160" y="42" width="4" height="43"/><rect class="cls-14" x="21" y="83" width="139" height="5"/><rect class="cls-14" x="22" y="42" width="139" height="5"/><g id="Artwork_8"><g class="cls-3"><rect class="cls-14" x="23" y="184" width="139.1" height="95.63"/><g class="cls-2"><path class="cls-17" d="m70.57,213.61c0,.22-.03.41-.08.57-.05.16-.13.3-.22.42-.09.12-.2.21-.33.29-.12.07-.25.13-.39.16v.02c.16.03.32.09.46.17s.27.19.37.32c.11.13.19.28.26.45.06.17.1.36.1.57,0,.25-.04.48-.13.68-.08.21-.22.39-.4.54-.18.15-.4.27-.68.36s-.6.13-.98.13h-1.29v-6.29h1.21c.37,0,.69.04.95.11.26.08.48.18.65.32.17.14.29.31.37.51.08.2.11.42.11.66m-.8.03c0-.29-.1-.53-.31-.72-.21-.19-.53-.28-.98-.28h-.42v2.17h.41c.43,0,.75-.1.97-.31.22-.21.33-.49.33-.86m.12,2.9c0-.34-.11-.61-.33-.81-.22-.2-.54-.3-.95-.3h-.54v2.21h.49c.47,0,.81-.09,1.02-.28.21-.19.31-.46.31-.83m4.89,1.76h-.68v-.49h-.02s-.06.09-.12.16c-.06.07-.14.14-.23.2-.09.06-.21.12-.34.17-.13.05-.28.07-.45.07-.19,0-.37-.03-.52-.09-.16-.06-.29-.15-.4-.28-.11-.13-.19-.29-.25-.5-.06-.2-.09-.45-.09-.75v-2.87h.74v2.82c0,.36.06.63.18.78.12.16.3.23.55.23.21,0,.39-.05.54-.16.15-.11.26-.21.35-.31v-3.35h.74v4.38Zm3.52,0v-2.82c0-.37-.06-.64-.19-.8s-.31-.24-.57-.24c-.22,0-.4.06-.55.16-.15.11-.26.22-.35.32v3.37h-.74v-4.38h.67v.49h.02s.06-.09.12-.16c.06-.07.14-.14.24-.2.1-.06.21-.12.35-.17.13-.05.29-.07.46-.07.19,0,.37.03.53.09.16.06.29.15.4.28.11.13.19.29.25.5.06.2.09.45.09.75v2.87h-.74Zm1.64-2.12c0-.44.06-.82.17-1.11.12-.3.26-.54.45-.72.18-.18.39-.31.62-.39.23-.08.46-.11.69-.11.14,0,.26.01.36.03.1.02.19.05.25.08v-2.1l.74-.08v6.53h-.67v-.46h-.02s-.05.09-.1.15c-.05.06-.12.13-.2.19-.09.06-.19.12-.32.16-.13.05-.28.07-.45.07-.21,0-.4-.04-.59-.12-.19-.08-.35-.21-.49-.39s-.25-.41-.33-.69c-.08-.28-.12-.62-.12-1.02m1.73,1.58c.11,0,.22-.02.31-.05.09-.03.17-.07.24-.11.07-.05.12-.09.17-.14.04-.05.08-.09.1-.13v-2.7c-.07-.04-.14-.08-.23-.11-.09-.03-.2-.05-.33-.05-.17,0-.33.03-.48.09-.15.06-.28.15-.39.29-.11.13-.2.31-.26.52-.06.21-.1.47-.1.78s.03.56.08.76c.05.2.12.37.21.49.09.13.2.21.31.27.12.05.24.08.36.08m5.5-2.35c0,.19,0,.35-.02.49-.01.14-.02.26-.04.36h-2.23c.02.52.14.9.33,1.14.2.24.48.36.85.36.13,0,.24-.02.35-.05.1-.03.19-.07.27-.11.08-.04.14-.08.19-.13.05-.04.09-.08.11-.1l.27.52s-.08.07-.14.13c-.06.06-.14.12-.25.17-.1.06-.23.11-.38.15-.15.04-.33.06-.54.06-.27,0-.52-.04-.74-.14-.22-.09-.41-.23-.56-.42-.15-.19-.27-.43-.36-.73-.09-.29-.13-.65-.13-1.06,0-.39.04-.73.13-1.01.09-.28.21-.51.36-.7.15-.18.33-.32.53-.41.2-.09.42-.13.65-.13.42,0,.75.13.98.4s.36.66.36,1.19m-1.39-.98c-.26,0-.47.11-.63.33-.16.22-.25.53-.27.95h1.6s0-.07.01-.13c0-.06,0-.12,0-.19,0-.3-.06-.54-.18-.71-.12-.17-.3-.25-.53-.25m4.26.39c-.05-.05-.14-.13-.26-.22-.13-.1-.29-.14-.5-.14-.19,0-.34.05-.45.14-.1.09-.15.2-.15.33,0,.17.05.3.14.41.09.11.24.22.43.34l.27.16c.3.18.53.37.7.57.17.2.26.47.26.79,0,.35-.12.64-.36.88-.24.24-.59.36-1.03.36-.18,0-.33-.02-.47-.05-.13-.04-.25-.08-.35-.13-.1-.05-.18-.1-.25-.16-.07-.06-.12-.11-.16-.16l.36-.58s.08.08.13.13c.05.05.11.1.19.14.07.05.15.08.25.11.09.03.2.05.32.05.22,0,.39-.05.5-.15.12-.1.18-.22.18-.36,0-.1-.02-.19-.04-.27-.03-.08-.07-.14-.12-.2-.06-.06-.12-.12-.2-.17-.08-.05-.17-.12-.27-.18l-.27-.17c-.27-.18-.49-.36-.64-.56-.16-.19-.23-.44-.23-.75,0-.16.03-.31.1-.45.06-.14.15-.26.27-.36.11-.1.25-.18.4-.24.16-.06.32-.09.5-.09s.32.02.44.05c.12.03.23.08.31.13.09.05.16.1.22.16.06.05.1.09.14.13l-.32.53Zm3.6,3.49v-2.82c0-.36-.05-.62-.16-.77-.1-.16-.27-.24-.5-.24-.12,0-.23.02-.32.05-.09.03-.18.07-.25.11-.07.05-.14.1-.19.15-.05.06-.1.1-.14.15v3.37h-.74v-4.38h.67v.49h.02s.07-.11.14-.18c.06-.07.14-.14.23-.2.09-.06.2-.12.32-.16.12-.04.26-.06.41-.06.5,0,.85.19,1.06.58.04-.06.1-.13.17-.2.07-.07.16-.13.26-.19.1-.06.21-.1.33-.14.12-.04.26-.06.4-.06.89,0,1.33.52,1.33,1.55v2.94h-.74v-2.82c0-.36-.06-.62-.19-.77-.13-.16-.32-.24-.56-.24-.21,0-.38.05-.52.15-.14.1-.25.2-.32.29.01.07.02.14.03.21,0,.08,0,.16,0,.24v2.94h-.74Zm4.88,0h-.74v-4.37h.74v4.37Zm-.37-5.43c-.15,0-.27-.05-.36-.15-.09-.1-.14-.22-.14-.38s.05-.28.14-.37c.09-.1.21-.15.36-.15s.27.05.36.15c.09.1.13.22.13.37s-.05.29-.13.38c-.09.1-.21.15-.36.15m3.88,5.43v-2.82c0-.37-.06-.64-.19-.8-.12-.16-.32-.24-.57-.24-.22,0-.4.06-.55.16-.15.11-.26.22-.35.32v3.37h-.74v-4.38h.67v.49h.02s.06-.09.12-.16c.06-.07.14-.14.24-.2.1-.06.21-.12.35-.17.13-.05.29-.07.46-.07.19,0,.37.03.53.09.16.06.29.15.4.28.11.13.2.29.26.5.06.2.09.45.09.75v2.87h-.74Zm2.58,0h-.74v-4.37h.74v4.37Zm-.37-5.43c-.15,0-.27-.05-.36-.15-.09-.1-.14-.22-.14-.38s.05-.28.14-.37c.09-.1.21-.15.36-.15s.26.05.36.15c.09.1.13.22.13.37s-.04.29-.13.38c-.09.1-.21.15-.36.15m3.38,1.94c-.05-.05-.13-.13-.26-.22-.13-.1-.3-.14-.5-.14s-.34.05-.45.14c-.1.09-.15.2-.15.33,0,.17.05.3.14.41.09.11.24.22.43.34l.27.16c.3.18.53.37.7.57.17.2.26.47.26.79,0,.35-.12.64-.36.88-.24.24-.58.36-1.03.36-.18,0-.33-.02-.46-.05-.13-.04-.25-.08-.35-.13-.1-.05-.18-.1-.25-.16-.07-.06-.12-.11-.16-.16l.36-.58s.08.08.13.13c.05.05.11.1.19.14.07.05.16.08.25.11.09.03.2.05.32.05.22,0,.39-.05.5-.15.12-.1.17-.22.17-.36,0-.1-.01-.19-.04-.27-.03-.08-.07-.14-.12-.2-.06-.06-.12-.12-.2-.17-.08-.05-.17-.12-.27-.18l-.27-.17c-.27-.18-.49-.36-.64-.56-.15-.19-.23-.44-.23-.75,0-.16.03-.31.1-.45.07-.14.15-.26.27-.36.12-.1.25-.18.41-.24.16-.06.32-.09.5-.09s.32.02.44.05c.12.03.23.08.32.13.09.05.16.1.22.16.06.05.11.09.14.13l-.32.53Zm3.17-.28h-.96v2.42c0,.31.04.52.12.63.08.11.21.17.4.17.11,0,.2-.02.28-.05.08-.03.14-.06.17-.08l.1.59s-.1.06-.22.11c-.12.05-.27.08-.46.08-.38,0-.66-.1-.85-.31-.19-.21-.28-.56-.28-1.04v-2.52h-.53v-.49l.53-.11.08-1.22h.66v1.22h1.05l-.09.6Zm3.58.87c0,.19,0,.35-.02.49-.01.14-.02.26-.04.36h-2.23c.02.52.14.9.33,1.14.2.24.48.36.85.36.13,0,.24-.02.35-.05.1-.03.19-.07.27-.11.08-.04.14-.08.19-.13.05-.04.09-.08.11-.1l.27.52s-.08.07-.14.13c-.06.06-.14.12-.25.17-.1.06-.23.11-.38.15-.15.04-.33.06-.54.06-.27,0-.52-.04-.74-.14-.22-.09-.41-.23-.57-.42-.15-.19-.27-.43-.36-.73-.09-.29-.13-.65-.13-1.06,0-.39.04-.73.13-1.01.09-.28.21-.51.36-.7.15-.18.33-.32.53-.41.2-.09.42-.13.65-.13.42,0,.75.13.98.4.24.26.35.66.35,1.19m-1.39-.98c-.26,0-.47.11-.63.33-.16.22-.25.53-.27.95h1.6s.01-.07.01-.13c0-.06,0-.12,0-.19,0-.3-.06-.54-.18-.71-.12-.17-.3-.25-.53-.25m4.29.15s-.06-.03-.12-.04c-.06-.02-.14-.03-.25-.03-.23,0-.41.06-.54.19-.13.12-.22.26-.28.41v3.21h-.74v-4.38h.67v.59h.02c.03-.08.07-.17.12-.25.05-.08.11-.15.18-.22.07-.06.16-.11.26-.15.1-.04.22-.06.36-.06.1,0,.19,0,.25.03.06.02.11.03.15.04l-.09.66Zm1.47,3.73h-.74v-4.37h.74v4.37Zm-.36-5.43c-.15,0-.27-.05-.37-.15-.09-.1-.14-.22-.14-.38s.05-.28.14-.37c.09-.1.21-.15.37-.15.14,0,.26.05.36.15.09.1.14.22.14.37s-.04.29-.14.38c-.09.1-.21.15-.36.15m4.56,5.43h-.67v-.49h-.02s-.06.09-.12.16c-.06.07-.14.14-.23.2-.09.06-.21.12-.34.17-.13.05-.28.07-.45.07-.2,0-.37-.03-.53-.09-.15-.06-.29-.15-.4-.28-.11-.13-.19-.29-.25-.5-.06-.2-.09-.45-.09-.75v-2.87h.74v2.82c0,.36.06.63.18.78.12.16.3.23.55.23.21,0,.39-.05.54-.16.15-.11.26-.21.35-.31v-3.35h.74v4.38Zm3.43,0v-2.82c0-.36-.05-.62-.16-.77-.1-.16-.27-.24-.5-.24-.12,0-.23.02-.33.05-.09.03-.18.07-.25.11-.07.05-.14.1-.19.15-.05.06-.1.1-.14.15v3.37h-.74v-4.38h.67v.49h.02s.08-.11.14-.18c.06-.07.14-.14.23-.2.09-.06.2-.12.32-.16.12-.04.26-.06.41-.06.5,0,.85.19,1.06.58.04-.06.1-.13.17-.2.07-.07.16-.13.25-.19.1-.06.21-.1.33-.14.12-.04.26-.06.4-.06.89,0,1.33.52,1.33,1.55v2.94h-.74v-2.82c0-.36-.06-.62-.19-.77-.13-.16-.32-.24-.57-.24-.21,0-.38.05-.51.15-.14.1-.25.2-.32.29.01.07.02.14.03.21,0,.08,0,.16,0,.24v2.94h-.74Zm-57.41,5.42h-.89v3.77h-.74v-3.77h-.53v-.49l.53-.1v-.87c0-.24.03-.44.1-.61.07-.17.15-.31.26-.42s.24-.19.38-.24c.15-.05.3-.07.46-.07s.29.02.4.06c.11.04.18.08.22.1l-.16.61s-.09-.05-.16-.08c-.07-.03-.15-.04-.25-.04-.18,0-.31.06-.4.16-.09.11-.14.31-.14.6v.78h.98l-.09.6Zm3.79,3.77h-.67v-.49h-.02s-.06.09-.12.16c-.06.07-.14.14-.23.2-.09.06-.21.12-.34.17-.13.05-.28.07-.45.07-.19,0-.37-.03-.52-.09-.15-.06-.29-.15-.4-.28-.11-.13-.19-.29-.25-.5-.06-.2-.09-.45-.09-.75v-2.87h.74v2.82c0,.36.06.62.18.78s.3.23.55.23c.21,0,.39-.05.54-.16.15-.11.26-.21.35-.31v-3.35h.74v4.37Zm-1.81-5.63c0,.14-.04.25-.13.34-.09.08-.19.13-.31.13s-.23-.04-.31-.13c-.08-.09-.13-.2-.13-.34s.04-.25.13-.34.19-.13.31-.13.22.04.31.13.13.2.13.34m1.4,0c0,.14-.04.25-.13.34-.09.08-.19.13-.31.13s-.22-.04-.31-.13c-.09-.09-.13-.2-.13-.34s.04-.25.13-.34.19-.13.31-.13.23.04.31.13c.08.08.13.2.13.34m3.46,1.91s-.06-.03-.12-.05c-.06-.02-.14-.03-.25-.03-.23,0-.41.06-.54.19-.13.13-.22.26-.28.41v3.21h-.74v-4.37h.67v.59h.02c.03-.09.07-.17.12-.25.05-.08.11-.16.18-.22.07-.06.16-.11.26-.15.1-.04.22-.05.36-.05.1,0,.19,0,.25.03.06.02.11.03.15.05l-.09.66Zm5.91-.96c0,.22-.03.41-.08.57-.06.16-.13.31-.22.42-.09.12-.2.21-.33.29-.12.07-.25.13-.39.16v.02c.16.03.32.09.46.17.14.09.27.19.37.32.11.13.19.28.26.45.06.17.1.36.1.57,0,.25-.04.48-.13.68-.09.21-.22.39-.4.54-.18.15-.41.27-.68.36-.27.08-.6.13-.98.13h-1.28v-6.29h1.21c.37,0,.69.04.95.11.26.08.48.18.65.32.17.14.29.31.37.51.08.2.11.42.11.66m-.8.03c0-.29-.1-.53-.31-.72-.21-.19-.53-.28-.98-.28h-.42v2.17h.41c.42,0,.75-.1.97-.31.22-.21.33-.49.33-.86m.12,2.9c0-.34-.11-.61-.33-.81s-.54-.3-.95-.3h-.54v2.21h.49c.47,0,.81-.09,1.02-.28.21-.19.31-.46.31-.83m2.56,1.76h-.74v-4.37h.74v4.37Zm-.36-5.43c-.15,0-.27-.05-.36-.15-.09-.1-.14-.23-.14-.38s.05-.28.14-.37c.09-.1.21-.15.36-.15s.26.05.36.15c.09.1.14.22.14.37,0,.16-.05.29-.14.38-.09.1-.21.15-.36.15m2.22,4.41c0,.18.03.31.08.38.05.07.14.11.27.11.07,0,.12,0,.17-.02.04-.01.08-.02.1-.04l.07.55s-.1.04-.2.07c-.1.03-.23.05-.39.05-.25,0-.45-.08-.6-.23-.15-.15-.23-.42-.23-.81v-5.49l.74-.08v5.5Zm1.15-1.1c0-.44.06-.81.17-1.11.12-.3.26-.54.45-.72.18-.18.39-.31.62-.39.23-.08.46-.11.69-.11.14,0,.26.01.36.03.1.02.19.05.26.08v-2.1l.74-.08v6.53h-.67v-.47h-.02s-.05.09-.1.15c-.05.06-.12.13-.2.19-.08.06-.19.12-.32.16-.13.05-.28.07-.45.07-.21,0-.4-.04-.59-.12-.19-.08-.35-.21-.49-.39s-.25-.41-.33-.69c-.08-.28-.12-.62-.12-1.03m1.73,1.58c.12,0,.22-.02.31-.05.09-.03.17-.07.24-.11.07-.05.12-.09.17-.14.05-.05.08-.09.1-.13v-2.7c-.07-.04-.14-.08-.23-.11-.09-.03-.2-.05-.33-.05-.17,0-.33.03-.48.09-.15.06-.28.15-.39.29-.11.13-.2.31-.26.52-.07.21-.1.47-.1.78s.03.56.08.76c.05.2.12.37.21.49s.19.21.31.27c.12.05.24.08.36.08m5.75.55h-.67v-.49h-.02s-.06.09-.12.16c-.06.07-.14.14-.23.2-.09.06-.21.12-.34.17-.13.05-.28.07-.45.07-.19,0-.37-.03-.52-.09-.16-.06-.29-.15-.4-.28-.11-.13-.19-.29-.25-.5-.06-.2-.09-.45-.09-.75v-2.87h.74v2.82c0,.36.06.62.18.78.12.15.3.23.55.23.21,0,.39-.05.54-.16.14-.11.26-.21.35-.31v-3.35h.74v4.37Zm3.52,0v-2.82c0-.37-.06-.64-.19-.8-.12-.16-.31-.24-.57-.24-.22,0-.4.05-.55.16-.15.11-.26.22-.35.32v3.37h-.74v-4.37h.67v.49h.02s.06-.09.12-.16c.06-.07.14-.14.24-.2.1-.06.21-.12.35-.17.13-.05.29-.07.46-.07.2,0,.37.03.53.09.16.06.29.15.4.28.11.13.2.29.26.5.06.2.09.46.09.75v2.87h-.74Zm4.98-3.8h-.55c.14.23.21.49.21.78,0,.23-.04.44-.11.62-.08.19-.18.34-.32.47-.14.13-.3.23-.48.29-.19.07-.39.1-.6.1h-.12s-.08,0-.12-.01c-.07.03-.15.08-.23.15-.08.07-.12.16-.12.26,0,.09.03.16.1.22.07.06.19.09.34.09h.56c.21,0,.4.02.57.06.18.04.33.11.46.2.13.09.23.21.31.36.07.15.11.32.11.53,0,.24-.05.45-.15.65-.1.19-.24.36-.42.5-.18.14-.4.25-.66.33-.26.08-.55.12-.88.12-.47,0-.82-.1-1.07-.31-.24-.2-.36-.5-.36-.88,0-.16.03-.3.09-.42.06-.12.13-.22.21-.31.08-.09.16-.16.24-.21.08-.05.15-.09.2-.12v-.02c-.19-.14-.28-.34-.28-.61,0-.12.02-.22.07-.3.05-.09.1-.15.15-.21.06-.05.12-.1.17-.13s.1-.06.13-.07v-.02c-.23-.1-.41-.27-.54-.49-.14-.22-.21-.51-.21-.85,0-.24.04-.46.12-.64.08-.19.19-.34.32-.46.13-.12.29-.21.47-.27.18-.06.37-.09.58-.09s.4.04.58.11h1.33l-.1.57Zm-2.03,3.66c-.13,0-.24,0-.34-.03-.05.03-.11.07-.16.11-.05.04-.1.1-.14.16-.04.06-.08.13-.1.21-.03.08-.04.18-.04.29,0,.47.26.7.77.7.44,0,.77-.09.98-.26.21-.17.32-.37.32-.6s-.07-.36-.2-.45c-.13-.09-.31-.13-.54-.13h-.56Zm.98-2.88c0-.32-.08-.54-.22-.67-.15-.13-.32-.2-.52-.2-.21,0-.4.07-.55.2-.15.13-.23.36-.23.67s.08.54.23.67c.15.13.33.2.53.2.21,0,.39-.07.54-.2.15-.13.22-.36.22-.67m-31.33,12.21h-.67v-.49h-.02s-.06.09-.12.16c-.06.07-.14.14-.23.2-.09.06-.21.12-.34.17-.13.05-.28.07-.45.07-.19,0-.37-.03-.52-.09-.15-.06-.29-.15-.4-.28-.11-.13-.19-.29-.25-.5-.06-.2-.09-.45-.09-.75v-2.87h.74v2.82c0,.37.06.62.18.78.12.15.3.23.55.23.21,0,.39-.05.54-.16.15-.11.26-.21.35-.31v-3.36h.74v4.37Zm3.52,0v-2.82c0-.37-.06-.64-.19-.8-.13-.16-.31-.24-.57-.24-.22,0-.4.05-.55.16-.14.11-.26.22-.35.32v3.37h-.74v-4.37h.67v.49h.02s.06-.09.12-.16c.06-.07.14-.14.24-.2.1-.06.21-.12.35-.17.13-.05.28-.07.46-.07.19,0,.37.03.53.09.16.06.29.15.4.28.11.13.19.29.26.5.06.2.09.45.09.75v2.87h-.74Zm1.64-2.12c0-.44.06-.81.17-1.11.12-.3.26-.54.45-.72.18-.18.39-.31.62-.39.23-.08.46-.12.69-.12.14,0,.26.01.36.03.1.02.19.05.26.08v-2.1l.74-.08v6.53h-.68v-.46h-.02s-.05.09-.1.15c-.05.06-.12.13-.2.19-.08.06-.19.12-.32.16-.13.05-.28.07-.45.07-.21,0-.4-.04-.59-.12-.18-.08-.35-.21-.49-.39-.14-.18-.25-.41-.33-.69-.08-.28-.12-.62-.12-1.02m1.73,1.58c.12,0,.22-.01.31-.04.09-.03.17-.07.24-.11.07-.04.12-.09.17-.14.04-.05.08-.09.1-.13v-2.7c-.07-.04-.14-.08-.23-.11-.09-.03-.2-.05-.33-.05-.17,0-.33.03-.48.09-.15.06-.28.15-.39.29-.11.13-.2.31-.26.52-.06.21-.1.47-.1.78s.03.56.08.76c.05.2.12.37.21.49.09.12.19.21.31.27.12.05.24.08.36.08m4.78.55v-6.29h3.09l-.05.63h-2.24v2.33h2.07v.63h-2.07v2.71h-.79Zm3.65-2.19c0-.4.05-.75.14-1.04.09-.29.22-.53.38-.71.16-.19.35-.32.56-.41.21-.09.43-.13.67-.13s.47.04.67.13c.21.09.39.22.54.41.15.18.27.42.36.71.09.29.13.64.13,1.04s-.04.76-.14,1.05c-.09.29-.22.53-.38.71-.16.19-.35.32-.56.41-.21.08-.44.13-.67.13s-.47-.04-.67-.13c-.21-.09-.39-.22-.54-.41-.15-.19-.27-.42-.36-.71-.09-.29-.13-.64-.13-1.05m2.69,0c0-.58-.08-1.01-.25-1.27-.17-.26-.41-.4-.71-.4s-.54.13-.71.4c-.17.26-.25.69-.25,1.27s.08,1,.26,1.26c.17.26.41.38.71.38s.54-.13.71-.38c.17-.25.25-.67.25-1.26m3.62-1.54s-.06-.03-.12-.05c-.06-.02-.14-.03-.25-.03-.23,0-.41.06-.54.19-.13.13-.22.26-.28.41v3.21h-.74v-4.37h.67v.59h.02c.03-.09.07-.17.12-.25.05-.08.11-.16.18-.22.07-.06.16-.11.26-.15.1-.04.22-.06.36-.06.1,0,.19.01.25.03.06.02.11.03.15.04l-.09.66Zm2.58.24c-.05-.05-.14-.13-.26-.22-.13-.09-.3-.14-.5-.14s-.34.05-.45.14c-.1.09-.15.2-.15.33,0,.16.05.3.14.41.09.11.24.22.43.34l.27.17c.3.18.53.37.7.57.17.2.25.47.25.79,0,.35-.12.64-.36.88-.24.24-.58.36-1.03.36-.17,0-.33-.02-.46-.06-.13-.04-.25-.08-.35-.13-.1-.05-.18-.1-.25-.16-.07-.06-.12-.11-.16-.16l.36-.58s.08.08.13.13c.05.05.11.1.19.14.07.05.16.08.25.11.09.03.2.04.32.04.22,0,.39-.05.5-.15.12-.1.17-.21.17-.36,0-.1-.01-.19-.04-.27-.03-.07-.07-.14-.12-.2-.05-.06-.12-.12-.2-.17-.08-.05-.17-.11-.27-.18l-.27-.17c-.27-.18-.49-.36-.64-.56-.16-.2-.23-.44-.23-.75,0-.16.03-.31.1-.45.06-.13.15-.25.27-.35.12-.1.25-.18.41-.24.16-.06.32-.09.5-.09s.32.02.44.05c.12.03.23.08.31.13.09.05.16.1.22.16.06.05.1.1.14.13l-.32.53Zm3.74-.04s-.05-.05-.09-.08c-.04-.04-.09-.07-.15-.11-.06-.04-.13-.07-.22-.1-.08-.03-.18-.04-.29-.04-.16,0-.31.03-.44.09-.14.06-.26.15-.36.28-.1.13-.18.29-.24.5-.06.2-.09.45-.09.74,0,.32.03.59.08.81.05.22.12.39.21.53.09.13.2.22.33.28.13.06.27.09.43.09.23,0,.4-.04.52-.12.12-.08.2-.14.25-.19l.3.51s-.07.08-.13.13c-.06.05-.13.1-.22.15-.09.05-.2.09-.33.12-.13.03-.28.05-.45.05-.24,0-.47-.04-.68-.12-.21-.08-.4-.21-.56-.39-.16-.18-.28-.42-.37-.71-.09-.29-.14-.65-.14-1.08s.05-.78.16-1.07c.11-.29.25-.53.43-.71.18-.18.37-.31.59-.39.22-.08.43-.12.65-.12.16,0,.31.02.43.05.12.03.23.07.32.11.09.05.16.09.22.15.06.05.1.1.14.13l-.31.52Zm3.47,3.53v-2.82c0-.37-.06-.64-.19-.8-.13-.16-.32-.24-.57-.24-.22,0-.4.05-.55.16-.14.11-.26.22-.35.32v3.37h-.74v-6.44l.74-.08v2.6h.02s.06-.09.11-.15c.05-.06.12-.12.21-.18.09-.06.2-.11.33-.16.13-.05.28-.07.46-.07.38,0,.69.13.91.37.23.25.34.66.34,1.24v2.87h-.74Zm4.9,0h-.67v-.49h-.02s-.06.09-.12.16c-.06.07-.14.14-.23.2-.09.06-.21.12-.34.17-.13.05-.28.07-.45.07-.2,0-.37-.03-.52-.09-.15-.06-.29-.15-.4-.28-.11-.13-.19-.29-.25-.5-.06-.2-.09-.45-.09-.75v-2.87h.74v2.82c0,.37.06.62.18.78.12.15.3.23.55.23.21,0,.39-.05.54-.16.15-.11.26-.21.35-.31v-3.36h.74v4.37Zm3.52,0v-2.82c0-.37-.06-.64-.19-.8-.12-.16-.31-.24-.57-.24-.22,0-.4.05-.55.16-.15.11-.26.22-.35.32v3.37h-.74v-4.37h.67v.49h.02s.06-.09.12-.16c.06-.07.14-.14.24-.2.1-.06.21-.12.35-.17.13-.05.29-.07.46-.07.2,0,.37.03.53.09.16.06.29.15.4.28.11.13.19.29.25.5.06.2.09.45.09.75v2.87h-.74Zm4.98-3.8h-.55c.14.23.21.49.21.78,0,.23-.04.44-.11.63-.08.19-.18.34-.32.47-.14.13-.3.23-.48.29-.18.07-.38.1-.6.1h-.12s-.08,0-.12-.01c-.07.03-.15.08-.23.15-.08.07-.12.15-.12.26,0,.09.03.17.1.23.07.06.18.09.34.09h.56c.21,0,.4.02.57.07.18.04.33.11.46.2.13.09.23.21.3.36.07.15.11.32.11.53,0,.24-.05.45-.15.65-.1.19-.24.36-.43.5-.18.14-.4.25-.67.33-.26.08-.55.12-.87.12-.47,0-.82-.1-1.07-.31-.24-.2-.36-.5-.36-.88,0-.16.03-.31.09-.42.06-.12.13-.22.21-.31.08-.09.16-.16.24-.21.08-.05.15-.09.2-.12v-.02c-.19-.14-.28-.34-.28-.61,0-.11.02-.21.07-.3.05-.08.1-.15.15-.21.06-.05.12-.1.17-.13.06-.03.1-.06.13-.07v-.02c-.22-.1-.4-.27-.54-.49-.14-.22-.2-.51-.2-.85,0-.24.04-.46.12-.64.08-.19.18-.34.32-.46.13-.12.29-.21.47-.27.18-.06.37-.09.58-.09s.4.04.58.11h1.33l-.1.57Zm-2.03,3.66c-.13,0-.24,0-.34-.03-.06.03-.11.07-.16.11-.05.04-.1.1-.14.16-.04.06-.08.13-.11.21-.03.08-.04.18-.04.29,0,.47.26.7.77.7.44,0,.77-.09.99-.26.21-.17.32-.37.32-.6,0-.21-.07-.36-.2-.45-.13-.09-.31-.13-.54-.13h-.56Zm.98-2.88c0-.32-.07-.54-.22-.67-.15-.13-.32-.2-.53-.2-.21,0-.4.07-.55.2-.15.13-.23.36-.23.67s.08.54.23.67c.15.13.33.2.53.2.21,0,.39-.07.54-.2.15-.13.22-.36.22-.67"/><polygon class="cls-15" points="60.42 242.81 61.57 242.81 61.57 258.12 58.89 258.12 58.89 242.81 60.42 242.81"/><polygon class="cls-13" points="60.42 227.41 61.57 227.41 61.57 242.81 58.89 242.81 58.89 227.41 60.42 227.41"/><path class="cls-17" d="m51.92,217.53c.78,1.24,1.4,1.22,2.32,1.22-.77-.59-1.27-1.34-1.52-1.72l-1.43-2.29c-.14-.71-.51-1.37-1.05-1.86.18-.07.34-.14.43-.21-.94,0-1.86-.47-2.37-.47-.33,0-.54.2-.54.45.02.29.32.58.87.58.12,0,.28-.02.46-.05.3.41.54.79.54,1.32,0,1-1.2,1.78-2.41,1.78-.07,0-.13,0-.2,0-.11-.25-.47-.67-.47-1.14,0-.8.52-1.45.52-2.24,0-.49-.24-.79-.33-.92.15-.14.31-.31.35-.42-.09.04-.19.04-.34.04-.58,0-1.05-.15-1.51-.15-.26,0-.33.08-.33.16,0,.03,0,.06.01.07-.1-.04-.19-.06-.3-.08-.14-.03-.28-.04-.44-.04-.56,0-.76.23-.76.44,0,.17.13.48.29.72.22-.11.48-.18.6-.18.3,0,.56.28.7.62-.2.02-.24.03-.44.03-.55,0-.92-.2-.99-.2,0,0-.02,0-.02.02,0,.08.15.28.46.39.4.15,1,.21,1.1.22,0,.02-.1.21-.22.24-.02,0-.04,0-.07,0-.42-.08-.54-.12-1.07-.32-.02,0-.03,0-.03.02,0,.21.54.68,1.03.85-.41.52-.92,1.05-1.16,1.87-.07,0-.13,0-.2,0-1.21,0-2.41-.78-2.41-1.78,0-.53.24-.91.54-1.32.17.03.33.05.46.05.55,0,.85-.29.87-.58,0-.26-.21-.45-.54-.45-.51,0-1.44.47-2.37.47.09.07.25.14.43.21-.55.49-.91,1.15-1.05,1.86l-1.43,2.29c-.24.38-.75,1.14-1.52,1.72.93,0,1.54.02,2.32-1.22l.73-1.18c.05.15.12.3.2.45l-1.46,2.34c-.24.39-.75,1.13-1.52,1.72.93,0,1.54.02,2.32-1.22l1.26-2.01c.09.1.19.2.3.29l-1.77,2.84c-.24.39-.74,1.13-1.52,1.72.93,0,1.54.02,2.32-1.22l1.73-2.77c.11.07.23.14.35.21l-2.11,3.38c-.24.39-.75,1.13-1.52,1.72.93,0,1.54.02,2.32-1.22l2.17-3.48c.13.05.26.1.39.14l-2.46,3.93c-.24.38-.75,1.14-1.52,1.72.93,0,1.54.02,2.32-1.22l2.62-4.19s.05,0,.08.01c.07.23.12.44.12.65,0,1.32-.86,2.48-1.9,3.38.07.03.18.04.29.04.21,0,.35-.01.45-.03-.24.55-.76,1.25-1.02,1.62-.34-.06-.83-.11-1.16-.11s-.38.2-.38.38c0,.31.14.55.31.69.06-.16.19-.37.81-.37.01,0,.03,0,.06,0-.18.2-.76.67-.76,1.04,0,.25.27.62.63.62-.02-.08-.02-.15-.02-.21,0-.3.27-.66.49-.9,0,.07,0,.07,0,.15,0,.71.06,1.04.52,1.04.22,0,.38-.12.43-.16-.29-.27-.31-.48-.31-.88,0-.1,0-.21,0-.35,0-.09,0-.21-.02-.3.16-.02.23-.02.35-.02,0,0,.64-.05.8.28.17-.16.43-.39.43-.63,0-.16-.08-.35-.41-.35-.13,0-.52.08-.85.08.09-.2.48-.78.83-1.19.05.16.13.34.31.48.02-.27.18-1.12.6-1.62.05.34.12.68.12,1.41,0,1.77-.43,3.08-1.33,3.33.12.2.37.39.63.39.33,0,.51-.37.69-.73.1.26.36.9.63.9s.53-.64.62-.9c.18.35.36.73.7.73.26,0,.51-.18.62-.39-.9-.25-1.33-1.56-1.33-3.33,0-.73.07-1.07.12-1.41.42.5.58,1.35.6,1.62.18-.14.26-.32.31-.48.34.42.74,1,.83,1.19-.33,0-.73-.08-.85-.08-.33,0-.41.19-.41.35,0,.25.25.47.43.63.16-.33.8-.28.8-.28.12,0,.19,0,.35.02-.01.09-.02.21-.01.3,0,.14,0,.24,0,.35,0,.4-.01.61-.31.88.05.04.21.16.43.16.45,0,.52-.33.52-1.04,0-.08,0-.08,0-.15.23.25.49.6.49.9,0,.05,0,.13-.02.21.36,0,.63-.37.63-.62,0-.37-.57-.83-.76-1.04.03,0,.05,0,.06,0,.63,0,.75.21.81.37.17-.14.31-.38.31-.69,0-.18-.04-.38-.38-.38s-.82.05-1.16.11c-.26-.36-.78-1.07-1.02-1.62.1.02.24.03.45.03.11,0,.22,0,.29-.04-1.04-.9-1.9-2.06-1.9-3.38,0-.21.05-.42.12-.65.03,0,.05,0,.08-.01l2.62,4.19c.78,1.24,1.4,1.22,2.32,1.22-.76-.59-1.28-1.34-1.51-1.72l-2.46-3.93c.13-.04.26-.09.39-.14l2.17,3.48c.78,1.24,1.4,1.22,2.33,1.22-.77-.59-1.27-1.34-1.52-1.72l-2.11-3.38c.12-.07.24-.13.35-.21l1.73,2.77c.78,1.24,1.4,1.22,2.32,1.22-.77-.59-1.27-1.33-1.52-1.72l-1.77-2.84c.1-.09.2-.19.3-.29l1.26,2.01c.78,1.24,1.4,1.22,2.32,1.22-.77-.59-1.27-1.34-1.52-1.72l-1.46-2.34c.08-.15.15-.29.2-.45l.73,1.18Zm-11.72-2.69c0-.87.63-1.56.86-1.76.05.01.11.03.16.04-.24.29-.66.78-.66,1.42,0,1.28,1.37,2.39,2.91,2.39,0,.11-.01.22-.01.34,0,.19,0,.36.03.53-1.75-.01-3.29-1.43-3.29-2.96m2.37,10.47v.03s.02,0,.02,0c.49,0,.73-.04.89-.06.08,0,.14-.02.21-.02.13,0,.22.01.22.17,0,.1-.12.27-.24.37-.18-.17-.43-.2-.8-.2-.17,0-.4.03-.52.05h-.02s-.02,0-.02,0v.06c.02.1.04.23.04.4v.15s0,.19,0,.19c0,.42.06.65.2.83-.04.01-.1.03-.14.03-.26,0-.33-.11-.33-.86,0-.15,0-.29-.01-.38v-.14s-.04.03-.04.03c-.38.29-.78.82-.8,1.21-.12-.08-.24-.24-.24-.37,0-.21.32-.53.69-.91l.21-.21.03-.03-.07-.02c-.08-.02-.23-.06-.35-.06-.42,0-.68.08-.84.25-.06-.08-.11-.28-.11-.39,0-.07.01-.13.04-.16.04-.03.09-.03.14-.03h.01c.46,0,1.01.08,1.22.12h.01s0,0,0,0c.04-.05.91-1.22,1.14-1.84.05-.02.1-.03.19-.03.17,0,.22.12.27.3-.55.67-.89,1.18-1.01,1.54m4.73-1.83c.09,0,.14.01.19.03.23.62,1.1,1.79,1.14,1.84h0s.01,0,.01,0c.21-.03.76-.12,1.22-.12h.01s.11,0,.14.03c.03.03.04.08.04.16,0,.11-.05.31-.11.39-.16-.18-.42-.25-.84-.25-.13,0-.27.04-.35.06h-.03s-.04.02-.04.02l.24.24c.37.37.69.69.69.91,0,.13-.13.3-.24.37-.02-.39-.42-.92-.81-1.21l-.03-.02v.14c-.01.09-.02.23-.02.38,0,.75-.08.86-.33.86-.04,0-.1-.01-.14-.03.15-.18.2-.42.2-.83v-.19s0-.15,0-.15c0-.17.02-.3.03-.4v-.06s-.03,0-.03,0c-.12-.02-.35-.05-.52-.05-.37,0-.62.03-.8.2-.12-.1-.24-.26-.24-.37,0-.16.1-.17.22-.17.06,0,.12,0,.21.02.16.02.4.06.89.06h.03v-.03c-.13-.36-.48-.87-1.02-1.54.05-.18.1-.3.27-.3m-2.03-10.19c-.06-.23-.17-.46-.32-.63-.14-.16-.36-.35-.66-.35-.14,0-.37.06-.51.13-.06-.1-.16-.34-.16-.45s.19-.22.55-.22c.79,0,1.26.36,1.26.96,0,.21-.08.4-.16.57m.35-.78c-.03-.17-.09-.32-.19-.45,0-.15.07-.3.32-.18-.13.14-.03.38-.03.38,0,0,.28-.13.22-.31.41.1.12.65-.31.56m1.54,5.28c.02-.17.03-.35.03-.53,0-.1,0-.21-.01-.34,1.53-.02,2.87-1.12,2.87-2.39,0-.64-.42-1.13-.66-1.42.05-.01.11-.02.16-.04.22.19.86.89.86,1.76,0,1.52-1.52,2.93-3.25,2.96"/><polygon class="cls-17" points="61.57 212.17 61.57 227.49 60.42 227.49 58.89 227.49 58.89 212.17 61.57 212.17"/><path class="cls-17" d="m69.04,193.98c0-.46-.19-.7-.69-.7-.16,0-.71.03-.71.84v1.31c0,.85.25,1.06.71,1.06.35,0,.59-.1.69-.17v-1.16h-.71v-.43h1.21v1.88c-.32.17-.69.29-1.19.29-.82,0-1.22-.42-1.22-1.5v-1.27c0-.77.4-1.27,1.22-1.27s1.23.31,1.2,1.12h-.52Z"/><polygon class="cls-17" points="70.46 196.82 70.46 192.94 72.45 192.94 72.45 193.37 70.95 193.37 70.95 194.62 72.35 194.62 72.35 195.05 70.95 195.05 70.95 196.39 72.49 196.39 72.49 196.82 70.46 196.82"/><polygon class="cls-17" points="73.1 196.82 73.1 192.94 75.03 192.94 75.03 193.37 73.6 193.37 73.6 194.62 74.95 194.62 74.95 195.05 73.6 195.05 73.6 196.82 73.1 196.82"/><path class="cls-17" d="m75.51,195.4v-1.27c0-.77.4-1.27,1.22-1.27s1.22.49,1.22,1.27v1.27c0,1.07-.4,1.5-1.22,1.5s-1.22-.42-1.22-1.5m1-2.91h-.5v-.56h.5v.56Zm.93,2.94v-1.31c0-.81-.56-.84-.71-.84s-.71.03-.71.84v1.31c0,.85.25,1.06.71,1.06s.71-.21.71-1.06m.02-2.94h-.5v-.56h.5v.56Z"/><path class="cls-17" d="m79.29,195.04v1.78h-.49v-3.88h1.34c.69,0,.93.48.93.97,0,.46-.25.81-.71.89h0c.45.08.61.23.63,1.01,0,.17.06.77.13,1.02h-.52c-.14-.27-.11-.77-.15-1.29-.04-.47-.42-.49-.59-.49h-.58Zm0-.43h.74c.35,0,.53-.31.53-.64,0-.28-.14-.59-.52-.59h-.75v1.23Z"/><path class="cls-17" d="m81.8,192.94h1.19c.49,0,.85.18,1.04.59.16.33.17,1.1.17,1.22,0,.83-.08,1.3-.24,1.56-.21.33-.6.5-1.28.5h-.89v-3.87Zm.49,3.45h.47c.69,0,.94-.26.94-1.16v-.78c0-.78-.24-1.07-.76-1.07h-.65v3.02Z"/><polygon class="cls-17" points="85.07 196.82 85.07 192.94 87.06 192.94 87.06 193.37 85.56 193.37 85.56 194.62 86.96 194.62 86.96 195.05 85.56 195.05 85.56 196.39 87.1 196.39 87.1 196.82 85.07 196.82"/><path class="cls-17" d="m88.23,195.04v1.78h-.5v-3.88h1.34c.69,0,.93.48.93.97,0,.46-.25.81-.71.89h0c.44.08.61.23.63,1.01,0,.17.06.77.13,1.02h-.51c-.14-.27-.11-.77-.15-1.29-.04-.47-.42-.49-.59-.49h-.58Zm0-.43h.74c.35,0,.53-.31.53-.64,0-.28-.14-.59-.52-.59h-.74v1.23Z"/><polygon class="cls-17" points="92.91 192.94 92.91 193.37 91.89 193.37 91.89 196.82 91.39 196.82 91.39 193.37 90.37 193.37 90.37 192.94 92.91 192.94"/><polygon class="cls-17" points="95.96 196.82 95.37 196.82 94.25 192.94 94.78 192.94 95.67 196.35 95.68 196.35 96.58 192.94 97.09 192.94 95.96 196.82"/><path class="cls-17" d="m97.58,195.4v-1.27c0-.77.4-1.27,1.22-1.27s1.22.49,1.22,1.27v1.27c0,1.07-.4,1.5-1.22,1.5s-1.22-.42-1.22-1.5m1.93.02v-1.31c0-.81-.56-.84-.71-.84s-.71.03-.71.84v1.31c0,.85.25,1.06.71,1.06s.71-.21.71-1.06"/><polygon class="cls-17" points="101.34 196.82 100.88 196.82 100.88 192.94 101.68 192.94 102.65 196.2 102.67 196.2 103.65 192.94 104.47 192.94 104.47 196.82 103.98 196.82 103.98 193.37 103.96 193.37 102.88 196.82 102.41 196.82 101.35 193.37 101.34 193.37 101.34 196.82"/></g></g></g></svg>