<?xml version="1.0" encoding="UTF-8"?><svg id="Layer_1" xmlns="http://www.w3.org/2000/svg" xmlns:xlink="http://www.w3.org/1999/xlink" viewBox="0 0 1024 1024"><defs><style>.cls-1,.cls-2,.cls-3,.cls-4,.cls-5,.cls-6,.cls-7,.cls-8,.cls-9,.cls-10,.cls-11{fill:none;}.cls-2{clip-path:url(#clippath-7);}.cls-3{clip-path:url(#clippath-6);}.cls-4{clip-path:url(#clippath-5);}.cls-5{clip-path:url(#clippath-3);}.cls-6{clip-path:url(#clippath-4);}.cls-7{clip-path:url(#clippath-2);}.cls-8{clip-path:url(#clippath-1);}.cls-12{fill:#0060a0;}.cls-13{fill:#0067a3;}.cls-14{fill:#ee3338;}.cls-15{fill:#f5ce00;}.cls-16{fill:#fff;}.cls-17{fill:#ed1c24;}.cls-18{fill:#231f20;}.cls-19{fill:#1c5493;}.cls-20{fill:#373535;}.cls-9{stroke:#1c5493;stroke-width:7.48px;}.cls-9,.cls-10{stroke-miterlimit:10;}.cls-10{stroke:#373535;stroke-width:.9px;}.cls-11{clip-path:url(#clippath);}</style><clipPath id="clippath"><rect class="cls-1" x="301" y="180.65" width="414.35" height="122.51"/></clipPath><clipPath id="clippath-1"><rect class="cls-1" x="301" y="180.65" width="414.35" height="122.51"/></clipPath><clipPath id="clippath-2"><rect class="cls-1" x="322.46" y="203.83" width="379.95" height="84.74"/></clipPath><clipPath id="clippath-3"><rect class="cls-1" x="301" y="392.04" width="414.35" height="141.42"/></clipPath><clipPath id="clippath-4"><rect class="cls-1" x="301" y="392.04" width="414.35" height="141.42"/></clipPath><clipPath id="clippath-5"><rect class="cls-1" x="301" y="392.04" width="414.35" height="141.42"/></clipPath><clipPath id="clippath-6"><rect class="cls-1" x="306.87" y="594.62" width="408.38" height="280.76"/></clipPath><clipPath id="clippath-7"><rect class="cls-1" x="306.87" y="594.62" width="408.38" height="280.76"/></clipPath></defs><g id="Artwork_5"><g class="cls-11"><rect class="cls-16" x="301.45" y="181.11" width="413.45" height="121.6"/><g class="cls-8"><rect class="cls-10" x="301.45" y="181.11" width="413.45" height="121.6"/></g><g class="cls-7"><path class="cls-16" d="m465.24,209.37v71.17c71.17-11.86,142.34-23.72,213.51-35.59-71.17-11.86-142.34-23.72-213.51-35.59"/><path class="cls-9" d="m465.24,209.37v71.17c71.17-11.86,142.34-23.72,213.51-35.59-71.17-11.86-142.34-23.72-213.51-35.59Z"/><path class="cls-14" d="m522.06,244.96c0,3.24-1.34,6.17-3.49,8.29-2.12,2.15-5.05,3.48-8.29,3.48s-6.18-1.34-8.29-3.49c-2.15-2.12-3.48-5.05-3.48-8.29s1.33-6.17,3.48-8.29c2.12-2.15,5.05-3.49,8.29-3.49s6.17,1.33,8.29,3.48c2.15,2.12,3.49,5.05,3.49,8.29m54.84,3.91v-7.85h-47.53c-1.81-8.95-9.67-15.69-19.09-15.69s-17.28,6.74-19.09,15.69h-7.8v-15.69h-7.79v39.25h7.79v-15.71h7.8c1.8,8.96,9.66,15.71,19.09,15.71s17.29-6.75,19.09-15.71h47.52Z"/><path class="cls-19" d="m448.24,249.98h-5.23v22.95l-10.7-22.95h-4.98v34.85h5.23v-22.5l10.75,22.5h4.93v-34.85Zm-41.07,23.55c1.69-9.21,3.24-15.63,3.24-15.63,0,0,1.54,6.42,3.24,15.63h-6.47Zm-2.19,11.3s.45-2.54,1.24-6.27h8.36c.75,3.73,1.24,6.27,1.24,6.27h5.77s-1.59-7.17-3.93-17.28c-2.19-9.46-4.53-17.57-4.53-17.57h-5.43s-2.39,8.12-4.58,17.57c-2.34,10.11-3.88,17.28-3.88,17.28h5.73Zm-26.93-34.85v34.85h17.13v-5.23h-11.85v-8.26h11.15v-5.28h-11.15v-10.85h11.85v-5.23h-17.13Zm-26.34,17.08c0,11.75,5.78,17.92,11.5,17.92,3.63,0,7.77-3.24,9.86-8.91l-4.93-2.94c-1,4.33-3.04,6.62-4.88,6.62-3.04,0-6.02-4.33-6.02-12.74,0-6.92,3.14-11.75,5.92-11.75,1.79,0,3.39,1.49,4.48,5.03l4.88-2.54c-2.09-5.38-5.97-7.97-9.36-7.97-5.97,0-11.45,7.37-11.45,17.28m-10.01.5c0,6.67-2.59,12.2-6.12,12.2s-6.12-5.58-6.12-12.2,2.74-12.3,6.12-12.3,6.12,5.53,6.12,12.3m-6.12-17.77c-6.57,0-11.65,7.92-11.65,17.67s4.93,17.52,11.65,17.52,11.65-7.62,11.65-17.52-5.13-17.67-11.65-17.67"/><path class="cls-14" d="m450.08,208.65c-2.44-3.04-5.28-4.28-8.26-4.28-5.28,0-9.26,4.13-9.26,9.06,0,3.63,1.94,6.62,7.12,10.31,3.88,2.84,5.23,4.73,5.23,6.67,0,2.34-1.79,4.33-4.18,4.33-1.79,0-3.43-1-4.68-3.29l-4.48,3.78c2.44,3.09,5.68,4.68,9.21,4.68,5.18,0,9.71-4.18,9.71-9.51,0-4.38-2.09-7.32-7.82-11.3-3.63-2.49-4.68-3.88-4.68-5.82,0-2.24,1.84-3.68,3.88-3.68,1.49,0,2.79.9,3.93,2.49l4.28-3.43Zm-25.74-3.98h-5.23v22.95l-10.7-22.95h-4.98v34.85h5.23v-22.5l10.75,22.5h4.93v-34.85Zm-42.57,23.55c1.69-9.21,3.24-15.63,3.24-15.63,0,0,1.54,6.42,3.24,15.63h-6.47Zm-2.19,11.3s.45-2.54,1.24-6.27h8.36c.75,3.73,1.25,6.27,1.25,6.27h5.77s-1.59-7.17-3.93-17.28c-2.19-9.46-4.53-17.57-4.53-17.57h-5.43s-2.39,8.12-4.58,17.57c-2.34,10.11-3.88,17.28-3.88,17.28h5.73Zm-16.38-22.65c0,4.68-2.94,7.67-8.76,7.67h-.3v-14.74c.3-.05.75-.05,1.05-.05,5.08,0,8.01,3.63,8.01,7.12m-9.06,12.79c1.49,0,2.89-.15,4.13-.55l4.28,10.4h6.07l-5.48-12.2c3.44-2.24,5.38-6.17,5.38-10.21,0-8.07-6.47-12.7-14.49-12.7-2.09,0-4.08.25-5.18.5v34.6h5.28v-9.86Zm-31.21-24.99v5.23h7.17v29.62h5.38v-29.62h7.17v-5.23h-19.71Z"/></g></g></g><g id="Artwork_7"><g class="cls-5"><g class="cls-6"><path class="cls-13" d="m522.43,394.72c-18.94-5.85-35.86-1.1-37.21,4.67-2.15,9.21,11.75,15.22,19.76,17.89,1.2-3.53,2.41-6.72,3.6-9.54-5.75-1.81-15.23-5.55-13.87-10.24,1.26-4.41,11.89-4.37,19.3-3.13.58.13,1.18.24,1.77.38,25.75,6.17,39.86,31.35,33.67,56.99-6.19,25.65-30.33,41.44-56.09,35.27-1.11-.27-3.55-.99-3.68-1.03-.01.09-.06.46.11.59,2.51,1.07,4.01,1.64,7.58,2.47,26.22,6.21,52.93-10.16,59.23-36.23,6.15-25.47-9.08-51.05-34.16-58.1"/></g><g class="cls-4"><path class="cls-13" d="m499.03,437.75c.87-3.57,1.8-7.02,2.74-10.31-19.17-7.01-23.78-15.57-24.37-21-.42-3.95,2.78-7.27,2.78-7.27-4.47,2.98-8.37,6.02-8.84,8.74-2.77,16.22,16.7,25.84,27.68,29.83"/><path class="cls-13" d="m496.56,448.5c-20-7.59-28.26-17.42-31.19-26.79-1.54-4.95.27-9.32.27-9.32-3.54,5.21-5.31,10.59-5.31,10.59-.33,1.06-.29,5.27.77,8.29,4.97,14.4,21.36,23.51,33.62,27.98.5-3.26,1.11-7.18,1.84-10.75"/><path class="cls-20" d="m354.97,481.01c0-8.91,6.78-14.67,14.44-14.67,8.32,0,14.45,6.54,14.45,14.46s-6.1,14.46-14.49,14.46-14.4-6.74-14.4-14.2v-.04Zm6.37-.21c0,4.61,3.28,8.65,8.14,8.65s8.04-4.45,8.04-8.62-2.97-8.67-8.06-8.67-8.11,4.17-8.11,8.59v.04Z"/><path class="cls-20" d="m314.15,479.49h11.45v14.13c-3.3.8-6.04,1.14-9.08,1.14-4.64,0-8.11-.99-10.83-3.03-3.06-2.35-4.68-6.02-4.68-10.48,0-8.74,6.31-14.47,15.86-14.47,3.04,0,5.61.5,8.67,1.71v5.85c-2.7-1.48-5.05-2.1-8.06-2.1-6.04,0-9.81,3.43-9.81,8.94s3.24,8.32,8.71,8.32c1.06,0,2.13-.06,3.15-.23v-4.42h-5.37v-5.37Z"/><polygon class="cls-20" points="332.75 467.33 350.12 467.33 350.12 472.68 339.1 472.68 339.1 477.89 349.82 477.89 349.82 483.25 339.1 483.25 339.1 489.04 350.35 489.04 350.35 494.4 332.75 494.4 332.75 467.33"/><path class="cls-20" d="m456.35,467.43l.61-.04c2.43-.19,5.33-.27,7.38-.27,4.07,0,6.58.54,8.55,1.96,2.13,1.44,3.34,3.91,3.34,6.72,0,3.5-1.56,5.85-4.94,7.42.77,1.13,1.41,2.04,2.51,3.5,2.08,2.8,4.41,5.7,5.9,7.38l.34.37s-6.65,1.38-9.05-1.67c-2.48-3.15-3.93-5.4-5.55-8.02l-.31-.5h-.99c-.26,0-.68,0-1.17-.03h-.53v10.15h-6.1v-26.96Zm6.1,11.99c.71.14,1.17.14,1.7.14,4.15,0,5.78-1.03,5.78-3.65s-1.67-3.78-5.02-3.78c-.53,0-1.14,0-1.77-.06l-.69.06v7.29Z"/><path class="cls-20" d="m421.72,493.04c-.2-4.03-.3-6.08-.5-9.19-.11-1.64-.23-3.35-.38-5.14-.12-1.83-.19-2.81-.3-3.95l-.57-6.51-.11-1.03h-6.88c-1.84,0-2.33.43-3.21,2.85-1.2,3.27-3.03,10.36-3.78,13.25l-1.21,5.02-1.21-5.02c-.77-2.88-2.6-9.98-3.81-13.25-.87-2.43-1.37-2.85-3.2-2.85h-6.88l-.11,1.03-.57,6.51c-.11,1.14-.19,2.13-.3,3.95-.16,1.78-.27,3.5-.39,5.14-.19,3.11-.3,5.17-.49,9.19l-.09,1.34h5.9l.04-.7c.11-3.28.23-6.01.5-10.91.26-5.21.33-7.6.33-9.55,0-.76.03-1.06.03-1.26.27.84.54,1.63.77,2.47.23.81.53,1.8.61,2.06l1.14,3.65c.46,1.48.94,3.11,1.83,6.05.76,2.54,1.49,5.1,2.06,7.07l.3,1.11h7.07l.3-1.11c.58-1.97,1.3-4.52,2.06-7.07.88-2.94,1.37-4.57,1.83-6.05l1.14-3.65c.09-.26.39-1.24.6-2.06.24-.84.51-1.63.78-2.47,0,.2.01.5.01,1.26,0,1.96.07,4.34.36,9.55.26,4.9.37,7.62.49,10.91l.04.7h5.9l-.07-1.34Z"/><path class="cls-20" d="m452.58,493.25c-1.21-3.51-2.97-7.91-5.08-13.08-.96-2.21-1.8-4.22-2.63-6.09-.27-.64-.54-1.29-1.56-3.53l-.54-1.23-.53-1.17-.43-.91h-5.77l-.43.91-.53,1.17-.53,1.23c-1.03,2.24-1.3,2.88-1.56,3.53-.84,1.87-1.68,3.88-2.63,6.09-2.13,5.17-3.88,9.56-5.1,13.08l-.41,1.14h6.54l.18-.69c.6-1.78,1.21-3.5,2.01-5.81l.23-.7h10.19l.23.7c.8,2.31,1.41,4.02,2.03,5.81l.19.69h6.52l-.41-1.14Zm-13.65-11.11h-3.2l.39-1.1s2.27-6.27,2.81-8.18c.54,1.91,2.83,8.18,2.83,8.18l.37,1.1h-3.2Z"/><path class="cls-13" d="m305.5,519.92h6.61v-6.25c0-.23.1-.34.33-.34h.97c.23,0,.31.11.31.34v14.77c0,.23-.09.34-.31.34h-.97c-.23,0-.33-.12-.33-.34v-7.15h-6.61v7.15c0,.23-.07.34-.31.34h-.96c-.23,0-.31-.12-.31-.34v-14.77c0-.23.09-.34.31-.34h.96c.24,0,.31.11.31.34v6.25Z"/><path class="cls-12" d="m325.61,523.1c0,.2-.1.31-.31.31h-6.44v2.53c0,1.04.54,1.76,2.64,1.76s2.63-.71,2.63-1.76v-.39c0-.23.1-.31.33-.31h.81c.23,0,.34.09.34.31v.47c0,1.76-1.03,2.94-4.17,2.94s-4.13-1.18-4.13-2.94v-5.72c0-1.74,1.04-2.93,4.18-2.93s4.11,1.19,4.11,2.93v2.8Zm-6.75-.88h5.27v-1.81c0-1.03-.63-1.76-2.63-1.76s-2.64.73-2.64,1.76v1.81Z"/><path class="cls-12" d="m330.31,528.44c0,.23-.09.34-.31.34h-.91c-.24,0-.34-.11-.34-.34v-15.2c0-.23.1-.34.34-.34h.91c.23,0,.31.11.31.34v15.2Z"/><path class="cls-12" d="m335.08,517.55c.26,0,.33.11.34.34l.03.84c.61-.51,1.84-1.36,3.77-1.36,1.53,0,2.48.61,2.88,1.54.57-.47,1.8-1.54,3.98-1.54s3.16,1.18,3.16,2.8v8.26c0,.23-.12.34-.34.34h-.9c-.23,0-.34-.12-.34-.34v-7.92c0-1.03-.54-1.74-2-1.74-1.76,0-2.88.91-3.33,1.33.03.11.03.27.03.41v7.92c0,.23-.08.34-.31.34h-.91c-.23,0-.34-.12-.34-.34v-7.92c0-1.03-.54-1.74-2-1.74-1.68,0-2.81.87-3.3,1.28v8.38c0,.23-.08.34-.31.34h-.91c-.24,0-.34-.12-.34-.34v-10.55c0-.23.1-.34.34-.34h.81Z"/><path class="cls-12" d="m354.26,518.72c.66-.54,1.96-1.34,3.87-1.34,2.11,0,3.13,1.19,3.13,2.8v8.26c0,.23-.08.34-.31.34h-.91c-.23,0-.34-.11-.34-.34v-7.92c0-1.03-.54-1.74-2-1.74-1.67,0-2.9.87-3.43,1.28v8.38c0,.23-.09.34-.31.34h-.91c-.26,0-.34-.11-.34-.34v-15.2c0-.23.08-.34.34-.34h.91c.23,0,.31.11.31.34v5.48Z"/><path class="cls-12" d="m364.47,520.3c0-1.74,1.16-2.93,4.27-2.93s4.3,1.18,4.3,2.93v5.72c0,1.76-1.18,2.94-4.3,2.94s-4.27-1.19-4.27-2.94v-5.72Zm6.99.11c0-1.07-.7-1.74-2.73-1.74s-2.71.67-2.71,1.74v5.5c0,1.07.71,1.76,2.71,1.76s2.73-.69,2.73-1.76v-5.5Z"/><path class="cls-12" d="m377.94,528.44c0,.23-.1.34-.33.34h-.9c-.26,0-.34-.11-.34-.34v-15.2c0-.23.08-.34.34-.34h.9c.23,0,.33.11.33.34v15.2Z"/><path class="cls-12" d="m386.16,517.6c.23,0,.34.09.34.31v.64c0,.21-.11.33-.34.33h-2.56v6.81c0,1.06.61,1.74,2.64,1.74h.38c.23,0,.34.09.34.34v.66c0,.26-.11.34-.34.34h-.58c-3.11,0-4.03-1.09-4.03-2.93v-6.97h-1.37c-.21,0-.31-.11-.31-.33v-.56c0-.23.1-.31.31-.34l1.19-.06h.19v-2.41c0-.23.11-.34.34-.34h.93c.23,0,.31.11.31.34v2.41h2.56Z"/><path class="cls-12" d="m396.16,517.55c.26,0,.34.1.34.33v.63c0,.11-.03.21-.07.27l-5.8,8.69h5.84c.23,0,.34.09.34.34v.63c0,.26-.11.34-.34.34h-7.42c-.23,0-.34-.09-.34-.34v-.63c0-.12.04-.21.09-.29l5.75-8.65h-5.21c-.21,0-.33-.1-.33-.34v-.66c0-.23.12-.33.33-.33h6.82Z"/><path class="cls-12" d="m405.15,521.56c.23,0,.34.09.34.31v.66c0,.26-.11.34-.34.34h-6.08c-.23,0-.34-.08-.34-.34v-.66c0-.23.12-.31.34-.31h6.08Z"/><path class="cls-12" d="m415.77,513.32c.24,0,.34.1.34.34v.71c0,.11-.03.17-.07.24l-7,12.77h7.08c.23,0,.34.08.34.31v.73c0,.26-.12.34-.34.34h-8.69c-.23,0-.33-.08-.33-.34v-.73c0-.07,0-.16.04-.23l6.98-12.76h-6.3c-.23,0-.34-.1-.34-.34v-.71c0-.24.11-.34.34-.34h7.94Z"/><path class="cls-12" d="m427.03,523.1c0,.2-.08.31-.31.31h-6.44v2.53c0,1.04.56,1.76,2.64,1.76s2.64-.71,2.64-1.76v-.39c0-.23.09-.31.31-.31h.83c.21,0,.33.09.33.31v.47c0,1.76-1.01,2.94-4.15,2.94s-4.14-1.18-4.14-2.94v-5.72c0-1.74,1.04-2.93,4.18-2.93s4.11,1.19,4.11,2.93v2.8Zm-6.75-.88h5.28v-1.81c0-1.03-.64-1.76-2.64-1.76s-2.64.73-2.64,1.76v1.81Z"/><path class="cls-12" d="m431.67,517.89l.04.87c.64-.54,1.96-1.39,3.88-1.39,2.13,0,3.14,1.19,3.14,2.8v8.26c0,.23-.09.34-.31.34h-.91c-.23,0-.34-.11-.34-.34v-7.92c0-1.03-.54-1.74-2-1.74-1.69,0-2.91.87-3.43,1.28v8.38c0,.23-.1.34-.33.34h-.9c-.26,0-.34-.11-.34-.34v-10.55c0-.23.08-.34.34-.34h.81c.26,0,.31.11.34.34"/><path class="cls-12" d="m446.8,517.6c.23,0,.34.09.34.31v.64c0,.21-.11.33-.34.33h-2.54v6.81c0,1.06.61,1.74,2.63,1.74h.4c.23,0,.33.09.33.34v.66c0,.26-.1.34-.33.34h-.6c-3.11,0-4.03-1.09-4.03-2.93v-6.97h-1.36c-.23,0-.31-.11-.31-.33v-.56c0-.23.09-.31.31-.34l1.19-.06h.17v-2.41c0-.23.11-.34.34-.34h.94c.21,0,.31.11.31.34v2.41h2.54Z"/><path class="cls-12" d="m455.71,517.72v.74c0,.23-.13.31-.36.34-1.69.04-3.17,1.07-3.71,1.53v8.11c0,.23-.09.34-.31.34h-.91c-.24,0-.34-.11-.34-.34v-10.55c0-.23.1-.34.34-.34h.81c.26,0,.33.11.34.34l.07,1.11c.64-.58,2.03-1.63,3.71-1.63.23,0,.36.11.36.34"/><path class="cls-12" d="m464.66,527.63c-.61.51-1.81,1.34-3.73,1.34-2.11,0-3.15-1.16-3.15-2.77v-8.31c0-.23.09-.34.31-.34h.93c.23,0,.33.12.33.34v7.94c0,1.04.56,1.73,2.01,1.73,1.67,0,2.78-.84,3.28-1.26v-8.41c0-.23.09-.34.31-.34h.93c.23,0,.33.12.33.34v10.55c0,.26-.1.34-.33.34h-.84c-.24,0-.31-.08-.34-.34l-.04-.81Z"/><path class="cls-12" d="m470.95,517.55c.26,0,.31.11.34.34l.03.84c.6-.51,1.83-1.36,3.77-1.36,1.53,0,2.47.61,2.88,1.54.57-.47,1.8-1.54,3.98-1.54s3.15,1.18,3.15,2.8v8.26c0,.23-.11.34-.34.34h-.91c-.21,0-.33-.12-.33-.34v-7.92c0-1.03-.56-1.74-2.01-1.74-1.74,0-2.88.91-3.31,1.33.03.11.03.27.03.41v7.92c0,.23-.1.34-.33.34h-.9c-.23,0-.34-.12-.34-.34v-7.92c0-1.03-.54-1.74-2-1.74-1.69,0-2.83.87-3.3,1.28v8.38c0,.23-.1.34-.33.34h-.9c-.26,0-.34-.12-.34-.34v-10.55c0-.23.08-.34.34-.34h.81Z"/><path class="cls-12" d="m494.22,517.6v-1.96c0-1.73,1.14-2.91,4.25-2.91h.13c.23,0,.34.08.34.31v.68c0,.23-.11.34-.34.34h-.13c-2.03,0-2.67.69-2.67,1.73v1.8h2.48c.23,0,.34.09.34.31v.64c0,.21-.11.33-.34.33h-2.48v9.55c0,.23-.09.34-.33.34h-.91c-.23,0-.34-.12-.34-.34v-9.55h-1.41c-.23,0-.31-.11-.31-.33v-.56c0-.23.09-.31.31-.34l1.23-.06h.19Z"/><path class="cls-12" d="m507.73,527.62c-.61.51-1.83,1.34-3.73,1.34-2.13,0-3.17-1.16-3.17-2.77v-8.31c0-.23.1-.34.33-.34h.93c.23,0,.31.11.31.34v7.94c0,1.04.57,1.73,2.03,1.73,1.66,0,2.77-.84,3.27-1.26v-8.41c0-.23.09-.34.31-.34h.94c.23,0,.31.11.31.34v10.55c0,.26-.09.34-.31.34h-.84c-.26,0-.33-.09-.34-.34l-.04-.81Zm-3.21-12.28c0,.23-.09.34-.31.34h-.69c-.23,0-.31-.11-.31-.34v-2.14c0-.23.09-.33.31-.33h.69c.23,0,.31.1.31.33v2.14Zm2.48,0c0,.23-.1.34-.33.34h-.67c-.23,0-.33-.11-.33-.34v-2.14c0-.23.1-.33.33-.33h.67c.23,0,.33.1.33.33v2.14Z"/><path class="cls-12" d="m518.52,517.72v.74c0,.23-.14.31-.37.34-1.69.04-3.15,1.07-3.7,1.53v8.11c0,.23-.1.34-.33.34h-.9c-.26,0-.34-.11-.34-.34v-10.55c0-.23.09-.34.34-.34h.81c.26,0,.31.11.34.34l.07,1.11c.63-.58,2.01-1.63,3.7-1.63.23,0,.37.11.37.34"/><path class="cls-12" d="m525.8,516.46c0-1.81,1.19-3.31,4.91-3.31s4.94,1.5,4.94,3.31v9.18c0,1.83-1.16,3.33-4.94,3.33s-4.91-1.5-4.91-3.33v-9.18Zm8.24.26c0-1.33-.91-2.18-3.33-2.18s-3.28.86-3.28,2.18v8.68c0,1.31.9,2.19,3.28,2.19s3.33-.87,3.33-2.19v-8.68Z"/><path class="cls-12" d="m545.97,517.55c.24,0,.33.1.33.33v.63c0,.11-.01.21-.06.27l-5.79,8.69h5.84c.23,0,.34.09.34.34v.63c0,.26-.11.34-.34.34h-7.44c-.23,0-.34-.09-.34-.34v-.63c0-.12.04-.21.1-.29l5.74-8.65h-5.2c-.23,0-.34-.1-.34-.34v-.66c0-.23.11-.33.34-.33h6.82Z"/><path class="cls-12" d="m557.43,523.1c0,.2-.09.31-.31.31h-6.42v2.53c0,1.04.54,1.76,2.63,1.76s2.64-.71,2.64-1.76v-.39c0-.23.08-.31.31-.31h.81c.23,0,.34.09.34.31v.47c0,1.76-1.01,2.94-4.15,2.94s-4.14-1.18-4.14-2.94v-5.72c0-1.74,1.04-2.93,4.18-2.93s4.11,1.19,4.11,2.93v2.8Zm-6.74-.88h5.27v-1.81c0-1.03-.64-1.76-2.64-1.76s-2.63.73-2.63,1.76v1.81Z"/><path class="cls-12" d="m560.41,520.26c0-1.7,1.01-2.88,4.08-2.88s4.1,1.18,4.1,2.88v8.18c0,.23-.08.34-.31.34h-.83c-.24,0-.29-.11-.34-.34l-.04-.81c-.66.51-1.93,1.34-3.74,1.34-2.13,0-3.14-1.21-3.14-2.68v-1.14c0-1.47.97-2.68,2.95-2.68h3.91v-2.04c0-1.01-.56-1.74-2.57-1.74s-2.6.67-2.6,1.7v.27c0,.26-.09.36-.34.36h-.81c-.23,0-.31-.1-.31-.36v-.39Zm6.64,6.11v-2.65h-3.63c-1.21,0-1.73.64-1.73,1.64v.73c0,1,.61,1.56,1.98,1.56,1.64,0,2.84-.86,3.37-1.27"/><path class="cls-12" d="m573.55,517.89l.04.87c.64-.54,1.96-1.39,3.88-1.39,2.11,0,3.14,1.19,3.14,2.8v8.26c0,.23-.08.34-.31.34h-.91c-.23,0-.34-.11-.34-.34v-7.92c0-1.03-.54-1.74-2-1.74-1.69,0-2.91.87-3.43,1.28v8.38c0,.23-.1.34-.33.34h-.9c-.26,0-.34-.11-.34-.34v-10.55c0-.23.08-.34.34-.34h.81c.24,0,.31.11.34.34"/><path class="cls-12" d="m584.64,517.6v-1.96c0-1.73,1.13-2.91,4.24-2.91h.14c.23,0,.34.08.34.31v.68c0,.23-.11.34-.34.34h-.14c-2.01,0-2.65.69-2.65,1.73v1.8h2.48c.21,0,.33.09.33.31v.64c0,.21-.11.33-.33.33h-2.48v9.55c0,.23-.09.34-.34.34h-.91c-.21,0-.33-.12-.33-.34v-9.55h-1.41c-.23,0-.31-.11-.31-.33v-.56c0-.23.09-.31.31-.34l1.23-.06h.19Z"/><path class="cls-12" d="m590.95,520.3c0-1.74,1.16-2.93,4.27-2.93s4.3,1.18,4.3,2.93v5.72c0,1.76-1.17,2.94-4.3,2.94s-4.27-1.19-4.27-2.94v-5.72Zm7,.11c0-1.07-.7-1.74-2.73-1.74s-2.7.67-2.7,1.74v5.5c0,1.07.7,1.76,2.7,1.76s2.73-.69,2.73-1.76v-5.5Z"/><path class="cls-12" d="m608.49,517.72v.74c0,.23-.14.31-.36.34-1.68.04-3.17,1.07-3.71,1.53v8.11c0,.23-.08.34-.31.34h-.91c-.26,0-.34-.11-.34-.34v-10.55c0-.23.09-.34.34-.34h.81c.26,0,.33.11.34.34l.07,1.11c.64-.58,2.03-1.63,3.71-1.63.21,0,.36.11.36.34"/><path class="cls-12" d="m616.67,519.96c0-.88-.81-1.4-2.53-1.4s-2.47.51-2.47,1.4v.6c0,.7.66,1.11,1.16,1.24l3.5,1.14c1.14.39,1.96,1.08,1.96,2.16v1.3c0,1.36-1.23,2.57-4.14,2.57s-4.11-1.21-4.11-2.57v-.61c0-.21.09-.31.31-.31h.84c.23,0,.3.1.3.31v.54c0,.91.91,1.43,2.66,1.43s2.68-.51,2.68-1.43v-.84c0-.69-.57-1.01-1.34-1.27l-3.5-1.16c-.8-.26-1.76-1.07-1.76-2.21v-.88c0-1.36,1.03-2.58,3.94-2.58s3.95,1.23,3.95,2.58v.66c0,.21-.08.3-.31.3h-.84c-.21,0-.3-.08-.3-.3v-.66Z"/><path class="cls-12" d="m629.17,520.3v.43c0,.23-.1.34-.34.34h-.84c-.26,0-.34-.11-.34-.34v-.33c0-1.06-.57-1.73-2.6-1.73s-2.58.67-2.58,1.73v5.51c0,1.07.57,1.76,2.58,1.76s2.6-.69,2.6-1.76v-.5c0-.24.08-.34.34-.34h.84c.24,0,.34.1.34.34v.61c0,1.76-1.06,2.94-4.17,2.94s-4.11-1.19-4.11-2.94v-5.72c0-1.74,1.03-2.93,4.14-2.93s4.14,1.19,4.14,2.93"/><path class="cls-12" d="m633.6,518.72c.66-.54,1.96-1.34,3.85-1.34,2.11,0,3.14,1.19,3.14,2.8v8.26c0,.23-.08.34-.31.34h-.91c-.23,0-.34-.11-.34-.34v-7.92c0-1.03-.54-1.74-2-1.74-1.68,0-2.91.87-3.43,1.28v8.38c0,.23-.1.34-.31.34h-.91c-.26,0-.34-.11-.34-.34v-15.2c0-.23.08-.34.34-.34h.91c.21,0,.31.11.31.34v5.48Z"/><path class="cls-12" d="m650.8,527.63c-.61.51-1.83,1.34-3.73,1.34-2.11,0-3.17-1.16-3.17-2.77v-8.31c0-.23.1-.34.33-.34h.93c.23,0,.31.12.31.34v7.94c0,1.04.57,1.73,2.03,1.73,1.66,0,2.77-.84,3.27-1.26v-8.41c0-.23.1-.34.33-.34h.93c.23,0,.31.12.31.34v10.55c0,.26-.08.34-.31.34h-.84c-.26,0-.31-.08-.34-.34l-.04-.81Z"/><path class="cls-12" d="m657.44,517.89l.04.87c.63-.54,1.96-1.39,3.88-1.39,2.11,0,3.14,1.19,3.14,2.8v8.26c0,.23-.1.34-.33.34h-.9c-.23,0-.34-.11-.34-.34v-7.92c0-1.03-.54-1.74-2-1.74-1.68,0-2.91.87-3.44,1.28v8.38c0,.23-.09.34-.31.34h-.91c-.24,0-.34-.11-.34-.34v-10.55c0-.23.1-.34.34-.34h.83c.24,0,.31.11.34.34"/><path class="cls-12" d="m667.7,526.06v-5.77c0-1.73.97-2.91,3.15-2.91,1.91,0,3.23.86,3.87,1.38l.04-.87c.03-.23.09-.34.34-.34h.81c.26,0,.34.11.34.34v12.65c0,1.74-1.13,2.93-4.24,2.93h-3.1c-.23,0-.34-.09-.34-.31v-.69c0-.23.11-.31.34-.31h3.1c2.01,0,2.67-.71,2.67-1.76v-2.76c-.67.5-1.96,1.33-3.84,1.33-2.18,0-3.15-1.18-3.15-2.91m1.57-.23c0,.93.54,1.7,2,1.7,1.68,0,2.91-.88,3.42-1.27v-6.15c-.51-.41-1.74-1.3-3.42-1.3-1.46,0-2,.77-2,1.71v5.31Z"/><path class="cls-12" d="m695.18,528.44c.11.19.04.34-.17.34h-1.27c-.24,0-.39-.16-.51-.34l-5.71-6.77h-.7v6.77c0,.23-.07.34-.33.34h-.94c-.26,0-.34-.11-.34-.34v-14.77c0-.23.08-.34.34-.34h.94c.26,0,.33.11.33.34v6.78h.7l5.25-6.79c.16-.16.31-.33.57-.33h1.04c.23,0,.3.14.16.34l-5.65,7.28,6.3,7.49Z"/><path class="cls-12" d="m698.99,515.35c0,.23-.1.34-.31.34h-.91c-.26,0-.34-.11-.34-.34v-2.11c0-.23.09-.34.34-.34h.91c.21,0,.31.11.31.34v2.11Zm0,13.09c0,.23-.1.34-.31.34h-.91c-.26,0-.34-.11-.34-.34v-10.55c0-.23.09-.34.34-.34h.91c.21,0,.31.11.31.34v10.55Z"/><path class="cls-12" d="m710.65,523.1c0,.2-.1.31-.33.31h-6.42v2.53c0,1.04.54,1.76,2.63,1.76s2.64-.71,2.64-1.76v-.39c0-.23.09-.31.31-.31h.83c.23,0,.34.09.34.31v.47c0,1.76-1.03,2.94-4.17,2.94s-4.14-1.18-4.14-2.94v-5.72c0-1.74,1.06-2.93,4.18-2.93s4.12,1.19,4.12,2.93v2.8Zm-6.75-.88h5.27v-1.81c0-1.03-.64-1.76-2.64-1.76s-2.63.73-2.63,1.76v1.81Z"/><path class="cls-12" d="m715.35,528.44c0,.23-.1.34-.31.34h-.91c-.26,0-.34-.11-.34-.34v-15.2c0-.23.08-.34.34-.34h.91c.21,0,.31.11.31.34v15.2Z"/></g></g></g><rect class="cls-16" x="293.66" y="176.25" width="11.74" height="126.24"/><rect class="cls-16" x="709.09" y="177.72" width="11.74" height="126.24"/><rect class="cls-16" x="301" y="298.09" width="408.09" height="14.68"/><rect class="cls-16" x="303.94" y="177.72" width="408.09" height="14.68"/><g id="Artwork_8"><g class="cls-3"><rect class="cls-16" x="306.87" y="594.62" width="408.38" height="280.76"/><g class="cls-2"><path class="cls-18" d="m446.54,681.56c0,.64-.08,1.2-.24,1.69-.16.48-.38.9-.65,1.24-.28.35-.6.63-.96.84-.37.21-.75.37-1.14.48v.05c.48.09.93.26,1.35.51s.79.56,1.1.94c.31.37.56.82.75,1.32.19.51.28,1.07.28,1.67,0,.73-.13,1.4-.37,2-.25.61-.64,1.13-1.17,1.58-.52.44-1.19.8-1.99,1.04s-1.76.37-2.86.37h-3.77v-18.46h3.56c1.09,0,2.02.11,2.8.33.77.22,1.41.54,1.91.95.5.41.86.9,1.08,1.48.22.58.33,1.23.33,1.94m-2.35.08c0-.86-.3-1.56-.91-2.11-.61-.55-1.56-.83-2.86-.83h-1.23v6.37h1.2c1.25,0,2.19-.3,2.84-.91.64-.61.96-1.45.96-2.52m.35,8.51c0-1-.33-1.79-.98-2.37-.65-.58-1.58-.87-2.8-.87h-1.58v6.48h1.45c1.37,0,2.37-.27,2.98-.81.62-.55.92-1.35.92-2.42m14.34,5.16h-1.98v-1.44h-.05c-.05.11-.17.26-.35.47-.18.21-.4.4-.68.59-.28.19-.61.35-1,.49-.39.14-.83.21-1.31.21-.57,0-1.08-.08-1.54-.25-.46-.17-.84-.44-1.17-.82-.32-.37-.57-.86-.73-1.46-.17-.6-.26-1.33-.26-2.21v-8.43h2.17v8.27c0,1.07.17,1.84.52,2.29.35.46.89.68,1.62.68.62,0,1.15-.15,1.58-.47.43-.31.77-.62,1.02-.92v-9.85h2.17v12.85Zm10.33,0v-8.27c0-1.09-.18-1.87-.55-2.34s-.92-.71-1.67-.71c-.64,0-1.18.16-1.6.48-.43.32-.77.63-1.02.94v9.9h-2.17v-12.85h1.98v1.45h.05c.05-.11.17-.26.35-.47.18-.21.41-.4.7-.59.28-.19.62-.35,1.02-.5.39-.14.84-.21,1.34-.21.57,0,1.09.08,1.55.25.46.17.86.44,1.18.81.32.38.57.86.75,1.46.18.6.27,1.33.27,2.21v8.43h-2.17Zm4.82-6.23c0-1.3.17-2.39.51-3.27.34-.87.77-1.58,1.31-2.11.54-.53,1.14-.91,1.82-1.14.68-.22,1.36-.33,2.03-.33.41,0,.77.03,1.07.09.3.06.55.14.75.23v-6.16l2.17-.24v19.16h-1.98v-1.37h-.05c-.05.11-.15.25-.3.44-.14.19-.34.37-.59.56-.25.19-.56.35-.94.48-.37.13-.81.2-1.31.2-.6,0-1.18-.12-1.73-.36-.54-.24-1.02-.62-1.43-1.15s-.73-1.2-.98-2.03c-.24-.83-.36-1.83-.36-3.01m5.08,4.63c.34,0,.64-.05.91-.14.27-.09.5-.2.7-.33.2-.13.36-.27.5-.41.13-.14.23-.27.3-.37v-7.92c-.19-.12-.42-.23-.68-.32-.26-.09-.58-.14-.97-.14-.5,0-.97.08-1.41.26-.44.17-.82.45-1.14.84-.32.4-.58.91-.77,1.53-.18.62-.28,1.39-.28,2.3s.08,1.64.23,2.23c.15.6.36,1.08.63,1.44.27.37.57.63.91.79.34.16.7.24,1.07.24m16.14-6.9c0,.55-.02,1.03-.06,1.43-.04.4-.07.75-.1,1.05h-6.56c.07,1.52.4,2.63.98,3.35.58.71,1.42,1.07,2.5,1.07.37,0,.71-.05,1.02-.14.3-.09.57-.2.79-.32.22-.12.41-.25.57-.38.15-.12.26-.22.33-.29l.8,1.52c-.09.09-.22.22-.4.39-.18.17-.42.34-.72.51-.3.17-.68.32-1.13.44-.45.12-.97.19-1.58.19-.8,0-1.53-.13-2.18-.4-.65-.27-1.2-.68-1.66-1.24-.45-.56-.81-1.28-1.06-2.14-.25-.86-.37-1.9-.37-3.12,0-1.14.13-2.13.39-2.96.26-.83.61-1.51,1.06-2.04.44-.54.97-.93,1.55-1.19.59-.26,1.22-.39,1.9-.39,1.23,0,2.2.39,2.89,1.16s1.04,1.94,1.04,3.49m-4.07-2.89c-.77,0-1.38.32-1.84.96-.47.64-.73,1.57-.8,2.78h4.68c.02-.09.03-.22.04-.39,0-.17.01-.35.01-.55,0-.89-.18-1.58-.54-2.07-.36-.49-.87-.73-1.55-.73m12.5,1.15c-.14-.16-.41-.38-.78-.65-.38-.28-.86-.42-1.47-.42-.57,0-1.01.14-1.31.4-.3.27-.45.59-.45.96,0,.48.14.88.41,1.19.28.31.7.64,1.27,1l.8.48c.88.52,1.56,1.08,2.06,1.67.5.6.75,1.37.75,2.31,0,1.02-.35,1.87-1.06,2.57-.71.7-1.72,1.04-3.04,1.04-.52,0-.97-.05-1.37-.16-.39-.11-.74-.23-1.03-.37-.29-.14-.54-.3-.73-.47-.19-.17-.36-.33-.48-.47l1.04-1.71c.11.11.24.23.39.37.15.14.33.28.55.41.21.14.45.25.72.33.27.09.58.14.94.14.64,0,1.13-.14,1.47-.43.34-.28.52-.63.52-1.04,0-.3-.05-.57-.12-.79-.08-.22-.2-.42-.36-.6-.16-.18-.35-.35-.59-.51-.23-.16-.5-.34-.8-.53l-.8-.51c-.8-.52-1.43-1.06-1.89-1.63-.46-.57-.68-1.3-.68-2.19,0-.48.09-.92.28-1.32.19-.4.45-.75.79-1.04.34-.3.73-.53,1.19-.7.46-.17.94-.25,1.46-.25s.93.05,1.28.15c.36.1.66.22.92.38.26.15.48.3.65.46.17.15.31.28.41.39l-.94,1.55Zm10.57,10.25v-8.27c0-1.05-.15-1.81-.46-2.27-.3-.46-.79-.7-1.47-.7-.36,0-.67.05-.95.14-.28.09-.52.2-.74.33-.21.13-.4.28-.56.44-.16.16-.3.3-.4.43v9.9h-2.17v-12.85h1.98v1.45h.06c.09-.14.22-.32.4-.52.18-.21.4-.4.67-.59.27-.19.58-.34.94-.47.35-.12.76-.19,1.2-.19,1.46,0,2.5.57,3.1,1.71.12-.18.3-.37.51-.58.22-.2.46-.39.75-.56.28-.17.6-.31.96-.41.35-.11.75-.16,1.18-.16,2.61,0,3.9,1.51,3.9,4.55v8.62h-2.16v-8.27c0-1.05-.19-1.81-.56-2.27-.37-.46-.93-.7-1.66-.7-.61,0-1.11.15-1.51.44-.4.3-.72.58-.95.84.03.2.06.41.08.63.02.22.03.46.03.71v8.62h-2.17Zm14.32,0h-2.16v-12.84h2.16v12.84Zm-1.07-15.95c-.44,0-.8-.14-1.07-.43-.27-.29-.4-.66-.4-1.12s.13-.81.4-1.1c.27-.29.62-.43,1.07-.43s.78.14,1.05.43c.26.28.4.65.4,1.1s-.13.84-.4,1.12c-.27.28-.62.43-1.05.43m11.4,15.95v-8.27c0-1.09-.18-1.87-.55-2.34-.37-.47-.93-.71-1.68-.71-.64,0-1.18.16-1.6.48-.43.32-.77.63-1.02.94v9.9h-2.16v-12.85h1.98v1.45h.05c.05-.11.17-.26.34-.47.18-.21.41-.4.7-.59.29-.19.62-.35,1.02-.5.39-.14.84-.21,1.34-.21.57,0,1.09.08,1.55.25.46.17.86.44,1.18.81.32.38.57.86.75,1.46.17.6.26,1.33.26,2.21v8.43h-2.17Zm7.58,0h-2.17v-12.84h2.17v12.84Zm-1.08-15.95c-.44,0-.8-.14-1.07-.43-.27-.29-.4-.66-.4-1.12s.13-.81.4-1.1c.27-.29.62-.43,1.07-.43s.78.14,1.05.43c.26.28.4.65.4,1.1s-.13.84-.4,1.12c-.27.28-.62.43-1.05.43m9.93,5.7c-.14-.16-.4-.38-.77-.65-.38-.28-.87-.42-1.47-.42s-1.01.14-1.31.4c-.3.27-.45.59-.45.96,0,.48.14.88.41,1.19.28.31.7.64,1.27,1l.8.48c.87.52,1.56,1.08,2.06,1.67.5.6.75,1.37.75,2.31,0,1.02-.35,1.87-1.06,2.57-.7.7-1.72,1.04-3.04,1.04-.52,0-.97-.05-1.36-.16-.39-.11-.74-.23-1.03-.37-.3-.14-.54-.3-.74-.47-.2-.17-.36-.33-.48-.47l1.04-1.71c.11.11.24.23.39.37.15.14.33.28.55.41.21.14.46.25.72.33.27.09.58.14.94.14.64,0,1.13-.14,1.47-.43.34-.28.51-.63.51-1.04,0-.3-.04-.57-.12-.79-.08-.22-.19-.42-.36-.6-.16-.18-.36-.35-.59-.51-.23-.16-.5-.34-.8-.53l-.8-.51c-.8-.52-1.43-1.06-1.89-1.63-.45-.57-.68-1.3-.68-2.19,0-.48.1-.92.28-1.32.19-.4.45-.75.79-1.04.34-.3.74-.53,1.19-.7.46-.17.94-.25,1.46-.25s.93.05,1.28.15c.36.1.67.22.93.38.26.15.47.3.64.46.17.15.31.28.41.39l-.94,1.55Zm9.31-.83h-2.81v7.12c0,.91.12,1.53.35,1.86.23.33.62.5,1.18.5.32,0,.6-.05.83-.14.23-.09.4-.17.51-.24l.29,1.74c-.09.07-.3.18-.64.33-.34.15-.79.23-1.36.23-1.11,0-1.94-.31-2.49-.92-.55-.62-.83-1.64-.83-3.06v-7.41h-1.55v-1.45l1.55-.32.24-3.58h1.93v3.58h3.08l-.27,1.77Zm10.52,2.57c0,.55-.02,1.03-.06,1.43-.03.4-.07.75-.11,1.05h-6.56c.07,1.52.4,2.63.98,3.35.58.71,1.41,1.07,2.5,1.07.37,0,.71-.05,1.02-.14.3-.09.56-.2.79-.32.22-.12.41-.25.56-.38.15-.12.26-.22.34-.29l.8,1.52c-.09.09-.23.22-.4.39-.18.17-.42.34-.72.51-.3.17-.68.32-1.12.44-.45.12-.97.19-1.58.19-.8,0-1.53-.13-2.18-.4-.65-.27-1.2-.68-1.66-1.24-.45-.56-.81-1.28-1.06-2.14-.25-.86-.37-1.9-.37-3.12,0-1.14.13-2.13.39-2.96.26-.83.61-1.51,1.06-2.04.45-.54.96-.93,1.55-1.19.59-.26,1.22-.39,1.9-.39,1.23,0,2.19.39,2.89,1.16.69.77,1.04,1.94,1.04,3.49m-4.07-2.89c-.77,0-1.38.32-1.85.96-.47.64-.73,1.57-.81,2.78h4.68c.02-.09.03-.22.04-.39,0-.17.01-.35.01-.55,0-.89-.18-1.58-.54-2.07-.36-.49-.87-.73-1.55-.73m12.6.45c-.05-.03-.17-.08-.35-.13-.18-.05-.42-.08-.72-.08-.68,0-1.21.18-1.59.55-.38.37-.66.76-.82,1.19v9.42h-2.17v-12.85h1.98v1.74h.05c.09-.25.21-.5.35-.74.14-.24.32-.45.53-.64.22-.19.47-.33.76-.44.3-.11.65-.16,1.06-.16.3,0,.55.03.73.08.19.05.33.1.44.13l-.26,1.93Zm4.31,10.95h-2.17v-12.84h2.17v12.84Zm-1.07-15.95c-.45,0-.8-.14-1.08-.43-.27-.29-.4-.66-.4-1.12s.13-.81.4-1.1c.27-.29.62-.43,1.08-.43.42,0,.77.14,1.04.43.27.28.4.65.4,1.1s-.13.84-.4,1.12c-.27.28-.62.43-1.04.43m13.38,15.95h-1.98v-1.44h-.06c-.05.11-.17.26-.34.47-.18.21-.41.4-.69.59-.28.19-.61.35-1,.49-.39.14-.83.21-1.31.21-.57,0-1.09-.08-1.55-.25-.45-.17-.84-.44-1.16-.82-.32-.37-.57-.86-.74-1.46-.16-.6-.25-1.33-.25-2.21v-8.43h2.17v8.27c0,1.07.18,1.84.52,2.29.35.46.89.68,1.62.68.62,0,1.15-.15,1.58-.47.43-.31.77-.62,1.02-.92v-9.85h2.17v12.85Zm10.06,0v-8.27c0-1.05-.15-1.81-.46-2.27-.3-.46-.79-.7-1.47-.7-.36,0-.67.05-.95.14-.27.09-.52.2-.73.33-.22.13-.4.28-.56.44-.16.16-.29.3-.4.43v9.9h-2.17v-12.85h1.98v1.45h.06c.09-.14.22-.32.4-.52.18-.21.4-.4.67-.59.27-.19.58-.34.93-.47.36-.12.76-.19,1.21-.19,1.46,0,2.5.57,3.1,1.71.12-.18.29-.37.51-.58.21-.2.46-.39.74-.56.29-.17.61-.31.97-.41.36-.11.75-.16,1.18-.16,2.6,0,3.91,1.51,3.91,4.55v8.62h-2.17v-8.27c0-1.05-.19-1.81-.56-2.27-.37-.46-.93-.7-1.66-.7-.61,0-1.11.15-1.51.44-.41.3-.72.58-.95.84.03.2.06.41.08.63.02.22.03.46.03.71v8.62h-2.17Zm-168.55,15.9h-2.62v11.08h-2.17v-11.08h-1.55v-1.44l1.55-.29v-2.57c0-.7.1-1.29.3-1.79.19-.5.45-.91.77-1.23s.7-.55,1.12-.7c.43-.14.88-.21,1.37-.21s.86.06,1.18.19c.32.12.53.22.64.29l-.46,1.79c-.11-.07-.26-.15-.46-.23-.19-.08-.44-.12-.72-.12-.52,0-.91.16-1.18.48-.27.32-.4.91-.4,1.77v2.3h2.89l-.27,1.76Zm11.13,11.08h-1.98v-1.44h-.05c-.06.1-.17.26-.35.47-.18.2-.4.4-.68.59-.27.18-.61.35-1,.49-.39.14-.83.21-1.31.21-.57,0-1.08-.08-1.54-.25-.45-.17-.84-.44-1.16-.82-.32-.37-.57-.86-.74-1.46-.17-.6-.25-1.33-.25-2.21v-8.43h2.17v8.27c0,1.07.17,1.83.52,2.29s.89.68,1.62.68c.62,0,1.15-.16,1.58-.47.43-.31.77-.62,1.02-.92v-9.85h2.17v12.84Zm-5.32-16.54c0,.41-.12.74-.37.99-.25.25-.55.37-.91.37s-.66-.13-.91-.37c-.25-.25-.38-.58-.38-.99s.13-.74.38-.99.55-.37.91-.37.66.13.91.37.37.58.37.99m4.12,0c0,.41-.13.74-.37.99-.25.25-.56.37-.91.37s-.66-.13-.91-.37c-.25-.25-.38-.58-.38-.99s.13-.74.38-.99.55-.37.91-.37.66.13.91.37c.25.25.37.58.37.99m10.17,5.59c-.05-.04-.17-.08-.35-.14-.18-.05-.42-.08-.72-.08-.68,0-1.21.18-1.59.55-.39.37-.66.76-.82,1.19v9.42h-2.17v-12.84h1.98v1.74h.05c.09-.25.2-.5.35-.73.14-.24.32-.46.53-.64.22-.19.47-.33.76-.44.29-.11.65-.16,1.06-.16.3,0,.55.03.74.08.19.05.33.1.44.13l-.27,1.93Zm17.34-2.81c0,.64-.08,1.2-.24,1.69-.16.48-.38.9-.66,1.24-.28.35-.6.63-.96.84-.37.22-.75.37-1.14.48v.06c.48.09.93.26,1.35.51.42.25.79.56,1.1.94.31.37.56.82.75,1.33.19.51.28,1.06.28,1.67,0,.73-.12,1.4-.37,2-.25.61-.64,1.13-1.17,1.58-.53.45-1.19.79-1.99,1.04-.8.25-1.76.37-2.86.37h-3.77v-18.46h3.56c1.09,0,2.02.11,2.8.33.78.23,1.42.54,1.91.95.5.41.86.91,1.08,1.49.22.58.33,1.23.33,1.94m-2.35.08c0-.86-.3-1.56-.91-2.11-.61-.56-1.56-.83-2.86-.83h-1.23v6.37h1.2c1.25,0,2.19-.3,2.84-.91.64-.61.96-1.44.96-2.51m.35,8.51c0-1-.33-1.79-.98-2.37s-1.58-.87-2.8-.87h-1.58v6.47h1.44c1.37,0,2.37-.27,2.98-.81.62-.54.92-1.35.92-2.42m7.52,5.16h-2.17v-12.84h2.17v12.84Zm-1.07-15.95c-.44,0-.8-.14-1.07-.43-.27-.29-.4-.66-.4-1.13s.13-.81.4-1.1c.27-.28.62-.43,1.07-.43s.78.14,1.04.43c.27.29.4.65.4,1.1,0,.46-.13.84-.4,1.13-.27.29-.61.43-1.04.43m6.53,12.95c0,.53.07.91.23,1.13.15.21.41.32.79.32.19,0,.36-.02.5-.05.13-.04.24-.07.3-.11l.19,1.61c-.11.05-.3.12-.59.21-.28.09-.67.13-1.15.13-.73,0-1.32-.22-1.77-.67-.44-.44-.67-1.24-.67-2.38v-16.11l2.17-.24v16.16Zm3.37-3.24c0-1.3.17-2.39.51-3.26.34-.87.78-1.58,1.31-2.11.53-.53,1.14-.91,1.82-1.14.68-.22,1.36-.33,2.03-.33.41,0,.77.03,1.07.09.3.06.56.14.75.23v-6.15l2.17-.24v19.16h-1.98v-1.37h-.05c-.05.11-.15.25-.29.44-.15.19-.34.37-.59.56-.25.18-.56.35-.94.48-.37.13-.81.2-1.31.2-.61,0-1.18-.12-1.73-.36-.54-.24-1.02-.62-1.43-1.15s-.74-1.2-.98-2.03c-.24-.83-.36-1.83-.36-3.01m5.08,4.63c.34,0,.64-.05.91-.13.27-.09.5-.2.7-.33.2-.13.36-.27.5-.42.14-.14.24-.26.31-.37v-7.92c-.19-.12-.43-.23-.68-.32-.26-.09-.59-.13-.98-.13-.5,0-.97.08-1.4.25-.44.17-.82.45-1.14.84-.32.39-.58.9-.76,1.53-.19.62-.28,1.39-.28,2.3s.08,1.64.23,2.24c.15.6.36,1.08.63,1.44s.57.63.91.79c.34.16.7.24,1.07.24m16.88,1.61h-1.98v-1.44h-.05c-.06.1-.17.26-.35.47-.18.2-.41.4-.68.59-.28.18-.61.35-1,.49-.39.14-.83.21-1.31.21-.57,0-1.08-.08-1.53-.25-.46-.17-.85-.44-1.17-.82-.32-.37-.57-.86-.74-1.46-.17-.6-.25-1.33-.25-2.21v-8.43h2.17v8.27c0,1.07.17,1.83.52,2.29.35.45.88.68,1.62.68.63,0,1.15-.16,1.58-.47.42-.31.77-.62,1.01-.92v-9.85h2.17v12.84Zm10.33,0v-8.27c0-1.09-.18-1.87-.55-2.34-.36-.47-.92-.71-1.67-.71-.64,0-1.18.16-1.6.48-.43.32-.77.63-1.02.94v9.9h-2.17v-12.84h1.98v1.44h.06c.05-.11.17-.26.35-.47.18-.21.41-.4.7-.59.28-.19.62-.35,1.02-.5.39-.14.84-.21,1.34-.21.57,0,1.09.08,1.55.25.46.17.85.44,1.17.82.32.37.57.86.75,1.46.18.6.27,1.34.27,2.21v8.43h-2.17Zm14.61-11.16h-1.6c.41.68.62,1.45.62,2.3,0,.68-.11,1.29-.33,1.83-.22.55-.53,1-.94,1.38-.4.38-.88.66-1.42.86-.54.2-1.13.3-1.75.3h-.35c-.1,0-.22-.01-.34-.03-.21.09-.44.23-.67.43-.23.2-.34.46-.34.78,0,.27.1.48.31.66.21.17.54.25,1,.25h1.63c.61,0,1.17.06,1.69.19.52.13.97.33,1.35.6.39.28.69.63.9,1.06.21.43.32.95.32,1.55,0,.7-.15,1.33-.44,1.9-.3.57-.71,1.06-1.24,1.47-.54.41-1.18.73-1.95.97-.77.23-1.62.35-2.57.35-1.37,0-2.42-.3-3.13-.9-.71-.6-1.07-1.46-1.07-2.58,0-.48.08-.9.25-1.24.17-.35.37-.65.61-.91.23-.26.47-.46.71-.62.24-.15.44-.27.58-.36v-.06c-.56-.41-.83-1.01-.83-1.79,0-.34.06-.63.2-.88.13-.25.28-.45.45-.62.17-.16.34-.29.51-.39s.3-.17.39-.2v-.05c-.66-.3-1.19-.78-1.59-1.43-.4-.65-.61-1.48-.61-2.5,0-.71.12-1.34.35-1.89.23-.54.54-.99.93-1.35.4-.36.85-.62,1.38-.8.52-.18,1.09-.27,1.7-.27s1.18.11,1.71.32h3.91l-.3,1.68Zm-5.97,10.76c-.37,0-.7-.03-.99-.08-.16.09-.32.19-.47.32-.15.13-.29.28-.42.46-.12.18-.22.39-.31.63-.08.24-.12.52-.12.84,0,1.37.76,2.06,2.27,2.06,1.31,0,2.27-.25,2.89-.76.62-.51.93-1.09.93-1.75s-.19-1.07-.59-1.33c-.39-.26-.92-.39-1.58-.39h-1.63Zm2.86-8.46c0-.93-.22-1.59-.66-1.98-.43-.39-.95-.59-1.54-.59-.62,0-1.16.19-1.6.59-.44.39-.67,1.05-.67,1.98s.23,1.59.67,1.98c.44.39.96.59,1.55.59.62,0,1.16-.19,1.59-.59.44-.39.66-1.05.66-1.98m-92,35.84h-1.98v-1.44h-.05c-.06.11-.17.26-.35.47-.18.21-.41.4-.68.59-.28.19-.61.36-1,.5-.39.14-.83.22-1.31.22-.57,0-1.08-.08-1.54-.26-.45-.17-.84-.44-1.16-.82-.32-.38-.57-.86-.74-1.46-.17-.6-.25-1.33-.25-2.21v-8.43h2.17v8.27c0,1.07.17,1.83.52,2.29.35.45.89.68,1.62.68.62,0,1.15-.15,1.58-.47.43-.31.77-.61,1.02-.92v-9.85h2.17v12.84Zm10.33,0v-8.27c0-1.09-.18-1.87-.55-2.34-.37-.47-.92-.71-1.67-.71-.64,0-1.17.16-1.6.48-.43.32-.77.63-1.02.94v9.9h-2.17v-12.84h1.98v1.45h.05c.05-.11.17-.26.35-.47.18-.21.41-.4.7-.59.29-.19.62-.35,1.02-.5.39-.14.84-.22,1.34-.22.57,0,1.09.09,1.55.25.46.17.86.44,1.18.82.32.37.57.86.75,1.46.18.59.27,1.33.27,2.21v8.42h-2.17Zm4.81-6.23c0-1.3.17-2.39.51-3.26.34-.88.78-1.58,1.31-2.11.53-.53,1.14-.91,1.82-1.14.68-.23,1.36-.34,2.03-.34.41,0,.77.03,1.07.1.3.06.55.14.75.23v-6.16l2.17-.24v19.16h-1.98v-1.36h-.05c-.05.11-.15.25-.29.44-.14.19-.34.37-.59.56-.25.19-.56.34-.94.48-.38.14-.81.2-1.31.2-.61,0-1.18-.12-1.73-.36-.54-.24-1.02-.62-1.43-1.15-.41-.53-.73-1.2-.97-2.03-.24-.83-.36-1.83-.36-3.01m5.08,4.62c.34,0,.64-.04.91-.13.27-.09.5-.2.7-.33.2-.13.36-.27.5-.42.13-.14.24-.26.31-.37v-7.92c-.2-.12-.42-.23-.68-.32-.26-.09-.59-.14-.98-.14-.5,0-.97.08-1.4.25-.44.17-.82.45-1.14.84-.32.39-.57.9-.76,1.53-.19.62-.28,1.39-.28,2.3s.08,1.64.23,2.24c.15.6.36,1.08.63,1.44.27.36.57.63.91.79.34.16.7.24,1.07.24m14.02,1.61v-18.46h9.07l-.16,1.85h-6.58v6.83h6.07v1.85h-6.07v7.94h-2.33Zm10.7-6.42c0-1.18.14-2.2.42-3.05.27-.86.65-1.56,1.12-2.1.47-.55,1.02-.95,1.64-1.2.61-.26,1.27-.39,1.96-.39s1.37.13,1.98.39c.61.26,1.13.66,1.58,1.2.45.54.8,1.24,1.06,2.1.26.86.39,1.87.39,3.05s-.13,2.22-.4,3.08c-.27.85-.64,1.55-1.11,2.1-.47.54-1.02.94-1.65,1.19-.62.24-1.29.37-1.98.37s-1.37-.13-1.98-.37c-.61-.25-1.13-.65-1.58-1.19-.44-.55-.8-1.24-1.06-2.09-.26-.84-.39-1.88-.39-3.09m7.89,0c0-1.71-.25-2.96-.75-3.73-.5-.78-1.2-1.17-2.09-1.17s-1.58.39-2.08,1.17c-.49.78-.73,2.02-.73,3.73s.25,2.94.75,3.69c.5.75,1.2,1.12,2.09,1.12s1.58-.37,2.07-1.12c.49-.75.73-1.98.73-3.69m10.63-4.52c-.06-.04-.17-.08-.35-.14-.18-.05-.42-.08-.72-.08-.68,0-1.21.18-1.59.55-.39.37-.66.76-.82,1.19v9.42h-2.17v-12.84h1.98v1.74h.05c.09-.25.2-.5.35-.74.14-.24.32-.46.53-.64.22-.19.47-.34.76-.44.3-.11.65-.16,1.06-.16.3,0,.55.03.74.08.19.05.33.1.44.13l-.26,1.93Zm7.57.7c-.14-.16-.4-.38-.78-.66-.37-.28-.87-.41-1.47-.41s-1.01.13-1.32.4c-.3.27-.45.59-.45.96,0,.48.14.88.42,1.19.28.32.7.64,1.27,1l.8.49c.87.52,1.56,1.08,2.07,1.67.5.6.75,1.37.75,2.31,0,1.01-.35,1.87-1.06,2.57-.7.69-1.72,1.04-3.04,1.04-.51,0-.97-.05-1.36-.16-.39-.11-.73-.23-1.03-.37-.3-.14-.54-.3-.74-.47-.19-.17-.36-.32-.48-.47l1.04-1.71c.1.11.24.23.39.37.15.15.33.29.55.42.21.13.46.24.72.33.27.09.58.13.93.13.64,0,1.14-.14,1.47-.43.34-.28.51-.63.51-1.04,0-.3-.04-.56-.12-.79-.08-.22-.2-.42-.36-.6-.16-.18-.36-.35-.59-.51-.23-.16-.5-.34-.8-.53l-.8-.51c-.8-.52-1.43-1.06-1.89-1.63-.46-.57-.68-1.3-.68-2.2,0-.48.09-.92.28-1.33.19-.4.45-.75.79-1.04.34-.3.73-.53,1.19-.7.46-.17.94-.25,1.46-.25s.93.05,1.28.15c.36.1.66.22.92.37.26.15.47.3.64.46.17.15.3.28.41.39l-.93,1.55Zm10.97-.1c-.05-.05-.14-.14-.25-.24-.12-.1-.26-.21-.44-.32-.18-.11-.39-.2-.64-.28-.24-.08-.53-.12-.85-.12-.47,0-.9.08-1.3.25-.4.17-.75.44-1.05.82-.3.38-.53.86-.7,1.46-.17.6-.25,1.33-.25,2.18,0,.95.07,1.74.23,2.38.15.64.36,1.16.63,1.55.27.38.59.65.98.82.39.17.8.25,1.27.25.66,0,1.17-.11,1.51-.34.35-.23.6-.42.74-.56l.88,1.5c-.09.1-.22.23-.39.39-.17.15-.39.3-.66.44-.26.14-.59.26-.97.36-.38.1-.83.15-1.32.15-.72,0-1.38-.12-2.01-.35-.63-.23-1.17-.61-1.64-1.15-.46-.54-.83-1.23-1.09-2.08-.27-.86-.41-1.92-.41-3.18s.16-2.28.48-3.14c.32-.86.74-1.55,1.26-2.08.52-.52,1.09-.91,1.72-1.15.64-.24,1.28-.36,1.91-.36.48,0,.91.05,1.27.14.37.09.68.2.94.33.26.13.47.28.64.43.17.15.31.28.42.39l-.91,1.53Zm10.19,10.35v-8.27c0-1.09-.18-1.87-.55-2.34-.37-.47-.93-.71-1.67-.71-.64,0-1.17.16-1.61.48-.43.32-.76.63-1.02.94v9.9h-2.17v-18.92l2.17-.24v7.63h.05c.07-.11.18-.25.34-.43.15-.18.36-.36.62-.53.27-.18.6-.33.98-.47.39-.13.84-.2,1.35-.2,1.12,0,2.01.37,2.67,1.1.66.73.99,1.94.99,3.64v8.42h-2.17Zm14.4,0h-1.98v-1.44h-.06c-.05.11-.17.26-.35.47-.18.21-.41.4-.68.59-.28.19-.61.36-1,.5-.39.14-.83.22-1.31.22-.57,0-1.08-.08-1.54-.26-.45-.17-.85-.44-1.16-.82-.32-.38-.57-.86-.74-1.46-.17-.6-.25-1.33-.25-2.21v-8.43h2.16v8.27c0,1.07.18,1.83.52,2.29.35.45.89.68,1.62.68.63,0,1.15-.15,1.58-.47.43-.31.77-.61,1.02-.92v-9.85h2.17v12.84Zm10.33,0v-8.27c0-1.09-.19-1.87-.55-2.34-.37-.47-.92-.71-1.67-.71-.64,0-1.18.16-1.61.48-.43.32-.77.63-1.02.94v9.9h-2.17v-12.84h1.98v1.45h.06c.05-.11.17-.26.35-.47.17-.21.41-.4.7-.59.29-.19.62-.35,1.02-.5.39-.14.84-.22,1.34-.22.57,0,1.09.09,1.55.25.46.17.86.44,1.18.82.32.37.57.86.75,1.46.18.59.26,1.33.26,2.21v8.42h-2.16Zm14.61-11.16h-1.6c.41.68.62,1.44.62,2.3,0,.68-.11,1.29-.33,1.84-.23.54-.54,1-.93,1.38-.41.38-.88.66-1.42.86-.54.2-1.13.3-1.75.3h-.35c-.11,0-.22-.01-.34-.03-.22.1-.44.23-.67.43-.23.19-.35.45-.35.77,0,.27.1.48.31.66.2.16.54.25,1,.25h1.63c.61,0,1.17.06,1.69.19.52.12.97.32,1.35.6.38.28.68.63.89,1.06.21.43.33.95.33,1.55,0,.7-.15,1.33-.44,1.9-.3.57-.71,1.06-1.25,1.47-.53.41-1.18.73-1.95.96-.77.23-1.62.35-2.57.35-1.38,0-2.42-.3-3.13-.9-.71-.59-1.07-1.45-1.07-2.58,0-.48.08-.9.25-1.25.17-.35.37-.65.6-.91.23-.26.47-.46.71-.62.24-.15.43-.28.57-.36v-.06c-.55-.41-.83-1-.83-1.79,0-.34.06-.63.2-.88.13-.25.28-.45.45-.61.17-.16.34-.29.51-.39.17-.1.3-.17.39-.2v-.05c-.66-.3-1.19-.78-1.59-1.43-.4-.65-.6-1.49-.6-2.5,0-.71.12-1.34.35-1.89.23-.55.54-1,.93-1.35.4-.36.85-.62,1.38-.8.53-.18,1.09-.27,1.69-.27s1.18.11,1.71.32h3.91l-.3,1.69Zm-5.96,10.75c-.38,0-.7-.02-.99-.08-.16.09-.32.19-.47.32-.15.13-.29.28-.41.46-.13.18-.23.39-.31.63-.08.24-.12.52-.12.84,0,1.38.76,2.06,2.27,2.06,1.3,0,2.26-.26,2.89-.77.62-.51.93-1.09.93-1.75,0-.62-.19-1.06-.59-1.33-.39-.26-.91-.39-1.58-.39h-1.63Zm2.87-8.45c0-.93-.22-1.59-.66-1.98-.44-.39-.95-.59-1.54-.59-.62,0-1.16.2-1.6.59-.45.39-.67,1.05-.67,1.98s.22,1.59.67,1.98c.44.39.97.59,1.55.59.62,0,1.16-.19,1.6-.59.44-.39.66-1.05.66-1.98"/><polygon class="cls-15" points="416.75 767.27 420.12 767.27 420.12 812.24 412.25 812.24 412.25 767.27 416.75 767.27"/><polygon class="cls-17" points="416.75 722.08 420.12 722.08 420.12 767.27 412.25 767.27 412.25 722.08 416.75 722.08"/><path class="cls-18" d="m391.77,693.05c2.3,3.64,4.1,3.58,6.82,3.58-2.25-1.73-3.74-3.93-4.45-5.06l-4.2-6.73c-.41-2.08-1.49-4.02-3.1-5.46.54-.21.99-.42,1.26-.62-2.75,0-5.47-1.39-6.97-1.39-.96,0-1.58.57-1.58,1.33.06.85.93,1.71,2.55,1.71.37,0,.83-.05,1.34-.13.88,1.22,1.58,2.31,1.58,3.88,0,2.94-3.52,5.24-7.08,5.24-.2,0-.39,0-.59-.02-.32-.73-1.39-1.96-1.39-3.35,0-2.34,1.53-4.25,1.53-6.57,0-1.44-.7-2.33-.97-2.7.44-.4.91-.9,1.03-1.24-.25.11-.55.12-1,.12-1.7,0-3.09-.44-4.45-.44-.77,0-.98.24-.98.47,0,.08.01.17.04.21-.29-.11-.56-.19-.88-.25-.4-.08-.83-.11-1.29-.11-1.64,0-2.23.69-2.23,1.28,0,.5.39,1.41.84,2.11.64-.32,1.41-.54,1.77-.54.87,0,1.65.83,2.06,1.82-.59.07-.7.1-1.3.1-1.6,0-2.69-.57-2.92-.57-.02,0-.06,0-.06.05,0,.23.45.82,1.35,1.15,1.18.43,2.95.61,3.24.66,0,.05-.3.61-.63.72-.07.03-.13.03-.21.01-1.23-.24-1.58-.35-3.14-.94-.05-.02-.08.01-.08.06,0,.62,1.6,1.98,3.03,2.51-1.2,1.53-2.7,3.09-3.4,5.48-.2.02-.39.02-.59.02-3.55,0-7.08-2.3-7.08-5.24,0-1.57.7-2.67,1.58-3.88.51.08.98.13,1.34.13,1.61,0,2.49-.86,2.55-1.71,0-.76-.62-1.33-1.58-1.33-1.5,0-4.22,1.39-6.96,1.39.27.2.72.42,1.26.62-1.61,1.44-2.68,3.39-3.1,5.46l-4.2,6.73c-.71,1.13-2.2,3.34-4.45,5.06,2.72,0,4.52.06,6.83-3.58l2.16-3.45c.16.45.36.88.59,1.31l-4.29,6.86c-.71,1.14-2.19,3.33-4.45,5.06,2.72,0,4.52.06,6.83-3.57l3.69-5.91c.28.29.57.58.88.86l-5.21,8.34c-.71,1.14-2.19,3.32-4.45,5.06,2.72,0,4.53.07,6.83-3.57l5.08-8.13c.33.21.68.42,1.03.61l-6.2,9.92c-.72,1.14-2.19,3.32-4.45,5.06,2.72,0,4.52.06,6.83-3.58l6.38-10.22c.38.15.76.28,1.15.41l-7.21,11.54c-.7,1.13-2.21,3.34-4.45,5.06,2.72,0,4.53.06,6.83-3.57l7.69-12.3c.08.01.15.03.23.04.21.67.35,1.29.35,1.91,0,3.87-2.54,7.28-5.58,9.91.19.09.53.11.85.11.63,0,1.04-.03,1.32-.08-.71,1.6-2.22,3.67-2.99,4.74-1-.18-2.45-.32-3.4-.32s-1.1.58-1.1,1.1c0,.9.42,1.62.91,2.02.18-.46.55-1.08,2.39-1.08.03,0,.1,0,.18.01-.54.6-2.22,1.95-2.22,3.05,0,.72.79,1.81,1.84,1.81-.06-.23-.06-.45-.06-.61,0-.89.79-1.92,1.45-2.65-.02.22,0,.19,0,.44,0,2.09.19,3.06,1.52,3.06.65,0,1.1-.36,1.26-.47-.86-.79-.91-1.42-.91-2.59,0-.3,0-.6,0-1.02,0-.27,0-.62-.05-.88.48-.06.67-.06,1.03-.06,0,0,1.89-.15,2.34.83.51-.47,1.26-1.13,1.26-1.86,0-.48-.23-1.03-1.2-1.03-.37,0-1.53.23-2.5.23.26-.58,1.42-2.28,2.42-3.5.15.48.39.99.91,1.41.07-.79.54-3.29,1.77-4.75.15.99.34,2,.34,4.14,0,5.2-1.25,9.04-3.91,9.78.34.6,1.08,1.14,1.84,1.14.97,0,1.5-1.1,2.04-2.13.28.76,1.06,2.64,1.84,2.64s1.55-1.87,1.83-2.64c.54,1.03,1.07,2.13,2.04,2.13.75,0,1.49-.54,1.83-1.14-2.65-.73-3.91-4.58-3.91-9.78,0-2.14.19-3.15.34-4.14,1.24,1.46,1.7,3.96,1.78,4.75.52-.42.76-.94.92-1.41,1,1.23,2.16,2.92,2.42,3.5-.97,0-2.13-.23-2.5-.23-.97,0-1.2.55-1.2,1.03,0,.73.74,1.39,1.25,1.86.46-.98,2.34-.83,2.34-.83.37,0,.56,0,1.03.06-.04.26-.05.61-.04.88,0,.41,0,.71,0,1.02,0,1.17-.04,1.8-.91,2.59.16.11.61.47,1.26.47,1.33,0,1.52-.96,1.52-3.06,0-.25,0-.23,0-.44.66.72,1.45,1.76,1.45,2.65,0,.16,0,.38-.06.61,1.05,0,1.84-1.09,1.84-1.81,0-1.09-1.68-2.45-2.22-3.05.09,0,.15-.01.18-.01,1.84,0,2.21.62,2.39,1.08.49-.4.91-1.12.91-2.02,0-.52-.11-1.1-1.11-1.1s-2.4.14-3.4.32c-.77-1.07-2.28-3.14-2.99-4.74.28.05.69.08,1.32.08.32,0,.65-.03.85-.11-3.04-2.63-5.58-6.05-5.58-9.91,0-.62.15-1.24.35-1.91.08-.01.16-.03.23-.04l7.69,12.3c2.3,3.64,4.11,3.57,6.82,3.57-2.24-1.72-3.74-3.93-4.45-5.06l-7.21-11.54c.39-.13.77-.26,1.15-.41l6.38,10.22c2.3,3.64,4.1,3.58,6.83,3.58-2.27-1.74-3.73-3.92-4.45-5.06l-6.2-9.92c.35-.19.7-.4,1.03-.61l5.08,8.13c2.3,3.64,4.1,3.57,6.82,3.57-2.26-1.73-3.73-3.92-4.45-5.06l-5.21-8.34c.31-.27.6-.56.87-.86l3.69,5.91c2.3,3.64,4.1,3.57,6.83,3.57-2.26-1.73-3.73-3.93-4.45-5.06l-4.29-6.86c.23-.43.43-.86.59-1.31l2.16,3.45Zm-34.42-7.9c0-2.56,1.86-4.59,2.52-5.16.16.04.32.08.47.11-.7.85-1.93,2.28-1.93,4.17,0,3.75,4.01,7.01,8.54,7.01-.03.32-.04.66-.04,1,0,.55.03,1.07.09,1.55-5.13-.03-9.65-4.19-9.65-8.68m6.95,30.74l-.03.09h.09c1.44,0,2.14-.1,2.6-.17.24-.03.42-.06.61-.06.37,0,.66.04.66.49,0,.31-.36.8-.71,1.08-.53-.5-1.26-.6-2.34-.6-.5,0-1.17.09-1.52.14h-.06s-.06.02-.06.02l.02.17c.04.3.09.67.09,1.17v.45s-.01.57-.01.57c0,1.22.17,1.92.6,2.45-.11.04-.29.08-.41.08-.76,0-.98-.33-.98-2.52,0-.44-.02-.85-.04-1.13l-.02-.4-.1.07c-1.13.86-2.29,2.4-2.36,3.55-.34-.22-.71-.71-.71-1.09,0-.63.94-1.57,2.04-2.66l.63-.63.08-.08-.21-.05c-.23-.06-.67-.17-1.04-.17-1.23,0-1.99.23-2.47.75-.17-.24-.31-.82-.31-1.15,0-.22.04-.37.13-.46.11-.1.28-.1.42-.1h.03c1.35,0,2.96.24,3.59.34h.04s.02-.02.02-.02c.11-.15,2.68-3.57,3.35-5.39.15-.06.29-.1.56-.1.51,0,.65.34.79.87-1.61,1.95-2.61,3.47-2.98,4.52m13.88-5.38c.27,0,.4.04.56.1.67,1.82,3.24,5.25,3.35,5.39l.03.03h.04c.63-.11,2.24-.35,3.59-.35h.03c.15,0,.31,0,.42.1.09.09.13.24.13.46,0,.33-.14.91-.31,1.15-.47-.52-1.24-.75-2.47-.75-.37,0-.8.11-1.04.17l-.1.02-.11.03.71.71c1.09,1.09,2.04,2.03,2.04,2.66,0,.38-.37.87-.71,1.09-.07-1.15-1.24-2.69-2.36-3.55l-.1-.07-.02.4c-.02.28-.04.69-.04,1.13,0,2.19-.22,2.52-.98,2.52-.12,0-.3-.03-.41-.08.43-.53.6-1.22.6-2.45v-.57s-.01-.45-.01-.45c0-.5.06-.87.09-1.17l.02-.17-.12-.02c-.35-.05-1.01-.14-1.52-.14-1.08,0-1.81.1-2.34.6-.35-.28-.71-.77-.71-1.08,0-.46.28-.49.66-.49.19,0,.36.03.61.06.46.07,1.17.17,2.6.17h.09l-.03-.09c-.37-1.04-1.37-2.56-2.98-4.52.15-.52.29-.87.79-.87m-5.96-29.91c-.16-.66-.5-1.35-.93-1.86-.4-.47-1.05-1.02-1.93-1.02-.4,0-1.08.19-1.51.37-.16-.29-.48-.99-.48-1.31s.55-.66,1.6-.66c2.32,0,3.71,1.05,3.71,2.81,0,.62-.24,1.18-.47,1.68m1.04-2.29c-.08-.5-.27-.95-.56-1.33.01-.45.2-.89.93-.53-.4.41-.09,1.12-.09,1.12,0,0,.81-.38.64-.91,1.2.29.34,1.9-.92,1.65m4.52,15.51c.06-.5.1-1.02.1-1.55,0-.29,0-.62-.03-1.01,4.48-.06,8.41-3.29,8.41-7.01,0-1.89-1.23-3.32-1.93-4.17.16-.03.31-.07.47-.11.66.57,2.52,2.6,2.52,5.16,0,4.45-4.45,8.59-9.54,8.68"/><polygon class="cls-18" points="420.12 677.33 420.12 722.3 416.75 722.3 412.25 722.3 412.25 677.33 420.12 677.33"/><path class="cls-18" d="m442.03,623.92c0-1.34-.55-2.06-2.02-2.06-.46,0-2.09.08-2.09,2.46v3.84c0,2.49.72,3.12,2.09,3.12,1.04,0,1.73-.28,2.03-.5v-3.41h-2.1v-1.26h3.54v5.53c-.93.5-2.02.85-3.48.85-2.41,0-3.58-1.25-3.58-4.4v-3.73c0-2.27,1.17-3.72,3.58-3.72s3.63.9,3.53,3.28h-1.51Z"/><polygon class="cls-18" points="446.21 632.25 446.21 620.88 452.07 620.88 452.07 622.14 447.66 622.14 447.66 625.79 451.75 625.79 451.75 627.05 447.66 627.05 447.66 630.99 452.16 630.99 452.16 632.25 446.21 632.25"/><polygon class="cls-18" points="453.98 632.25 453.98 620.88 459.62 620.88 459.62 622.14 455.42 622.14 455.42 625.79 459.4 625.79 459.4 627.05 455.42 627.05 455.42 632.25 453.98 632.25"/><path class="cls-18" d="m461.03,628.09v-3.73c0-2.27,1.17-3.72,3.58-3.72s3.58,1.45,3.58,3.72v3.73c0,3.15-1.17,4.4-3.58,4.4s-3.58-1.24-3.58-4.4m2.95-8.56h-1.48v-1.64h1.48v1.64Zm2.72,8.62v-3.85c0-2.38-1.64-2.46-2.09-2.46s-2.1.08-2.1,2.46v3.85c0,2.49.73,3.12,2.1,3.12s2.09-.63,2.09-3.12m.05-8.62h-1.48v-1.64h1.48v1.64Z"/><path class="cls-18" d="m472.13,627.02v5.23h-1.45v-11.38h3.92c2.02,0,2.73,1.42,2.73,2.84,0,1.34-.74,2.36-2.08,2.6v.03c1.31.21,1.78.65,1.86,2.93.01.49.17,2.27.39,2.98h-1.51c-.41-.79-.31-2.27-.44-3.78-.11-1.39-1.23-1.45-1.72-1.45h-1.7Zm0-1.26h2.18c1.04,0,1.54-.9,1.54-1.89,0-.82-.41-1.73-1.53-1.73h-2.19v3.63Z"/><path class="cls-18" d="m479.5,620.88h3.5c1.45,0,2.49.52,3.06,1.73.46.96.5,3.23.5,3.59,0,2.43-.22,3.83-.7,4.59-.61.98-1.76,1.46-3.75,1.46h-2.62v-11.38Zm1.45,10.12h1.37c2.02,0,2.76-.76,2.76-3.4v-2.3c0-2.3-.71-3.15-2.22-3.15h-1.91v8.85Z"/><polygon class="cls-18" points="489.1 632.25 489.1 620.88 494.96 620.88 494.96 622.14 490.55 622.14 490.55 625.79 494.64 625.79 494.64 627.05 490.55 627.05 490.55 630.99 495.05 630.99 495.05 632.25 489.1 632.25"/><path class="cls-18" d="m498.4,627.02v5.23h-1.45v-11.38h3.92c2.02,0,2.73,1.42,2.73,2.84,0,1.34-.74,2.36-2.08,2.6v.03c1.3.21,1.78.65,1.86,2.93.02.49.17,2.27.4,2.98h-1.51c-.41-.79-.32-2.27-.44-3.78-.11-1.39-1.23-1.45-1.72-1.45h-1.7Zm0-1.26h2.17c1.04,0,1.55-.9,1.55-1.89,0-.82-.41-1.73-1.53-1.73h-2.18v3.63Z"/><polygon class="cls-18" points="512.12 620.88 512.12 622.14 509.12 622.14 509.12 632.25 507.67 632.25 507.67 622.14 504.68 622.14 504.68 620.88 512.12 620.88"/><polygon class="cls-18" points="521.07 632.25 519.34 632.25 516.04 620.88 517.62 620.88 520.22 630.88 520.25 630.88 522.91 620.88 524.39 620.88 521.07 632.25"/><path class="cls-18" d="m525.83,628.09v-3.73c0-2.27,1.17-3.72,3.58-3.72s3.57,1.45,3.57,3.72v3.73c0,3.15-1.16,4.4-3.57,4.4s-3.58-1.24-3.58-4.4m5.67.06v-3.85c0-2.38-1.64-2.46-2.09-2.46s-2.1.08-2.1,2.46v3.85c0,2.49.72,3.12,2.1,3.12s2.09-.63,2.09-3.12"/><polygon class="cls-18" points="536.87 632.25 535.52 632.25 535.52 620.88 537.86 620.88 540.73 630.43 540.77 630.43 543.67 620.88 546.06 620.88 546.06 632.25 544.61 632.25 544.61 622.14 544.58 622.14 541.4 632.25 540.02 632.25 536.9 622.14 536.87 622.14 536.87 632.25"/></g></g></g></svg>