<?xml version="1.0" encoding="utf-8"?>
<!-- Generator: Adobe Illustrator 27.6.0, SVG Export Plug-In . SVG Version: 6.00 Build 0)  -->
<svg version="1.1" id="Layer_2_00000125565885540853706470000001495074002687753377_"
	 xmlns="http://www.w3.org/2000/svg" xmlns:xlink="http://www.w3.org/1999/xlink" x="0px" y="0px" viewBox="0 0 2000 2000"
	 style="enable-background:new 0 0 2000 2000;" xml:space="preserve">
<style type="text/css">
	.st0{fill:#B4C7E3;}
	.st1{opacity:0.1;}
	.st2{clip-path:url(#SVGID_00000166668712341158558890000006608190198416893354_);}
	.st3{clip-path:url(#SVGID_00000026155017892343861870000017334418009316102810_);fill:#0060A0;}
	.st4{clip-path:url(#SVGID_00000026155017892343861870000017334418009316102810_);fill:#ED1C24;}
	
		.st5{clip-path:url(#SVGID_00000026155017892343861870000017334418009316102810_);fill:none;stroke:#B4C7E3;stroke-width:12.0346;stroke-miterlimit:10;}
	.st6{fill:#124B8D;stroke:#124B8D;stroke-width:14.1732;stroke-miterlimit:10;}
	.st7{fill:none;stroke:#124B8D;stroke-width:19.8425;stroke-miterlimit:10;}
	.st8{fill:#EC2028;}
	.st9{fill:none;stroke:#124B8D;stroke-width:11.3386;stroke-miterlimit:10;}
	.st10{fill:#124B8D;}
</style>
<rect x="5.9" y="-2.7" class="st0" width="1990.2" height="2005.4"/>
<g>
	<g id="S4O_blau_00000178884176216958184220000008677035727893750922_" class="st1">
		<g>
			<defs>
				<rect id="SVGID_1_" x="268.4" y="1133.3" width="1507" height="417.2"/>
			</defs>
			<clipPath id="SVGID_00000104693338507770707140000012029287593273494947_">
				<use xlink:href="#SVGID_1_"  style="overflow:visible;"/>
			</clipPath>
			<g style="clip-path:url(#SVGID_00000104693338507770707140000012029287593273494947_);">
				<defs>
					<rect id="SVGID_00000088127568942412288040000017827407282899307666_" x="268.4" y="1133.3" width="1507" height="417.2"/>
				</defs>
				<clipPath id="SVGID_00000036932949289295257270000004436552006221023880_">
					<use xlink:href="#SVGID_00000088127568942412288040000017827407282899307666_"  style="overflow:visible;"/>
				</clipPath>
				<path style="clip-path:url(#SVGID_00000036932949289295257270000004436552006221023880_);fill:#0060A0;" d="M481.3,1198.4
					c0,0-96.2,87.1-103.7,198.1c-7.6,111.1,13.5,122,13.5,122s42.7-47.5,116.7-22.3c74,25.2,138.8,54.3,138.8,54.3
					s-96.7-124.9-131.3-215.4C480.8,1244.6,481.3,1198.4,481.3,1198.4"/>
				<path style="clip-path:url(#SVGID_00000036932949289295257270000004436552006221023880_);fill:#ED1C24;" d="M834.1,1541.5
					l18.2-93.6H678.9l13.2-71.6l184.7-243.1h134.4l-44,233.6h44.6l-15.1,81h-44.6l-17.6,93.6H834.1z M867.3,1366.9l15.1-67.8
					c6.9-28.3,15.1-58.4,21.4-86h-2.5c-18.2,28.9-36.4,56.5-57.2,86l-47.1,66.6l-0.6,1.3H867.3z"/>
				
					<path style="clip-path:url(#SVGID_00000036932949289295257270000004436552006221023880_);fill:none;stroke:#B4C7E3;stroke-width:12.0346;stroke-miterlimit:10;" d="
					M288.3,1389.9c9.2,5.4,22.6,9.6,37.1,9.6c10.5,0,20.1-4,20.1-13c0-7.4-6.7-11.6-19.7-18.3c-14.5-7.8-31.7-19.4-31.7-40.5
					c0-32,28.2-51,63-51c19.9,0,30.6,3.8,37.8,7.4l-11.8,31.7c-4.9-2.5-16.1-6.7-28.8-6.3c-13.4,0-19.9,5.4-19.9,11.8
					c0,7.2,10.1,12.1,21.5,18.6c18.1,9.4,30.4,21.7,30.4,39.6c0,36.7-31.1,52.7-64.4,52.7c-23.5-0.4-38.7-6-46-11L288.3,1389.9z"/>
				
					<polygon style="clip-path:url(#SVGID_00000036932949289295257270000004436552006221023880_);fill:none;stroke:#B4C7E3;stroke-width:12.0346;stroke-miterlimit:10;" points="
					624.5,1279.3 595.9,1429.9 557.9,1429.9 586.3,1279.3 				"/>
				
					<polygon style="clip-path:url(#SVGID_00000036932949289295257270000004436552006221023880_);fill:none;stroke:#B4C7E3;stroke-width:12.0346;stroke-miterlimit:10;" points="
					652.5,1279.3 690.7,1279.3 668.5,1396.6 725.1,1396.6 718.8,1429.9 624.1,1429.9 				"/>
				
					<path style="clip-path:url(#SVGID_00000036932949289295257270000004436552006221023880_);fill:none;stroke:#B4C7E3;stroke-width:12.0346;stroke-miterlimit:10;" d="
					M1078.2,1340.1c0,27.9-9.6,53.9-26.8,70.4c-14.3,13.9-34,21.9-57.2,21.9c-39.1,0-63-27-63-63.5c0-27.5,10.1-53.6,27.5-70.2
					c14.5-13.9,34.2-21.9,57-21.9C1054.9,1276.8,1078.2,1302.6,1078.2,1340.1z M989,1318.2c-11,11-17.2,32.9-17.2,49.8
					c0,19.7,9.2,32.6,27.9,32.6c7.8,0,15.2-3.6,21-9.2c10.7-11,16.8-34.4,16.8-50.3c0-17.9-6.7-32.6-26.4-32.6
					C1002.4,1308.6,995,1312.2,989,1318.2z"/>
				
					<path style="clip-path:url(#SVGID_00000036932949289295257270000004436552006221023880_);fill:none;stroke:#B4C7E3;stroke-width:12.0346;stroke-miterlimit:10;" d="
					M1158.9,1429.9l-8.3-27.3c-2.5-8.9-4.5-15.6-7.4-25.7h-0.4c-5.1,9.4-8.5,16.5-14.3,27.3l-13.9,25.7h-45.8l55.4-77.1l-25.7-73.5
					h40.2l6.9,24.6c2.5,9.4,4.2,16.1,6.7,25.9h0.7c6-11.4,9.4-18.3,13.9-26.6l12.7-23.9h45.4l-53.6,74l28.2,76.7H1158.9z"/>
				
					<path style="clip-path:url(#SVGID_00000036932949289295257270000004436552006221023880_);fill:none;stroke:#B4C7E3;stroke-width:12.0346;stroke-miterlimit:10;" d="
					M1248.3,1429.9l11.6-60.8l-29.7-89.8h40.9l7.4,33.7c2.5,12.3,4,19.7,5.6,28.2h0.4c4.7-8.9,9.2-17.2,15-28.2l18.5-33.7h45.6
					l-65.5,88.7l-11.6,61.9H1248.3z"/>
				
					<path style="clip-path:url(#SVGID_00000036932949289295257270000004436552006221023880_);fill:none;stroke:#B4C7E3;stroke-width:12.0346;stroke-miterlimit:10;" d="
					M1470,1422.8c-12.7,4-32,8.7-51.4,8.7c-20.3,0-37.8-5.1-50.7-15.6c-12.3-9.8-20.6-26.6-20.6-47.4c0-29.7,12.1-53.2,31.3-69.1
					c17.4-14.1,41.6-21.7,68.6-21.7c19.9,0,35.3,3.6,41.6,6.7l-10.9,32c-6.5-2.7-18.8-6-32.2-6c-13.6,0-25.7,3.4-34.6,9.4
					c-12.7,9.2-21.7,25.3-21.7,46c0,23.7,15.2,33.3,34.6,33.3c6.9,0,10.7-0.7,13.6-1.8l5.1-25.9h-20.3l6-30.4h57.2L1470,1422.8z"/>
				
					<polygon style="clip-path:url(#SVGID_00000036932949289295257270000004436552006221023880_);fill:none;stroke:#B4C7E3;stroke-width:12.0346;stroke-miterlimit:10;" points="
					1597.6,1369.2 1544.6,1369.2 1539.3,1397.5 1598.7,1397.5 1592.7,1429.9 1495,1429.9 1523.4,1279.3 1617.9,1279.3 
					1611.7,1311.7 1555.6,1311.7 1550.7,1337 1603.9,1337 				"/>
				
					<path style="clip-path:url(#SVGID_00000036932949289295257270000004436552006221023880_);fill:none;stroke:#B4C7E3;stroke-width:12.0346;stroke-miterlimit:10;" d="
					M1615.3,1429.9l28.4-150.6h45.4l13.6,45.4c5.8,20.1,10.1,37.3,13.9,55.6h0.7c0.7-16.3,2.9-34.6,7.2-57l8.3-44h35.5l-28.6,150.6
					h-39.8l-15.2-49.2c-6.3-21.2-10.7-36.2-15-56.5h-0.9c-1.6,15-5.6,39.1-10.3,64.1l-7.8,41.6H1615.3z"/>
				<path style="clip-path:url(#SVGID_00000036932949289295257270000004436552006221023880_);fill:#0060A0;" d="M288.3,1389.9
					c9.2,5.4,22.6,9.6,37.1,9.6c10.5,0,20.1-4,20.1-13c0-7.4-6.7-11.6-19.7-18.3c-14.5-7.8-31.7-19.4-31.7-40.5c0-32,28.2-51,63-51
					c19.9,0,30.6,3.8,37.8,7.4l-11.8,31.7c-4.9-2.5-16.1-6.7-28.8-6.3c-13.4,0-19.9,5.4-19.9,11.8c0,7.2,10.1,12.1,21.5,18.6
					c18.1,9.4,30.4,21.7,30.4,39.6c0,36.7-31.1,52.7-64.4,52.7c-23.5-0.4-38.7-6-46-11L288.3,1389.9z"/>
				<polygon style="clip-path:url(#SVGID_00000036932949289295257270000004436552006221023880_);fill:#0060A0;" points="
					624.5,1279.3 595.9,1429.9 557.9,1429.9 586.3,1279.3 				"/>
				<polygon style="clip-path:url(#SVGID_00000036932949289295257270000004436552006221023880_);fill:#0060A0;" points="
					652.5,1279.3 690.7,1279.3 668.5,1396.6 725.1,1396.6 718.8,1429.9 624.1,1429.9 				"/>
				<path style="clip-path:url(#SVGID_00000036932949289295257270000004436552006221023880_);fill:#0060A0;" d="M1078.2,1340.1
					c0,27.9-9.6,53.9-26.8,70.4c-14.3,13.9-34,21.9-57.2,21.9c-39.1,0-63-27-63-63.5c0-27.5,10.1-53.6,27.5-70.2
					c14.5-13.9,34.2-21.9,57-21.9C1054.9,1276.8,1078.2,1302.6,1078.2,1340.1 M989,1318.2c-11,11-17.2,32.9-17.2,49.8
					c0,19.7,9.2,32.6,27.9,32.6c7.8,0,15.2-3.6,21-9.2c10.7-11,16.8-34.4,16.8-50.3c0-17.9-6.7-32.6-26.4-32.6
					C1002.4,1308.6,995,1312.2,989,1318.2"/>
				<path style="clip-path:url(#SVGID_00000036932949289295257270000004436552006221023880_);fill:#0060A0;" d="M1158.9,1429.9
					l-8.3-27.3c-2.5-8.9-4.5-15.6-7.4-25.7h-0.4c-5.1,9.4-8.5,16.5-14.3,27.3l-13.9,25.7h-45.8l55.4-77.1l-25.7-73.5h40.2l6.9,24.6
					c2.5,9.4,4.2,16.1,6.7,25.9h0.7c6-11.4,9.4-18.3,13.9-26.6l12.7-23.9h45.4l-53.6,74l28.2,76.7H1158.9z"/>
				<path style="clip-path:url(#SVGID_00000036932949289295257270000004436552006221023880_);fill:#0060A0;" d="M1248.3,1429.9
					l11.6-60.8l-29.7-89.8h40.9l7.4,33.7c2.5,12.3,4,19.7,5.6,28.2h0.4c4.7-8.9,9.2-17.2,15-28.2l18.5-33.7h45.6l-65.5,88.7
					l-11.6,61.9H1248.3z"/>
				<path style="clip-path:url(#SVGID_00000036932949289295257270000004436552006221023880_);fill:#0060A0;" d="M1470,1422.8
					c-12.7,4-32,8.7-51.4,8.7c-20.3,0-37.8-5.1-50.7-15.6c-12.3-9.8-20.6-26.6-20.6-47.4c0-29.7,12.1-53.2,31.3-69.1
					c17.4-14.1,41.6-21.7,68.6-21.7c19.9,0,35.3,3.6,41.6,6.7l-10.9,32c-6.5-2.7-18.8-6-32.2-6c-13.6,0-25.7,3.4-34.6,9.4
					c-12.7,9.2-21.7,25.3-21.7,46c0,23.7,15.2,33.3,34.6,33.3c6.9,0,10.7-0.7,13.6-1.8l5.1-25.9h-20.3l6-30.4h57.2L1470,1422.8z"/>
				<polygon style="clip-path:url(#SVGID_00000036932949289295257270000004436552006221023880_);fill:#0060A0;" points="
					1597.6,1369.2 1544.6,1369.2 1539.3,1397.5 1598.7,1397.5 1592.7,1429.9 1495,1429.9 1523.4,1279.3 1617.9,1279.3 
					1611.7,1311.7 1555.6,1311.7 1550.7,1337 1603.9,1337 				"/>
				<path style="clip-path:url(#SVGID_00000036932949289295257270000004436552006221023880_);fill:#0060A0;" d="M1615.3,1429.9
					l28.4-150.6h45.4l13.6,45.4c5.8,20.1,10.1,37.3,13.9,55.6h0.7c0.7-16.3,2.9-34.6,7.2-57l8.3-44h35.5l-28.6,150.6h-39.8
					l-15.2-49.2c-6.3-21.2-10.7-36.2-15-56.5h-0.9c-1.6,15-5.6,39.1-10.3,64.1l-7.8,41.6H1615.3z"/>
			</g>
		</g>
	</g>
	<path class="st6" d="M321.2,1225.7c79.9-18.1,160.8-32.8,242.4-40.7c45.9-3.9,92.5-7,138.2,1c15.2,2.9,30.5,7.5,42.9,17.1
		c4.2,3,8.3,6.2,12.2,9.6c3.9,3.4,7.8,7.1,10.5,11.6c6.4,10.9-5,14-13.7,14.3c-7.8,0.3-15.5-0.5-23.2-1.6
		c-10.2-1.6-20.3-3.7-30.1-7.1c-1.9-0.8-4-1.4-5.6-2.8c-2.2-2.5-3.8-5.4-5.7-8.1c-32.6-48-78.4-102.4-139.4-109.7
		c-5-0.5-10-0.6-15.1-0.4c-2.7,0-5.3,0.3-8,0.7c-0.1-0.3,0.2,0.7,0.9-1.5c-0.6-2.2-0.8-1.3-0.8-1.5c1.6,0.5,3.3,0.8,5,1
		c10.1,1.4,20.3,2.3,30.4,3.1c102.1,7.6,204.5,12.2,306.8,12.2c20.4-0.2,40.9-0.6,61.2-2.4c7.4-0.8,15-1.5,21.9-3.9
		c0.8-0.3,1.6-0.7,2.3-1.3c1.9-2.4,2.6-6.2,3.5-9.4c3.6-17.4,4.5-35.3,5.6-53c1.6-30.6,2.2-61.3,2.5-92
		c1.1-204.8-6.1-409.7-13.6-614.3l-0.5-12.5l6.6,10.6l217.3,349.2l217.1,349.5l3,4.8h-5.7l-404.4,2l2.7-2.4
		c-2.3,17.6-4.9,35.6-4.5,53.4c0,1.9,0.3,3.8,0.9,5.6c0.1,0.2,0.1,0.2,0,0c-0.1,0-0.1-0.1-0.2-0.1c-0.1,0-0.3-0.1-0.1,0l0.6,0.2
		c21.6,8.5,56.1,3.9,79,0.4c5.9-1,11.8-2,17.6-3.3s11.4-3.1,17.2-4.8c46.1-15.6,95.8-17.6,143.8-11.7c24,3.3,48.8,10.2,67.3,26.6
		c9.2,7.6,16.3,17.9,26.5,23.8c10.2,5.9,22.6,5.3,34.2,5.4c45.1-1,89.8-9.1,135-10.5c4.6,0,9.4-0.1,14,1.2c0.9,0.3,1.8,0.7,2.6,1.4
		c0.1,0.1,0.2,0.2,0.3,0.3l0.2,0.3c0.1,0.2,0.3,0.4,0.4,0.6l0.4,0.6c1.5,3,2.7,6.2,3.4,9.4c1.4,6,2.3,12,2.6,18.1
		c0.7,12.2-0.3,24.6-4.4,36.2c-6.8,19.4-22.6,29.7-43.1,28.7c-12.2-0.5-23.9-4.2-35.5-7.7c-5.8-2.1-16.9-5.4-20.5-10.7
		c-3-5.8,5.6-8.3,9.6-9.5c5.9-1.4,11.9-2.4,18-2.9c19.6-1.7,39.3-1.8,58.8-0.1c16.3,2.8,32.2,7.9,48.5,11.2
		c35.2,7.7,71.4,11.8,107.4,9c6-0.5,12-1.1,17.9-2c17.6-2.7,71.8-12.1,89-14.9c-26.9,4.4-81.1,15.4-106.9,17.8
		c-24,2.1-48.3,1.1-72.2-2.1s-47.4-8.6-70.8-14.4c-4.4-1-8.8-2.1-13.2-2.6c-19.4-1.5-39-1.4-58.4,0.4c-7.4,0.9-14.8,1.7-21.7,4.3
		c-1.8,0.8-5.4,2.2-4,4.6c2.4,3.2,7.1,4.9,10.8,6.6c8.3,3.3,17,5.6,25.7,7.9c45.6,11.7,64.3-16.5,61.9-59.4
		c-0.4-7.4-1.7-14.7-3.8-21.8c-0.5-1.7-1.2-3.3-2.1-4.8c-0.1-0.1-0.2-0.2-0.3-0.3l-0.1-0.2c-0.4-0.4-0.9-0.6-1.5-0.7
		c-7.1-1.7-14.6-0.9-21.9-0.6c-42,2.7-83.7,9.6-126,10.8c-9.1,0.1-18.5,0.3-27.5-2.1c-15.5-4-24.5-18.2-36-27.8
		c-9-7.7-19.4-13.5-30.5-17.4c-22.5-7.9-46.7-10-70.4-10.6c-36-1.1-71.8,2.9-106,14.6c-5.7,1.8-11.5,3.6-17.5,5s-11.9,2.4-17.9,3.4
		c-24.1,3.8-59.4,8.7-82.3-0.5c-3.8-1.6-3.8-6.8-4.1-10.2c-0.5-18.4,2.1-36.4,4.4-54.5l0.3-2.4h2.4l404.4-2.8l-2.7,4.9l-217.4-349.3
		L953,348.1l6.1-1.9c7.7,225.3,16.6,450.8,11.3,676.2c-0.8,20.5-1.7,41.1-3.8,61.5c-0.7,7.8-1.9,15.5-3.5,23.1
		c-0.6,2.7-1.4,5.3-2.4,7.8c-0.8,2-2.4,4.7-4.7,5.7c-3.1,1.6-6.7,2.4-9.9,3c-5.2,1-10.4,1.6-15.5,2.1c-20.5,1.8-41.1,2.1-61.6,2.3
		c-102.5-0.2-205-5.2-307.2-13.2c-10.3-0.9-20.5-1.8-30.7-3.3c-1.3-0.2-2.6-0.4-3.9-0.7c-0.8-0.1-1.5-0.4-2.3-0.7
		c-0.2-0.4-0.8,0.3-1.4-2.1c0.8-2.5,1.4-1.7,1.6-2c3.1-0.9,6.1-0.7,9.2-0.9c5.2-0.2,10.4,0,15.6,0.5c41.9,4.7,76.7,32.6,104,62.8
		c15.6,17.2,28.9,36.1,41.6,55.3c0.3,0.5,0.6,0.9,1,1.3c0.4,0.3,0.8,0.6,1.3,0.8c5.6,2.7,11.8,4.2,17.9,5.7c9.9,2.4,20,3.9,30.1,4.6
		c6.5,0.2,26.2,1.1,19.2-10.4c-2.5-4.2-6.3-7.8-10-11.1c-3.8-3.4-7.8-6.5-12-9.5c-8-6.2-17.4-10.4-27.1-13.3
		c-9.8-2.8-19.8-4.8-29.9-6c-40.7-4.9-81.8-2.6-122.5,0.8C482.1,1194,401.1,1208.2,321.2,1225.7L321.2,1225.7z"/>
	<path class="st7" d="M537.8,1086.5c22.7-89,364.7-690.2,393.3-740.2c32.9-57.7,28.5,101.3,28.5,101.3l7,581.7
		C840.4,1127.9,537.8,1086.5,537.8,1086.5z"/>
	<g>
		<g>
			<path class="st8" d="M1377.1,1155.4c-59.4-108.6-136.3-207.8-226.4-292.7c-30.2-28.5-62-55.5-95.1-80.8
				c52.4,34.3,102.3,72.7,148.9,114.7c78.2,70.6,147,151.3,204.3,239.9C1408.8,1136.5,1377.1,1155.4,1377.1,1155.4L1377.1,1155.4z"
				/>
		</g>
		<line class="st9" x1="1055.6" y1="1397.2" x2="1055.6" y2="781.9"/>
		<g>
			
				<rect x="1035.2" y="1465.9" transform="matrix(-1 -4.488067e-11 4.488067e-11 -1 2111.1973 3085.2498)" class="st10" width="40.9" height="153.4"/>
			<ellipse class="st10" cx="1055.6" cy="1448.2" rx="20.4" ry="51.1"/>
		</g>
	</g>
</g>
</svg>
