<?xml version="1.0" encoding="UTF-8"?><svg id="Layer_1" xmlns="http://www.w3.org/2000/svg" xmlns:xlink="http://www.w3.org/1999/xlink" viewBox="0 0 2000 2000"><defs><style>.cls-1,.cls-2,.cls-3,.cls-4,.cls-5,.cls-6,.cls-7,.cls-8,.cls-9,.cls-10,.cls-11{fill:none;}.cls-2{stroke:#b4c7e3;stroke-width:14.04px;}.cls-2,.cls-6,.cls-7,.cls-9,.cls-10,.cls-11{stroke-miterlimit:10;}.cls-3{clip-path:url(#clippath-3);}.cls-4{clip-path:url(#clippath-2);}.cls-5{clip-path:url(#clippath-1);}.cls-12{fill:#0060a0;}.cls-13{fill:#ec2027;}.cls-14{fill:#ed1c24;}.cls-15{fill:#b5c7e2;}.cls-16{fill:#8d786b;}.cls-17{fill:#3e9dd4;}.cls-18{fill:#26150c;}.cls-6{stroke-width:10.91px;}.cls-6,.cls-10{stroke:#9c9b9b;}.cls-7{stroke:#231f20;stroke-width:.99px;}.cls-8{clip-path:url(#clippath);}.cls-9{stroke:#f15a29;stroke-width:22.68px;}.cls-10,.cls-11{stroke-width:2.73px;}.cls-11{stroke:#1b1b1b;}</style><clipPath id="clippath"><rect class="cls-1" x="93.27" y="311.37" width="1589.34" height="1520.45" transform="translate(-379.81 497.52) rotate(-25.99)"/></clipPath><clipPath id="clippath-1"><rect class="cls-1" x="93.27" y="311.37" width="1589.34" height="1520.45" transform="translate(-379.81 497.52) rotate(-25.99)"/></clipPath><clipPath id="clippath-2"><rect class="cls-1" x="127.55" y="130" width="1758.12" height="486.69"/></clipPath><clipPath id="clippath-3"><rect class="cls-1" x="127.55" y="130" width="1758.12" height="486.69"/></clipPath></defs><rect class="cls-15" x="-73.83" y="-98.21" width="2173.41" height="1792.29"/><g id="Artwork_3"><g class="cls-8"><g class="cls-5"><path class="cls-18" d="m1132.66,1230.99h0c-7.06-.14-12.73-6.03-12.59-13.09l21.57-1106.32c.14-7.06,6.03-12.73,13.09-12.59,7.06.14,12.73,6.03,12.59,13.09l-21.57,1106.32c-.14,7.06-6.03,12.73-13.09,12.59"/><path class="cls-10" d="m1132.66,1230.99h0c-7.06-.14-12.73-6.03-12.59-13.09l21.57-1106.32c.14-7.06,6.03-12.73,13.09-12.59,7.06.14,12.73,6.03,12.59,13.09l-21.57,1106.32c-.14,7.06-6.03,12.73-13.09,12.59Z"/><path class="cls-16" d="m1486.23,1432.69l-999.33-19.48c-14.12-.27-25.45-12.06-25.18-26.18l4.13-211.85c.27-14.12,12.06-25.45,26.18-25.18l912.06,103.41c14.12.27,25.45,12.06,25.18,26.18l83.13,127.92c-.28,14.12-12.06,25.45-26.18,25.18"/><path class="cls-11" d="m1486.23,1432.69l-999.33-19.48c-14.12-.27-25.45-12.06-25.18-26.18l4.13-211.85c.27-14.12,12.06-25.45,26.18-25.18l912.06,103.41c14.12.27,25.45,12.06,25.18,26.18l83.13,127.92c-.28,14.12-12.06,25.45-26.18,25.18Z"/><path class="cls-16" d="m231.4,1232.69c392.03,95.41,260.87,124.97,804.53,129.14,543.66,4.18,822.98-97.41,822.98-97.41-2.05,263.26-441.21,389.57-573.97,391.26-132.75,1.69-300.04,17.7-580.12-.61-177.56-11.61-308.43,8.97-438.81-111.31-130.38-120.28-100.85-207.47-103.27-312.42"/><path class="cls-11" d="m231.4,1232.69c392.03,95.41,260.87,124.97,804.53,129.14,543.66,4.18,822.98-97.41,822.98-97.41-2.05,263.26-441.21,389.57-573.97,391.26-132.75,1.69-300.04,17.7-580.12-.61-177.56-11.61-308.43,8.97-438.81-111.31-130.38-120.28-100.85-207.47-103.27-312.42"/><path class="cls-18" d="m916.71,1327.4l-254.65-4.96c-14.12-.27-25.45-12.06-25.18-26.18l.21-10.7c.27-14.12,12.06-25.45,26.18-25.18l254.65,4.96c14.12.27,25.45,12.06,25.18,26.18l-.21,10.7c-.28,14.12-12.06,25.45-26.18,25.18"/><path class="cls-10" d="m916.71,1327.4l-254.65-4.96c-14.12-.27-25.45-12.06-25.18-26.18l.21-10.7c.27-14.12,12.06-25.45,26.18-25.18l254.65,4.96c14.12.27,25.45,12.06,25.18,26.18l-.21,10.7c-.28,14.12-12.06,25.45-26.18,25.18Z"/><path class="cls-18" d="m1325.43,1335.37l-188.31-3.67c-14.12-.27-25.45-12.06-25.18-26.18l.21-10.7c.28-14.12,12.06-25.46,26.18-25.18l188.31,3.67c14.12.27,25.45,12.06,25.18,26.18l-.21,10.7c-.28,14.12-12.06,25.45-26.18,25.18"/><path class="cls-10" d="m1325.43,1335.37l-188.31-3.67c-14.12-.27-25.45-12.06-25.18-26.18l.21-10.7c.28-14.12,12.06-25.46,26.18-25.18l188.31,3.67c14.12.27,25.45,12.06,25.18,26.18l-.21,10.7c-.28,14.12-12.06,25.45-26.18,25.18Z"/><line class="cls-6" x1="162.92" y1="1231.35" x2="1141.64" y2="111.58"/><line class="cls-6" x1="1858.8" y1="1263.35" x2="1168.41" y2="111.04"/></g></g></g><path class="cls-17" d="m-75.14,1491.18c43.64-33.94,111.5-41.44,127.27-43.18,98.96-10.94,169.19,28.88,234.09,54.55,104.48,41.32,197.68,41.94,384.09,43.18,245.9,1.64,237.68-58.09,434.09-45.45,185.42,11.93,204.2,65.9,381.82,61.36,125.64-3.21,132.81-30.63,297.73-45.45,180.56-16.23,309.19-27.79,377.27,38.64,95.45,93.12,51.21,319.29-18.18,445.45-317.5,577.26-1971.04,532.52-2227.27-13.64-57.81-123.23-106.99-405.19,9.09-495.45Z"/><path class="cls-9" d="m1035.18,1352.45c14.81-18.26,125.14-153.58,226.61-240.35,0,0,74.56-63.75,130.47-68.67,2.77-.24,41.3-3.44,41.2-3.43"/><ellipse class="cls-13" cx="1433.46" cy="1659.76" rx="24.5" ry="17.18"/><ellipse class="cls-13" cx="1433.46" cy="1893.22" rx="24.5" ry="17.18"/><rect class="cls-13" x="1408.96" y="1659.76" width="49.01" height="233.46"/><line class="cls-7" x1="1433.46" y1="1040" x2="1433.48" y2="1676.91"/><g id="S4O_blau"><g class="cls-4"><g class="cls-3"><path class="cls-12" d="m375.95,205.93s-112.18,101.59-121,231.15c-8.83,129.56,15.75,142.32,15.75,142.32,0,0,49.79-55.46,136.12-26.01,86.34,29.44,161.96,63.31,161.96,63.31,0,0-112.81-145.76-153.14-251.27-40.33-105.51-39.7-159.5-39.7-159.5"/><path class="cls-14" d="m787.43,606.28l21.25-109.18h-202.24l15.39-83.53,215.42-283.57h156.8l-51.29,272.58h52.02l-17.59,94.52h-52.02l-20.51,109.18h-117.24Zm38.84-203.7l17.58-79.13c8.06-32.97,17.59-68.14,24.92-100.39h-2.93c-21.25,33.71-42.5,65.95-66.68,100.39l-54.96,77.67-.73,1.46h82.8Z"/><path class="cls-2" d="m150.77,429.44c10.69,6.26,26.34,11.21,43.28,11.21,12.26,0,23.47-4.69,23.47-15.12,0-8.6-7.82-13.56-22.94-21.38-16.95-9.12-37.03-22.68-37.03-47.19,0-37.28,32.86-59.45,73.53-59.45,23.21,0,35.72,4.43,44.07,8.6l-13.82,37.02c-5.74-2.87-18.77-7.82-33.63-7.3-15.64,0-23.21,6.26-23.21,13.82,0,8.35,11.73,14.08,25.03,21.64,21.12,10.95,35.46,25.29,35.46,46.15,0,42.76-36.24,61.53-75.09,61.53-27.38-.52-45.11-7.04-53.71-12.78l14.6-36.77Z"/><polygon class="cls-2" points="542.97 300.38 509.59 476.11 465.27 476.11 498.39 300.38 542.97 300.38"/><polygon class="cls-2" points="575.57 300.38 620.15 300.38 594.34 437.27 660.31 437.27 653.01 476.11 542.45 476.11 575.57 300.38"/><path class="cls-2" d="m1072.22,371.3c0,32.59-11.21,62.84-31.29,82.13-16.69,16.17-39.63,25.55-66.75,25.55-45.63,0-73.53-31.55-73.53-74.05,0-32.07,11.73-62.58,32.07-81.87,16.95-16.16,39.9-25.55,66.49-25.55,45.89,0,73.01,29.99,73.01,73.79Zm-104.04-25.55c-12.78,12.78-20.07,38.33-20.07,58.14,0,22.95,10.69,38.07,32.59,38.07,9.12,0,17.73-4.17,24.51-10.69,12.51-12.78,19.56-40.15,19.56-58.67,0-20.86-7.82-38.07-30.77-38.07-10.17,0-18.77,4.17-25.81,11.21Z"/><path class="cls-2" d="m1166.37,476.12l-9.65-31.81c-2.87-10.43-5.21-18.25-8.6-29.99h-.52c-6,10.95-9.91,19.3-16.69,31.81l-16.16,29.99h-53.45l64.66-89.95-29.99-85.79h46.94l8.08,28.68c2.87,10.95,4.96,18.77,7.82,30.25h.79c7.04-13.3,10.95-21.38,16.16-31.03l14.86-27.9h52.93l-62.58,86.3,32.86,89.44h-47.45Z"/><path class="cls-2" d="m1270.67,476.12l13.56-70.93-34.68-104.81h47.72l8.6,39.37c2.87,14.34,4.69,22.94,6.52,32.86h.52c5.48-10.43,10.69-20.08,17.47-32.86l21.64-39.37h53.19l-76.4,103.51-13.56,72.23h-44.58Z"/><path class="cls-2" d="m1529.34,467.77c-14.86,4.69-37.29,10.17-59.97,10.17s-44.07-6-59.19-18.25c-14.34-11.47-23.99-31.03-23.99-55.28,0-34.68,14.09-62.06,36.51-80.57,20.34-16.43,48.5-25.29,80.05-25.29,23.21,0,41.2,4.17,48.5,7.82l-12.77,37.29c-7.57-3.13-21.91-7.04-37.55-7.04s-29.99,3.91-40.42,10.95c-14.86,10.69-25.29,29.46-25.29,53.71,0,27.64,17.73,38.85,40.42,38.85,8.08,0,12.52-.78,15.91-2.08l5.99-30.25h-23.73l7.04-35.46h66.75l-18.25,95.43Z"/><polygon class="cls-2" points="1678.23 405.19 1616.43 405.19 1610.18 438.31 1679.53 438.31 1672.49 476.12 1558.55 476.12 1591.66 300.37 1701.95 300.37 1694.66 338.18 1629.21 338.18 1623.47 367.65 1685.53 367.65 1678.23 405.19"/><path class="cls-2" d="m1698.84,476.12l33.11-175.74h52.93l15.91,52.93c6.78,23.46,11.73,43.54,16.16,64.92h.78c.78-19.03,3.39-40.41,8.35-66.49l9.65-51.36h41.46l-33.38,175.74h-46.42l-17.73-57.37c-7.3-24.77-12.51-42.24-17.47-65.96h-1.04c-1.83,17.47-6.52,45.63-11.99,74.83l-9.13,48.5h-41.2Z"/><path class="cls-12" d="m150.77,429.44c10.69,6.26,26.34,11.21,43.28,11.21,12.26,0,23.47-4.69,23.47-15.12,0-8.6-7.82-13.56-22.94-21.38-16.95-9.12-37.03-22.68-37.03-47.19,0-37.28,32.86-59.45,73.53-59.45,23.21,0,35.72,4.43,44.07,8.6l-13.82,37.02c-5.74-2.87-18.77-7.82-33.63-7.3-15.64,0-23.21,6.26-23.21,13.82,0,8.35,11.73,14.08,25.03,21.64,21.12,10.95,35.46,25.29,35.46,46.15,0,42.76-36.24,61.53-75.09,61.53-27.38-.52-45.11-7.04-53.71-12.78l14.6-36.77Z"/><polygon class="cls-12" points="542.97 300.38 509.59 476.11 465.27 476.11 498.39 300.38 542.97 300.38"/><polygon class="cls-12" points="575.57 300.38 620.15 300.38 594.34 437.27 660.31 437.27 653.01 476.11 542.45 476.11 575.57 300.38"/><path class="cls-12" d="m1072.22,371.3c0,32.59-11.21,62.84-31.29,82.13-16.69,16.17-39.63,25.55-66.75,25.55-45.63,0-73.53-31.55-73.53-74.05,0-32.07,11.73-62.58,32.07-81.87,16.95-16.16,39.9-25.55,66.49-25.55,45.89,0,73.01,29.99,73.01,73.79m-104.04-25.55c-12.78,12.78-20.07,38.33-20.07,58.14,0,22.95,10.69,38.07,32.59,38.07,9.12,0,17.73-4.17,24.51-10.69,12.51-12.78,19.56-40.15,19.56-58.67,0-20.86-7.82-38.07-30.77-38.07-10.17,0-18.77,4.17-25.81,11.21"/><path class="cls-12" d="m1166.37,476.12l-9.65-31.81c-2.87-10.43-5.21-18.25-8.6-29.99h-.52c-6,10.95-9.91,19.3-16.69,31.81l-16.16,29.99h-53.45l64.66-89.95-29.99-85.79h46.94l8.08,28.68c2.87,10.95,4.96,18.77,7.82,30.25h.79c7.04-13.3,10.95-21.38,16.16-31.03l14.86-27.9h52.93l-62.58,86.3,32.86,89.44h-47.45Z"/><path class="cls-12" d="m1270.67,476.12l13.56-70.93-34.68-104.81h47.72l8.6,39.37c2.87,14.34,4.69,22.94,6.52,32.86h.52c5.48-10.43,10.69-20.08,17.47-32.86l21.64-39.37h53.19l-76.4,103.51-13.56,72.23h-44.58Z"/><path class="cls-12" d="m1529.34,467.77c-14.86,4.69-37.29,10.17-59.97,10.17s-44.07-6-59.19-18.25c-14.34-11.47-23.99-31.03-23.99-55.28,0-34.68,14.09-62.06,36.51-80.57,20.34-16.43,48.5-25.29,80.05-25.29,23.21,0,41.2,4.17,48.5,7.82l-12.77,37.29c-7.57-3.13-21.91-7.04-37.55-7.04s-29.99,3.91-40.42,10.95c-14.86,10.69-25.29,29.46-25.29,53.71,0,27.64,17.73,38.85,40.42,38.85,8.08,0,12.52-.78,15.91-2.08l5.99-30.25h-23.73l7.04-35.46h66.75l-18.25,95.43Z"/><polygon class="cls-12" points="1678.23 405.19 1616.43 405.19 1610.18 438.31 1679.53 438.31 1672.49 476.12 1558.55 476.12 1591.66 300.37 1701.95 300.37 1694.66 338.18 1629.21 338.18 1623.47 367.65 1685.53 367.65 1678.23 405.19"/><path class="cls-12" d="m1698.84,476.12l33.11-175.74h52.93l15.91,52.93c6.78,23.46,11.73,43.54,16.16,64.92h.78c.78-19.03,3.39-40.41,8.35-66.49l9.65-51.36h41.46l-33.38,175.74h-46.42l-17.73-57.37c-7.3-24.77-12.51-42.24-17.47-65.96h-1.04c-1.83,17.47-6.52,45.63-11.99,74.83l-9.13,48.5h-41.2Z"/></g></g></g></svg>